{
DisplayStrings = (

glyphs = (
{
color = 6;
glyphname = tlA;
lastChange = "2016-01-01 05:46:51 +0000";
layers = (
{
layerId = "59118767-2CA9-48AA-9373-694D24C960D8";
name = Regular;
paths = (
{
closed = 1;
nodes = (
"50 -107 OFFCURVE",
"54 -105 OFFCURVE",
"59 -101 CURVE",
"108 -68 OFFCURVE",
"150 -39 OFFCURVE",
"199 -4 CURVE",
"224 -9 OFFCURVE",
"250 -12 OFFCURVE",
"277 -12 CURVE SMOOTH",
"475 -12 OFFCURVE",
"720 124 OFFCURVE",
"720 338 CURVE SMOOTH",
"720 452 OFFCURVE",
"635 522 OFFCURVE",
"534 522 CURVE SMOOTH",
"385 522 OFFCURVE",
"285 372 OFFCURVE",
"285 270 CURVE SMOOTH",
"285 224 OFFCURVE",
"306 184 OFFCURVE",
"354 173 CURVE",
"320 150 OFFCURVE",
"277 116 OFFCURVE",
"239 98 CURVE",
"167 118 OFFCURVE",
"115 161 OFFCURVE",
"115 232 CURVE SMOOTH",
"115 313 OFFCURVE",
"166 320 OFFCURVE",
"190 323 CURVE SMOOTH",
"232 328 OFFCURVE",
"280 414 OFFCURVE",
"280 444 CURVE SMOOTH",
"280 453 OFFCURVE",
"276 459 OFFCURVE",
"259 459 CURVE SMOOTH",
"179 459 OFFCURVE",
"39 325 OFFCURVE",
"39 183 CURVE SMOOTH",
"39 102 OFFCURVE",
"78 48 OFFCURVE",
"137 18 CURVE",
"98 -6 OFFCURVE",
"74 -20 OFFCURVE",
"24 -54 CURVE SMOOTH",
"21 -56 OFFCURVE",
"20 -60 OFFCURVE",
"20 -65 CURVE SMOOTH",
"20 -82 OFFCURVE",
"32 -107 OFFCURVE",
"46 -107 CURVE SMOOTH"
);
},
{
closed = 1;
nodes = (
"335 85 OFFCURVE",
"323 85 OFFCURVE",
"311 86 CURVE",
"395 142 OFFCURVE",
"462 191 OFFCURVE",
"507 236 CURVE SMOOTH",
"512 241 OFFCURVE",
"515 247 OFFCURVE",
"515 252 CURVE SMOOTH",
"515 261 OFFCURVE",
"505 269 OFFCURVE",
"494 269 CURVE SMOOTH",
"485 269 OFFCURVE",
"479 263 OFFCURVE",
"467 256 CURVE SMOOTH",
"460 252 OFFCURVE",
"450 249 OFFCURVE",
"434 249 CURVE SMOOTH",
"386 249 OFFCURVE",
"364 279 OFFCURVE",
"364 314 CURVE SMOOTH",
"364 364 OFFCURVE",
"409 425 OFFCURVE",
"487 425 CURVE SMOOTH",
"565 425 OFFCURVE",
"623 365 OFFCURVE",
"623 286 CURVE SMOOTH",
"623 151 OFFCURVE",
"483 85 OFFCURVE",
"347 85 CURVE SMOOTH"
);
}
);
width = 735;
}
);
leftKerningGroup = tlA;
rightKerningGroup = tlA;
unicode = 0C05;
},
{
color = 6;
glyphname = tlAA;
lastChange = "2016-01-01 05:46:51 +0000";
layers = (
{
layerId = "59118767-2CA9-48AA-9373-694D24C960D8";
name = Regular;
paths = (
{
closed = 1;
nodes = (
"-25 -99 OFFCURVE",
"-18 -95 OFFCURVE",
"-12 -91 CURVE SMOOTH",
"31 -62 OFFCURVE",
"99 -17 OFFCURVE",
"152 19 CURVE",
"195 -3 OFFCURVE",
"248 -13 OFFCURVE",
"302 -13 CURVE SMOOTH",
"504 -13 OFFCURVE",
"617 126 OFFCURVE",
"617 206 CURVE SMOOTH",
"617 243 OFFCURVE",
"593 268 OFFCURVE",
"564 290 CURVE",
"630 343 OFFCURVE",
"662 404 OFFCURVE",
"662 447 CURVE SMOOTH",
"662 492 OFFCURVE",
"628 524 OFFCURVE",
"568 524 CURVE SMOOTH",
"469 524 OFFCURVE",
"383 439 OFFCURVE",
"383 355 CURVE SMOOTH",
"383 311 OFFCURVE",
"406 284 OFFCURVE",
"433 263 CURVE",
"354 211 OFFCURVE",
"273 161 OFFCURVE",
"206 119 CURVE",
"163 143 OFFCURVE",
"132 181 OFFCURVE",
"132 238 CURVE SMOOTH",
"132 311 OFFCURVE",
"181 320 OFFCURVE",
"207 324 CURVE SMOOTH",
"252 331 OFFCURVE",
"295 416 OFFCURVE",
"295 445 CURVE SMOOTH",
"295 453 OFFCURVE",
"291 459 OFFCURVE",
"274 459 CURVE SMOOTH",
"197 459 OFFCURVE",
"54 330 OFFCURVE",
"54 181 CURVE SMOOTH",
"54 125 OFFCURVE",
"73 83 OFFCURVE",
"105 53 CURVE",
"58 24 OFFCURVE",
"-2 -11 OFFCURVE",
"-50 -44 CURVE SMOOTH",
"-53 -46 OFFCURVE",
"-54 -50 OFFCURVE",
"-54 -55 CURVE SMOOTH",
"-54 -72 OFFCURVE",
"-42 -99 OFFCURVE",
"-29 -99 CURVE SMOOTH"
);
},
{
closed = 1;
nodes = (
"328 84 OFFCURVE",
"298 87 OFFCURVE",
"269 94 CURVE",
"339 141 OFFCURVE",
"410 187 OFFCURVE",
"480 233 CURVE",
"507 217 OFFCURVE",
"529 200 OFFCURVE",
"529 172 CURVE SMOOTH",
"529 118 OFFCURVE",
"449 84 OFFCURVE",
"356 84 CURVE SMOOTH"
);
},
{
closed = 1;
nodes = (
"493 339 OFFCURVE",
"464 362 OFFCURVE",
"464 397 CURVE SMOOTH",
"464 431 OFFCURVE",
"491 455 OFFCURVE",
"521 455 CURVE SMOOTH",
"552 455 OFFCURVE",
"570 431 OFFCURVE",
"570 400 CURVE SMOOTH",
"570 373 OFFCURVE",
"557 342 OFFCURVE",
"525 317 CURVE"
);
}
);
width = 672;
}
);
leftKerningGroup = tlAA;
rightKerningGroup = tlAA;
unicode = 0C06;
},
{
color = 6;
glyphname = tlI;
lastChange = "2016-01-01 05:46:51 +0000";
layers = (
{
layerId = "59118767-2CA9-48AA-9373-694D24C960D8";
name = Regular;
paths = (
{
closed = 1;
nodes = (
"529 -13 OFFCURVE",
"553 -1 OFFCURVE",
"569 13 CURVE SMOOTH",
"589 31 OFFCURVE",
"598 52 OFFCURVE",
"598 78 CURVE SMOOTH",
"598 133 OFFCURVE",
"556 178 OFFCURVE",
"496 209 CURVE",
"539 269 OFFCURVE",
"565 334 OFFCURVE",
"565 390 CURVE SMOOTH",
"565 464 OFFCURVE",
"521 501 OFFCURVE",
"466 501 CURVE SMOOTH",
"417 501 OFFCURVE",
"354 472 OFFCURVE",
"308 414 CURVE",
"281 450 OFFCURVE",
"242 466 OFFCURVE",
"204 466 CURVE SMOOTH",
"108 466 OFFCURVE",
"25 365 OFFCURVE",
"25 326 CURVE SMOOTH",
"25 308 OFFCURVE",
"43 297 OFFCURVE",
"57 297 CURVE SMOOTH",
"65 297 OFFCURVE",
"71 300 OFFCURVE",
"74 304 CURVE SMOOTH",
"105 346 OFFCURVE",
"119 368 OFFCURVE",
"163 368 CURVE SMOOTH",
"219 368 OFFCURVE",
"228 332 OFFCURVE",
"235 308 CURVE SMOOTH",
"239 294 OFFCURVE",
"245 282 OFFCURVE",
"265 282 CURVE SMOOTH",
"274 282 OFFCURVE",
"281 287 OFFCURVE",
"292 300 CURVE SMOOTH",
"320 334 OFFCURVE",
"354 398 OFFCURVE",
"413 398 CURVE SMOOTH",
"447 398 OFFCURVE",
"474 377 OFFCURVE",
"474 337 CURVE SMOOTH",
"474 309 OFFCURVE",
"460 269 OFFCURVE",
"437 232 CURVE",
"397 244 OFFCURVE",
"353 251 OFFCURVE",
"310 251 CURVE SMOOTH",
"151 251 OFFCURVE",
"45 161 OFFCURVE",
"45 79 CURVE SMOOTH",
"45 20 OFFCURVE",
"99 -11 OFFCURVE",
"172 -11 CURVE SMOOTH",
"259 -11 OFFCURVE",
"375 32 OFFCURVE",
"447 106 CURVE",
"470 79 OFFCURVE",
"491 45 OFFCURVE",
"500 -2 CURVE SMOOTH",
"501 -7 OFFCURVE",
"503 -13 OFFCURVE",
"514 -13 CURVE SMOOTH"
);
},
{
closed = 1;
nodes = (
"168 78 OFFCURVE",
"140 93 OFFCURVE",
"140 119 CURVE SMOOTH",
"140 157 OFFCURVE",
"197 188 OFFCURVE",
"267 188 CURVE SMOOTH",
"307 188 OFFCURVE",
"357 178 OFFCURVE",
"402 147 CURVE",
"350 106 OFFCURVE",
"267 78 OFFCURVE",
"210 78 CURVE SMOOTH"
);
}
);
width = 643;
}
);
leftKerningGroup = tlI;
rightKerningGroup = tlI;
unicode = 0C07;
},
{
color = 6;
glyphname = tlII;
lastChange = "2016-01-01 05:46:52 +0000";
layers = (
{
anchors = (
{
name = bottom;
position = "{289, 0}";
}
);
layerId = "59118767-2CA9-48AA-9373-694D24C960D8";
name = Regular;
paths = (
{
closed = 1;
nodes = (
"352 -13 OFFCURVE",
"461 85 OFFCURVE",
"504 197 CURVE",
"604 198 LINE",
"583 160 OFFCURVE",
"572 122 OFFCURVE",
"572 88 CURVE SMOOTH",
"572 30 OFFCURVE",
"606 -13 OFFCURVE",
"683 -13 CURVE SMOOTH",
"778 -13 OFFCURVE",
"884 84 OFFCURVE",
"884 176 CURVE SMOOTH",
"884 257 OFFCURVE",
"826 276 OFFCURVE",
"745 276 CURVE SMOOTH",
"726 276 OFFCURVE",
"707 275 OFFCURVE",
"686 274 CURVE",
"707 327 OFFCURVE",
"715 375 OFFCURVE",
"715 414 CURVE SMOOTH",
"715 481 OFFCURVE",
"691 523 OFFCURVE",
"655 523 CURVE SMOOTH",
"619 523 OFFCURVE",
"580 471 OFFCURVE",
"580 438 CURVE SMOOTH",
"580 424 OFFCURVE",
"587 420 OFFCURVE",
"593 414 CURVE SMOOTH",
"625 383 OFFCURVE",
"636 350 OFFCURVE",
"636 319 CURVE SMOOTH",
"636 301 OFFCURVE",
"632 283 OFFCURVE",
"627 267 CURVE",
"612 266 OFFCURVE",
"583 264 OFFCURVE",
"521 262 CURVE",
"523 275 OFFCURVE",
"524 287 OFFCURVE",
"524 300 CURVE SMOOTH",
"524 416 OFFCURVE",
"440 462 OFFCURVE",
"345 462 CURVE SMOOTH",
"279 462 OFFCURVE",
"205 440 OFFCURVE",
"151 414 CURVE",
"170 448 OFFCURVE",
"196 486 OFFCURVE",
"232 517 CURVE SMOOTH",
"304 579 OFFCURVE",
"357 558 OFFCURVE",
"373 574 CURVE SMOOTH",
"382 583 OFFCURVE",
"412 636 OFFCURVE",
"412 666 CURVE SMOOTH",
"412 680 OFFCURVE",
"406 690 OFFCURVE",
"386 690 CURVE SMOOTH",
"354 690 OFFCURVE",
"290 665 OFFCURVE",
"233 618 CURVE SMOOTH",
"158 557 OFFCURVE",
"75 422 OFFCURVE",
"75 350 CURVE SMOOTH",
"75 333 OFFCURVE",
"81 310 OFFCURVE",
"95 310 CURVE SMOOTH",
"107 310 OFFCURVE",
"134 325 OFFCURVE",
"174 338 CURVE",
"141 310 OFFCURVE",
"116 275 OFFCURVE",
"99 236 CURVE",
"84 236 OFFCURVE",
"74 236 OFFCURVE",
"66 232 CURVE",
"55 228 OFFCURVE",
"46 219 OFFCURVE",
"38 201 CURVE SMOOTH",
"33 189 OFFCURVE",
"30 177 OFFCURVE",
"30 172 CURVE SMOOTH",
"30 166 OFFCURVE",
"34 164 OFFCURVE",
"40 164 CURVE SMOOTH",
"50 164 OFFCURVE",
"75 169 OFFCURVE",
"79 169 CURVE",
"77 156 OFFCURVE",
"76 143 OFFCURVE",
"76 131 CURVE SMOOTH",
"76 52 OFFCURVE",
"116 -13 OFFCURVE",
"222 -13 CURVE SMOOTH"
);
},
{
closed = 1;
nodes = (
"199 90 OFFCURVE",
"167 126 OFFCURVE",
"164 177 CURVE",
"188 179 OFFCURVE",
"221 182 OFFCURVE",
"431 195 CURVE",
"407 120 OFFCURVE",
"322 90 OFFCURVE",
"263 90 CURVE SMOOTH"
);
},
{
closed = 1;
nodes = (
"189 279 OFFCURVE",
"220 320 OFFCURVE",
"265 356 CURVE",
"272 357 OFFCURVE",
"280 357 OFFCURVE",
"287 357 CURVE SMOOTH",
"365 357 OFFCURVE",
"430 330 OFFCURVE",
"437 254 CURVE",
"342 246 OFFCURVE",
"246 241 OFFCURVE",
"174 238 CURVE"
);
},
{
closed = 1;
nodes = (
"688 75 OFFCURVE",
"646 97 OFFCURVE",
"646 142 CURVE SMOOTH",
"646 158 OFFCURVE",
"649 177 OFFCURVE",
"658 196 CURVE",
"731 199 OFFCURVE",
"792 185 OFFCURVE",
"792 134 CURVE SMOOTH",
"792 95 OFFCURVE",
"758 75 OFFCURVE",
"724 75 CURVE SMOOTH"
);
}
);
width = 889;
}
);
leftKerningGroup = tlII;
rightKerningGroup = tlII;
unicode = 0C08;
},
{
color = 6;
glyphname = tlU;
lastChange = "2016-01-01 05:46:51 +0000";
layers = (
{
layerId = "59118767-2CA9-48AA-9373-694D24C960D8";
name = Regular;
paths = (
{
closed = 1;
nodes = (
"178 -50 OFFCURVE",
"246 -20 OFFCURVE",
"308 45 CURVE",
"338 6 OFFCURVE",
"384 -13 OFFCURVE",
"434 -13 CURVE SMOOTH",
"549 -13 OFFCURVE",
"670 80 OFFCURVE",
"670 191 CURVE SMOOTH",
"670 265 OFFCURVE",
"625 304 OFFCURVE",
"570 304 CURVE SMOOTH",
"507 304 OFFCURVE",
"466 258 OFFCURVE",
"454 231 CURVE SMOOTH",
"450 222 OFFCURVE",
"448 213 OFFCURVE",
"448 206 CURVE SMOOTH",
"448 189 OFFCURVE",
"459 180 OFFCURVE",
"472 180 CURVE SMOOTH",
"478 180 OFFCURVE",
"484 181 OFFCURVE",
"490 186 CURVE SMOOTH",
"502 196 OFFCURVE",
"518 203 OFFCURVE",
"540 203 CURVE SMOOTH",
"573 203 OFFCURVE",
"594 180 OFFCURVE",
"594 154 CURVE SMOOTH",
"594 123 OFFCURVE",
"564 90 OFFCURVE",
"487 90 CURVE SMOOTH",
"436 90 OFFCURVE",
"385 114 OFFCURVE",
"371 157 CURVE SMOOTH",
"368 166 OFFCURVE",
"363 173 OFFCURVE",
"354 173 CURVE SMOOTH",
"343 173 OFFCURVE",
"332 165 OFFCURVE",
"323 152 CURVE SMOOTH",
"287 99 OFFCURVE",
"231 54 OFFCURVE",
"197 54 CURVE SMOOTH",
"166 54 OFFCURVE",
"153 76 OFFCURVE",
"155 110 CURVE SMOOTH",
"159 175 OFFCURVE",
"191 254 OFFCURVE",
"238 324 CURVE",
"279 326 OFFCURVE",
"314 327 OFFCURVE",
"343 327 CURVE SMOOTH",
"396 327 OFFCURVE",
"427 324 OFFCURVE",
"436 324 CURVE SMOOTH",
"469 324 OFFCURVE",
"507 379 OFFCURVE",
"507 397 CURVE SMOOTH",
"507 404 OFFCURVE",
"500 409 OFFCURVE",
"495 409 CURVE SMOOTH",
"441 408 OFFCURVE",
"370 406 OFFCURVE",
"301 403 CURVE",
"356 460 OFFCURVE",
"418 499 OFFCURVE",
"475 499 CURVE SMOOTH",
"495 499 OFFCURVE",
"515 493 OFFCURVE",
"527 486 CURVE SMOOTH",
"541 478 OFFCURVE",
"545 466 OFFCURVE",
"555 466 CURVE SMOOTH",
"589 466 OFFCURVE",
"631 509 OFFCURVE",
"631 545 CURVE SMOOTH",
"631 571 OFFCURVE",
"612 595 OFFCURVE",
"557 595 CURVE SMOOTH",
"452 595 OFFCURVE",
"316 525 OFFCURVE",
"211 400 CURVE",
"141 397 OFFCURVE",
"87 394 OFFCURVE",
"80 392 CURVE",
"40 377 OFFCURVE",
"25 321 OFFCURVE",
"25 310 CURVE SMOOTH",
"25 307 OFFCURVE",
"26 303 OFFCURVE",
"33 303 CURVE SMOOTH",
"47 303 OFFCURVE",
"93 310 OFFCURVE",
"150 317 CURVE",
"91 223 OFFCURVE",
"54 123 OFFCURVE",
"54 34 CURVE SMOOTH",
"54 -19 OFFCURVE",
"79 -50 OFFCURVE",
"132 -50 CURVE SMOOTH"
);
},
{
closed = 1;
nodes = (
"461 587 OFFCURVE",
"513 708 OFFCURVE",
"513 755 CURVE SMOOTH",
"513 786 OFFCURVE",
"490 819 OFFCURVE",
"467 819 CURVE SMOOTH",
"446 819 OFFCURVE",
"403 792 OFFCURVE",
"403 758 CURVE SMOOTH",
"403 741 OFFCURVE",
"412 651 OFFCURVE",
"419 603 CURVE SMOOTH",
"420 594 OFFCURVE",
"425 587 OFFCURVE",
"432 587 CURVE SMOOTH"
);
}
);
width = 690;
}
);
leftKerningGroup = tlU;
rightKerningGroup = tlU;
unicode = 0C09;
},
{
color = 6;
glyphname = tlUU;
lastChange = "2016-01-01 05:46:52 +0000";
layers = (
{
layerId = "59118767-2CA9-48AA-9373-694D24C960D8";
name = Regular;
paths = (
{
closed = 1;
nodes = (
"178 -50 OFFCURVE",
"246 -20 OFFCURVE",
"308 45 CURVE",
"338 6 OFFCURVE",
"384 -13 OFFCURVE",
"434 -13 CURVE SMOOTH",
"549 -13 OFFCURVE",
"670 80 OFFCURVE",
"670 191 CURVE SMOOTH",
"670 265 OFFCURVE",
"625 304 OFFCURVE",
"570 304 CURVE SMOOTH",
"507 304 OFFCURVE",
"466 258 OFFCURVE",
"454 231 CURVE SMOOTH",
"450 222 OFFCURVE",
"448 213 OFFCURVE",
"448 206 CURVE SMOOTH",
"448 189 OFFCURVE",
"459 180 OFFCURVE",
"472 180 CURVE SMOOTH",
"478 180 OFFCURVE",
"484 181 OFFCURVE",
"490 186 CURVE SMOOTH",
"502 196 OFFCURVE",
"518 203 OFFCURVE",
"540 203 CURVE SMOOTH",
"573 203 OFFCURVE",
"594 180 OFFCURVE",
"594 154 CURVE SMOOTH",
"594 123 OFFCURVE",
"564 90 OFFCURVE",
"487 90 CURVE SMOOTH",
"436 90 OFFCURVE",
"381 113 OFFCURVE",
"371 157 CURVE SMOOTH",
"369 166 OFFCURVE",
"363 173 OFFCURVE",
"354 173 CURVE SMOOTH",
"343 173 OFFCURVE",
"332 165 OFFCURVE",
"323 152 CURVE SMOOTH",
"287 99 OFFCURVE",
"231 54 OFFCURVE",
"197 54 CURVE SMOOTH",
"166 54 OFFCURVE",
"153 76 OFFCURVE",
"155 110 CURVE SMOOTH",
"159 174 OFFCURVE",
"190 252 OFFCURVE",
"236 322 CURVE",
"287 322 OFFCURVE",
"701 352 OFFCURVE",
"742 354 CURVE",
"722 317 OFFCURVE",
"712 280 OFFCURVE",
"712 247 CURVE SMOOTH",
"712 189 OFFCURVE",
"746 146 OFFCURVE",
"823 146 CURVE SMOOTH",
"918 146 OFFCURVE",
"1024 243 OFFCURVE",
"1024 335 CURVE SMOOTH",
"1024 416 OFFCURVE",
"966 435 OFFCURVE",
"885 435 CURVE SMOOTH",
"866 435 OFFCURVE",
"847 434 OFFCURVE",
"827 433 CURVE",
"847 485 OFFCURVE",
"856 533 OFFCURVE",
"856 572 CURVE SMOOTH",
"856 638 OFFCURVE",
"831 680 OFFCURVE",
"796 680 CURVE SMOOTH",
"760 680 OFFCURVE",
"721 630 OFFCURVE",
"721 597 CURVE SMOOTH",
"721 583 OFFCURVE",
"728 579 OFFCURVE",
"734 573 CURVE SMOOTH",
"766 543 OFFCURVE",
"777 509 OFFCURVE",
"777 477 CURVE SMOOTH",
"777 461 OFFCURVE",
"774 445 OFFCURVE",
"769 430 CURVE",
"650 426 OFFCURVE",
"458 417 OFFCURVE",
"306 409 CURVE",
"360 462 OFFCURVE",
"420 499 OFFCURVE",
"475 499 CURVE SMOOTH",
"495 499 OFFCURVE",
"515 493 OFFCURVE",
"527 486 CURVE SMOOTH",
"541 478 OFFCURVE",
"545 466 OFFCURVE",
"555 466 CURVE SMOOTH",
"589 466 OFFCURVE",
"631 509 OFFCURVE",
"631 545 CURVE SMOOTH",
"631 571 OFFCURVE",
"612 595 OFFCURVE",
"557 595 CURVE SMOOTH",
"453 595 OFFCURVE",
"318 526 OFFCURVE",
"214 403 CURVE",
"139 399 OFFCURVE",
"87 396 OFFCURVE",
"80 393 CURVE",
"40 378 OFFCURVE",
"25 322 OFFCURVE",
"25 311 CURVE SMOOTH",
"25 309 OFFCURVE",
"26 304 OFFCURVE",
"33 304 CURVE SMOOTH",
"45 304 OFFCURVE",
"87 309 OFFCURVE",
"149 315 CURVE",
"90 222 OFFCURVE",
"54 122 OFFCURVE",
"54 34 CURVE SMOOTH",
"54 -19 OFFCURVE",
"79 -50 OFFCURVE",
"132 -50 CURVE SMOOTH"
);
},
{
closed = 1;
nodes = (
"374 560 OFFCURVE",
"395 601 OFFCURVE",
"416 683 CURVE SMOOTH",
"421 705 OFFCURVE",
"425 726 OFFCURVE",
"425 751 CURVE SMOOTH",
"425 773 OFFCURVE",
"409 808 OFFCURVE",
"382 808 CURVE SMOOTH",
"364 808 OFFCURVE",
"325 780 OFFCURVE",
"325 743 CURVE SMOOTH",
"325 733 OFFCURVE",
"329 701 OFFCURVE",
"333 665 CURVE SMOOTH",
"342 584 OFFCURVE",
"342 560 OFFCURVE",
"355 560 CURVE SMOOTH"
);
},
{
closed = 1;
nodes = (
"828 234 OFFCURVE",
"786 256 OFFCURVE",
"786 301 CURVE SMOOTH",
"786 316 OFFCURVE",
"789 336 OFFCURVE",
"798 355 CURVE",
"804 355 OFFCURVE",
"810 356 OFFCURVE",
"816 356 CURVE SMOOTH",
"880 356 OFFCURVE",
"932 340 OFFCURVE",
"932 293 CURVE SMOOTH",
"932 254 OFFCURVE",
"898 234 OFFCURVE",
"864 234 CURVE SMOOTH"
);
},
{
closed = 1;
nodes = (
"517 601 OFFCURVE",
"540 646 OFFCURVE",
"554 676 CURVE SMOOTH",
"567 703 OFFCURVE",
"577 727 OFFCURVE",
"577 751 CURVE SMOOTH",
"577 780 OFFCURVE",
"554 809 OFFCURVE",
"531 809 CURVE SMOOTH",
"511 809 OFFCURVE",
"469 785 OFFCURVE",
"469 755 CURVE SMOOTH",
"469 746 OFFCURVE",
"472 717 OFFCURVE",
"475 686 CURVE SMOOTH",
"480 640 OFFCURVE",
"481 601 OFFCURVE",
"497 601 CURVE SMOOTH"
);
}
);
width = 1024;
}
);
leftKerningGroup = tlU;
leftMetricsKey = tlU;
rightKerningGroup = y145tlUU;
rightMetricsKey = tlUU;
unicode = 0C0A;
},
{
color = 6;
glyphname = tlvR;
lastChange = "2016-01-01 05:46:51 +0000";
layers = (
{
anchors = (
{
name = bottom;
position = "{356, 0}";
}
);
layerId = "59118767-2CA9-48AA-9373-694D24C960D8";
name = Regular;
paths = (
{
closed = 1;
nodes = (
"194 -50 OFFCURVE",
"260 -19 OFFCURVE",
"321 47 CURVE",
"353 1 OFFCURVE",
"408 -12 OFFCURVE",
"451 -12 CURVE SMOOTH",
"506 -12 OFFCURVE",
"556 10 OFFCURVE",
"596 48 CURVE",
"627 3 OFFCURVE",
"684 -12 OFFCURVE",
"727 -12 CURVE SMOOTH",
"782 -12 OFFCURVE",
"833 10 OFFCURVE",
"872 49 CURVE",
"903 3 OFFCURVE",
"961 -12 OFFCURVE",
"1004 -12 CURVE SMOOTH",
"1136 -12 OFFCURVE",
"1240 115 OFFCURVE",
"1240 287 CURVE SMOOTH",
"1240 397 OFFCURVE",
"1192 523 OFFCURVE",
"1135 523 CURVE SMOOTH",
"1099 523 OFFCURVE",
"1060 471 OFFCURVE",
"1060 438 CURVE SMOOTH",
"1060 424 OFFCURVE",
"1067 420 OFFCURVE",
"1073 414 CURVE SMOOTH",
"1136 348 OFFCURVE",
"1167 279 OFFCURVE",
"1167 226 CURVE SMOOTH",
"1167 139 OFFCURVE",
"1107 90 OFFCURVE",
"1042 90 CURVE SMOOTH",
"1004 90 OFFCURVE",
"959 110 OFFCURVE",
"940 154 CURVE",
"955 194 OFFCURVE",
"963 239 OFFCURVE",
"963 287 CURVE SMOOTH",
"963 397 OFFCURVE",
"915 523 OFFCURVE",
"858 523 CURVE SMOOTH",
"822 523 OFFCURVE",
"783 471 OFFCURVE",
"783 438 CURVE SMOOTH",
"783 424 OFFCURVE",
"790 420 OFFCURVE",
"796 414 CURVE SMOOTH",
"859 348 OFFCURVE",
"890 279 OFFCURVE",
"890 226 CURVE SMOOTH",
"890 139 OFFCURVE",
"830 90 OFFCURVE",
"765 90 CURVE SMOOTH",
"727 90 OFFCURVE",
"683 110 OFFCURVE",
"664 153 CURVE",
"679 193 OFFCURVE",
"687 238 OFFCURVE",
"687 287 CURVE SMOOTH",
"687 397 OFFCURVE",
"639 523 OFFCURVE",
"582 523 CURVE SMOOTH",
"546 523 OFFCURVE",
"507 471 OFFCURVE",
"507 438 CURVE SMOOTH",
"507 424 OFFCURVE",
"514 420 OFFCURVE",
"520 414 CURVE SMOOTH",
"583 348 OFFCURVE",
"614 279 OFFCURVE",
"614 226 CURVE SMOOTH",
"614 139 OFFCURVE",
"554 90 OFFCURVE",
"489 90 CURVE SMOOTH",
"446 90 OFFCURVE",
"406 113 OFFCURVE",
"383 157 CURVE SMOOTH",
"377 168 OFFCURVE",
"371 173 OFFCURVE",
"362 173 CURVE SMOOTH",
"350 173 OFFCURVE",
"344 167 OFFCURVE",
"325 143 CURVE SMOOTH",
"302 112 OFFCURVE",
"257 54 OFFCURVE",
"211 54 CURVE SMOOTH",
"186 54 OFFCURVE",
"175 70 OFFCURVE",
"175 100 CURVE SMOOTH",
"175 202 OFFCURVE",
"307 290 OFFCURVE",
"307 420 CURVE SMOOTH",
"307 474 OFFCURVE",
"284 523 OFFCURVE",
"217 523 CURVE SMOOTH",
"109 523 OFFCURVE",
"40 405 OFFCURVE",
"40 315 CURVE SMOOTH",
"40 258 OFFCURVE",
"67 212 OFFCURVE",
"127 212 CURVE SMOOTH",
"138 212 OFFCURVE",
"149 213 OFFCURVE",
"159 217 CURVE",
"119 157 OFFCURVE",
"70 93 OFFCURVE",
"70 29 CURVE SMOOTH",
"70 -18 OFFCURVE",
"97 -50 OFFCURVE",
"146 -50 CURVE SMOOTH"
);
},
{
closed = 1;
nodes = (
"132 287 OFFCURVE",
"111 325 OFFCURVE",
"111 363 CURVE SMOOTH",
"111 399 OFFCURVE",
"131 435 OFFCURVE",
"168 435 CURVE SMOOTH",
"193 435 OFFCURVE",
"217 412 OFFCURVE",
"217 361 CURVE SMOOTH",
"217 336 OFFCURVE",
"211 313 OFFCURVE",
"202 292 CURVE",
"193 288 OFFCURVE",
"184 287 OFFCURVE",
"176 287 CURVE SMOOTH"
);
}
);
width = 1272;
}
);
leftKerningGroup = tlO;
leftMetricsKey = tlO;
rightKerningGroup = tlLA;
rightMetricsKey = tlLA;
unicode = 0C0B;
},
{
color = 6;
glyphname = tlvRR;
lastChange = "2016-01-01 05:46:51 +0000";
layers = (
{
anchors = (
{
name = bottom;
position = "{356, 0}";
}
);
layerId = "59118767-2CA9-48AA-9373-694D24C960D8";
name = Regular;
paths = (
{
closed = 1;
nodes = (
"194 -50 OFFCURVE",
"260 -19 OFFCURVE",
"321 47 CURVE",
"353 1 OFFCURVE",
"408 -12 OFFCURVE",
"451 -12 CURVE SMOOTH",
"506 -12 OFFCURVE",
"557 10 OFFCURVE",
"596 49 CURVE",
"627 3 OFFCURVE",
"685 -12 OFFCURVE",
"728 -12 CURVE SMOOTH",
"783 -12 OFFCURVE",
"833 10 OFFCURVE",
"873 48 CURVE",
"904 0 OFFCURVE",
"962 -12 OFFCURVE",
"1003 -12 CURVE SMOOTH",
"1146 -12 OFFCURVE",
"1245 135 OFFCURVE",
"1245 280 CURVE SMOOTH",
"1245 344 OFFCURVE",
"1226 401 OFFCURVE",
"1191 439 CURVE",
"1210 440 OFFCURVE",
"1232 440 OFFCURVE",
"1255 440 CURVE SMOOTH",
"1300 440 OFFCURVE",
"1354 438 OFFCURVE",
"1419 433 CURVE",
"1392 409 OFFCURVE",
"1371 360 OFFCURVE",
"1371 314 CURVE SMOOTH",
"1371 254 OFFCURVE",
"1407 222 OFFCURVE",
"1456 222 CURVE SMOOTH",
"1536 222 OFFCURVE",
"1612 307 OFFCURVE",
"1612 411 CURVE SMOOTH",
"1612 496 OFFCURVE",
"1561 510 OFFCURVE",
"1518 517 CURVE SMOOTH",
"1461 526 OFFCURVE",
"1349 530 OFFCURVE",
"1258 530 CURVE SMOOTH",
"1179 530 OFFCURVE",
"1094 527 OFFCURVE",
"1077 523 CURVE SMOOTH",
"1046 516 OFFCURVE",
"1017 458 OFFCURVE",
"1017 439 CURVE SMOOTH",
"1017 436 OFFCURVE",
"1018 430 OFFCURVE",
"1029 428 CURVE SMOOTH",
"1065 421 OFFCURVE",
"1097 396 OFFCURVE",
"1121 364 CURVE SMOOTH",
"1150 324 OFFCURVE",
"1168 272 OFFCURVE",
"1168 226 CURVE SMOOTH",
"1168 139 OFFCURVE",
"1109 90 OFFCURVE",
"1041 90 CURVE SMOOTH",
"1005 90 OFFCURVE",
"967 105 OFFCURVE",
"941 155 CURVE",
"956 194 OFFCURVE",
"964 239 OFFCURVE",
"964 287 CURVE SMOOTH",
"964 397 OFFCURVE",
"916 523 OFFCURVE",
"859 523 CURVE SMOOTH",
"823 523 OFFCURVE",
"784 471 OFFCURVE",
"784 438 CURVE SMOOTH",
"784 424 OFFCURVE",
"791 420 OFFCURVE",
"797 414 CURVE SMOOTH",
"860 348 OFFCURVE",
"891 279 OFFCURVE",
"891 226 CURVE SMOOTH",
"891 139 OFFCURVE",
"831 90 OFFCURVE",
"766 90 CURVE SMOOTH",
"728 90 OFFCURVE",
"683 110 OFFCURVE",
"664 154 CURVE",
"679 194 OFFCURVE",
"687 239 OFFCURVE",
"687 287 CURVE SMOOTH",
"687 397 OFFCURVE",
"639 523 OFFCURVE",
"582 523 CURVE SMOOTH",
"546 523 OFFCURVE",
"507 471 OFFCURVE",
"507 438 CURVE SMOOTH",
"507 424 OFFCURVE",
"514 420 OFFCURVE",
"520 414 CURVE SMOOTH",
"583 348 OFFCURVE",
"614 279 OFFCURVE",
"614 226 CURVE SMOOTH",
"614 139 OFFCURVE",
"554 90 OFFCURVE",
"489 90 CURVE SMOOTH",
"446 90 OFFCURVE",
"406 113 OFFCURVE",
"383 157 CURVE SMOOTH",
"377 168 OFFCURVE",
"371 173 OFFCURVE",
"362 173 CURVE SMOOTH",
"350 173 OFFCURVE",
"344 167 OFFCURVE",
"325 143 CURVE SMOOTH",
"302 112 OFFCURVE",
"257 54 OFFCURVE",
"211 54 CURVE SMOOTH",
"186 54 OFFCURVE",
"175 70 OFFCURVE",
"175 100 CURVE SMOOTH",
"175 202 OFFCURVE",
"307 290 OFFCURVE",
"307 420 CURVE SMOOTH",
"307 474 OFFCURVE",
"284 523 OFFCURVE",
"217 523 CURVE SMOOTH",
"109 523 OFFCURVE",
"40 405 OFFCURVE",
"40 315 CURVE SMOOTH",
"40 258 OFFCURVE",
"67 212 OFFCURVE",
"127 212 CURVE SMOOTH",
"138 212 OFFCURVE",
"149 213 OFFCURVE",
"159 217 CURVE",
"119 157 OFFCURVE",
"70 93 OFFCURVE",
"70 29 CURVE SMOOTH",
"70 -18 OFFCURVE",
"97 -50 OFFCURVE",
"146 -50 CURVE SMOOTH"
);
},
{
closed = 1;
nodes = (
"132 287 OFFCURVE",
"111 325 OFFCURVE",
"111 363 CURVE SMOOTH",
"111 399 OFFCURVE",
"131 435 OFFCURVE",
"168 435 CURVE SMOOTH",
"193 435 OFFCURVE",
"217 412 OFFCURVE",
"217 361 CURVE SMOOTH",
"217 336 OFFCURVE",
"211 313 OFFCURVE",
"202 292 CURVE",
"193 288 OFFCURVE",
"184 287 OFFCURVE",
"176 287 CURVE SMOOTH"
);
},
{
closed = 1;
nodes = (
"1455 318 OFFCURVE",
"1441 337 OFFCURVE",
"1441 358 CURVE SMOOTH",
"1441 386 OFFCURVE",
"1464 417 OFFCURVE",
"1501 417 CURVE SMOOTH",
"1531 417 OFFCURVE",
"1545 396 OFFCURVE",
"1545 373 CURVE SMOOTH",
"1545 347 OFFCURVE",
"1526 318 OFFCURVE",
"1487 318 CURVE SMOOTH"
);
}
);
width = 1617;
}
);
leftKerningGroup = tlO;
leftMetricsKey = tlO;
rightKerningGroup = y220tlvRR;
unicode = 0C60;
},
{
color = 6;
glyphname = tlvL;
lastChange = "2016-01-01 05:46:49 +0000";
layers = (
{
layerId = "59118767-2CA9-48AA-9373-694D24C960D8";
name = Regular;
paths = (
{
closed = 1;
nodes = (
"543 -53 OFFCURVE",
"781 109 OFFCURVE",
"781 366 CURVE SMOOTH",
"781 498 OFFCURVE",
"730 613 OFFCURVE",
"653 613 CURVE SMOOTH",
"616 613 OFFCURVE",
"580 551 OFFCURVE",
"580 529 CURVE SMOOTH",
"580 516 OFFCURVE",
"586 511 OFFCURVE",
"597 506 CURVE SMOOTH",
"654 479 OFFCURVE",
"691 408 OFFCURVE",
"691 308 CURVE SMOOTH",
"691 145 OFFCURVE",
"533 37 OFFCURVE",
"328 37 CURVE SMOOTH",
"254 37 OFFCURVE",
"216 51 OFFCURVE",
"216 85 CURVE SMOOTH",
"216 119 OFFCURVE",
"255 141 OFFCURVE",
"319 159 CURVE SMOOTH",
"441 194 OFFCURVE",
"566 256 OFFCURVE",
"566 392 CURVE SMOOTH",
"566 451 OFFCURVE",
"533 501 OFFCURVE",
"466 501 CURVE SMOOTH",
"417 501 OFFCURVE",
"354 472 OFFCURVE",
"308 414 CURVE",
"280 450 OFFCURVE",
"242 466 OFFCURVE",
"204 466 CURVE SMOOTH",
"108 466 OFFCURVE",
"25 365 OFFCURVE",
"25 326 CURVE SMOOTH",
"25 308 OFFCURVE",
"43 297 OFFCURVE",
"57 297 CURVE SMOOTH",
"65 297 OFFCURVE",
"71 300 OFFCURVE",
"74 304 CURVE SMOOTH",
"105 346 OFFCURVE",
"119 368 OFFCURVE",
"163 368 CURVE SMOOTH",
"224 368 OFFCURVE",
"229 325 OFFCURVE",
"237 301 CURVE SMOOTH",
"242 287 OFFCURVE",
"250 282 OFFCURVE",
"262 282 CURVE SMOOTH",
"274 282 OFFCURVE",
"281 287 OFFCURVE",
"292 300 CURVE SMOOTH",
"320 334 OFFCURVE",
"354 398 OFFCURVE",
"413 398 CURVE SMOOTH",
"447 398 OFFCURVE",
"474 376 OFFCURVE",
"474 339 CURVE SMOOTH",
"474 279 OFFCURVE",
"406 256 OFFCURVE",
"330 231 CURVE SMOOTH",
"225 197 OFFCURVE",
"114 163 OFFCURVE",
"114 61 CURVE SMOOTH",
"114 -17 OFFCURVE",
"179 -53 OFFCURVE",
"298 -53 CURVE SMOOTH"
);
}
);
width = 801;
}
);
leftKerningGroup = tlI;
leftMetricsKey = tlI;
rightKerningGroup = wall;
unicode = 0C0C;
},
{
color = 6;
glyphname = tlE;
lastChange = "2016-01-01 05:46:51 +0000";
layers = (
{
layerId = "59118767-2CA9-48AA-9373-694D24C960D8";
name = Regular;
paths = (
{
closed = 1;
nodes = (
"164 -50 OFFCURVE",
"228 -9 OFFCURVE",
"271 43 CURVE",
"297 6 OFFCURVE",
"341 -12 OFFCURVE",
"386 -12 CURVE SMOOTH",
"484 -12 OFFCURVE",
"600 75 OFFCURVE",
"600 247 CURVE SMOOTH",
"600 337 OFFCURVE",
"563 429 OFFCURVE",
"499 501 CURVE SMOOTH",
"451 555 OFFCURVE",
"364 613 OFFCURVE",
"312 613 CURVE SMOOTH",
"253 613 OFFCURVE",
"232 540 OFFCURVE",
"232 527 CURVE SMOOTH",
"232 518 OFFCURVE",
"236 511 OFFCURVE",
"245 509 CURVE SMOOTH",
"313 493 OFFCURVE",
"384 453 OFFCURVE",
"439 400 CURVE SMOOTH",
"494 347 OFFCURVE",
"532 280 OFFCURVE",
"532 211 CURVE SMOOTH",
"532 131 OFFCURVE",
"486 89 OFFCURVE",
"428 89 CURVE SMOOTH",
"384 89 OFFCURVE",
"339 118 OFFCURVE",
"320 177 CURVE",
"314 222 OFFCURVE",
"283 253 OFFCURVE",
"234 253 CURVE SMOOTH",
"108 253 OFFCURVE",
"15 135 OFFCURVE",
"15 38 CURVE SMOOTH",
"15 -24 OFFCURVE",
"56 -50 OFFCURVE",
"106 -50 CURVE SMOOTH"
);
},
{
closed = 1;
nodes = (
"121 46 OFFCURVE",
"100 66 OFFCURVE",
"100 88 CURVE SMOOTH",
"100 135 OFFCURVE",
"146 158 OFFCURVE",
"188 158 CURVE SMOOTH",
"213 158 OFFCURVE",
"239 149 OFFCURVE",
"256 132 CURVE",
"246 85 OFFCURVE",
"203 46 OFFCURVE",
"155 46 CURVE SMOOTH"
);
}
);
width = 620;
}
);
leftKerningGroup = tlPA;
leftMetricsKey = tlPA;
rightKerningGroup = tlJHA;
rightMetricsKey = tlJHA;
unicode = 0C0E;
},
{
color = 6;
glyphname = tlEE;
lastChange = "2016-01-01 05:46:51 +0000";
layers = (
{
layerId = "59118767-2CA9-48AA-9373-694D24C960D8";
name = Regular;
paths = (
{
closed = 1;
nodes = (
"164 -50 OFFCURVE",
"228 -9 OFFCURVE",
"271 43 CURVE",
"297 6 OFFCURVE",
"341 -12 OFFCURVE",
"386 -12 CURVE SMOOTH",
"484 -12 OFFCURVE",
"600 75 OFFCURVE",
"600 247 CURVE SMOOTH",
"600 337 OFFCURVE",
"563 429 OFFCURVE",
"499 501 CURVE SMOOTH",
"451 555 OFFCURVE",
"364 613 OFFCURVE",
"312 613 CURVE SMOOTH",
"253 613 OFFCURVE",
"232 540 OFFCURVE",
"232 527 CURVE SMOOTH",
"232 518 OFFCURVE",
"236 511 OFFCURVE",
"245 509 CURVE SMOOTH",
"305 495 OFFCURVE",
"367 462 OFFCURVE",
"419 418 CURVE SMOOTH",
"485 363 OFFCURVE",
"532 288 OFFCURVE",
"532 211 CURVE SMOOTH",
"532 131 OFFCURVE",
"486 89 OFFCURVE",
"428 89 CURVE SMOOTH",
"384 89 OFFCURVE",
"339 118 OFFCURVE",
"320 177 CURVE",
"314 222 OFFCURVE",
"283 253 OFFCURVE",
"234 253 CURVE SMOOTH",
"108 253 OFFCURVE",
"15 135 OFFCURVE",
"15 38 CURVE SMOOTH",
"15 -24 OFFCURVE",
"56 -50 OFFCURVE",
"106 -50 CURVE SMOOTH"
);
},
{
closed = 1;
nodes = (
"121 46 OFFCURVE",
"100 66 OFFCURVE",
"100 88 CURVE SMOOTH",
"100 135 OFFCURVE",
"146 158 OFFCURVE",
"188 158 CURVE SMOOTH",
"213 158 OFFCURVE",
"239 149 OFFCURVE",
"256 132 CURVE",
"246 85 OFFCURVE",
"203 46 OFFCURVE",
"155 46 CURVE SMOOTH"
);
},
{
closed = 1;
nodes = (
"166 392 OFFCURVE",
"175 397 OFFCURVE",
"184 405 CURVE",
"193 414 OFFCURVE",
"198 419 OFFCURVE",
"198 427 CURVE SMOOTH",
"198 432 OFFCURVE",
"195 439 OFFCURVE",
"189 448 CURVE SMOOTH",
"160 492 OFFCURVE",
"139 545 OFFCURVE",
"139 594 CURVE SMOOTH",
"139 665 OFFCURVE",
"183 717 OFFCURVE",
"265 717 CURVE SMOOTH",
"310 717 OFFCURVE",
"330 695 OFFCURVE",
"344 695 CURVE SMOOTH",
"355 695 OFFCURVE",
"369 706 OFFCURVE",
"381 720 CURVE SMOOTH",
"392 733 OFFCURVE",
"399 749 OFFCURVE",
"399 765 CURVE SMOOTH",
"399 806 OFFCURVE",
"346 828 OFFCURVE",
"299 828 CURVE SMOOTH",
"166 828 OFFCURVE",
"69 718 OFFCURVE",
"69 586 CURVE SMOOTH",
"69 524 OFFCURVE",
"97 445 OFFCURVE",
"135 404 CURVE SMOOTH",
"142 396 OFFCURVE",
"150 392 OFFCURVE",
"158 392 CURVE SMOOTH"
);
}
);
width = 620;
}
);
leftKerningGroup = tlEE;
leftMetricsKey = tlPA;
rightKerningGroup = tlJHA;
unicode = 0C0F;
},
{
color = 6;
glyphname = tlAI;
lastChange = "2016-01-01 05:46:51 +0000";
layers = (
{
layerId = "59118767-2CA9-48AA-9373-694D24C960D8";
name = Regular;
paths = (
{
closed = 1;
nodes = (
"162 -50 OFFCURVE",
"223 -12 OFFCURVE",
"266 37 CURVE",
"310 2 OFFCURVE",
"359 -13 OFFCURVE",
"408 -13 CURVE SMOOTH",
"556 -13 OFFCURVE",
"693 131 OFFCURVE",
"693 322 CURVE SMOOTH",
"693 430 OFFCURVE",
"651 522 OFFCURVE",
"557 522 CURVE SMOOTH",
"506 522 OFFCURVE",
"445 494 OFFCURVE",
"393 438 CURVE",
"361 468 OFFCURVE",
"319 486 OFFCURVE",
"280 486 CURVE SMOOTH",
"221 486 OFFCURVE",
"150 465 OFFCURVE",
"107 421 CURVE SMOOTH",
"92 406 OFFCURVE",
"70 375 OFFCURVE",
"70 352 CURVE SMOOTH",
"70 336 OFFCURVE",
"83 323 OFFCURVE",
"99 323 CURVE SMOOTH",
"107 323 OFFCURVE",
"117 327 OFFCURVE",
"125 340 CURVE SMOOTH",
"146 372 OFFCURVE",
"176 392 OFFCURVE",
"223 392 CURVE SMOOTH",
"297 392 OFFCURVE",
"306 330 OFFCURVE",
"335 330 CURVE SMOOTH",
"346 330 OFFCURVE",
"359 340 OFFCURVE",
"380 363 CURVE SMOOTH",
"417 405 OFFCURVE",
"458 424 OFFCURVE",
"497 424 CURVE SMOOTH",
"581 424 OFFCURVE",
"612 322 OFFCURVE",
"612 258 CURVE SMOOTH",
"612 157 OFFCURVE",
"545 86 OFFCURVE",
"449 86 CURVE SMOOTH",
"404 86 OFFCURVE",
"353 106 OFFCURVE",
"321 151 CURVE",
"321 160 LINE SMOOTH",
"321 214 OFFCURVE",
"289 253 OFFCURVE",
"234 253 CURVE SMOOTH",
"108 253 OFFCURVE",
"15 135 OFFCURVE",
"15 38 CURVE SMOOTH",
"15 -24 OFFCURVE",
"56 -50 OFFCURVE",
"106 -50 CURVE SMOOTH"
);
},
{
closed = 1;
nodes = (
"121 46 OFFCURVE",
"100 66 OFFCURVE",
"100 88 CURVE SMOOTH",
"100 135 OFFCURVE",
"146 158 OFFCURVE",
"188 158 CURVE SMOOTH",
"213 158 OFFCURVE",
"239 149 OFFCURVE",
"256 132 CURVE",
"246 85 OFFCURVE",
"203 46 OFFCURVE",
"155 46 CURVE SMOOTH"
);
}
);
width = 723;
}
);
leftKerningGroup = tlAI;
rightKerningGroup = tlRA;
rightMetricsKey = tlRA;
unicode = 0C10;
},
{
color = 6;
glyphname = tlO;
lastChange = "2016-01-01 05:46:51 +0000";
layers = (
{
layerId = "59118767-2CA9-48AA-9373-694D24C960D8";
name = Regular;
paths = (
{
closed = 1;
nodes = (
"193 -50 OFFCURVE",
"257 -21 OFFCURVE",
"317 43 CURVE",
"333 4 OFFCURVE",
"370 -14 OFFCURVE",
"417 -14 CURVE SMOOTH",
"533 -14 OFFCURVE",
"650 97 OFFCURVE",
"650 232 CURVE SMOOTH",
"650 281 OFFCURVE",
"635 312 OFFCURVE",
"607 312 CURVE SMOOTH",
"564 312 OFFCURVE",
"529 235 OFFCURVE",
"529 215 CURVE SMOOTH",
"529 196 OFFCURVE",
"563 188 OFFCURVE",
"563 148 CURVE SMOOTH",
"563 108 OFFCURVE",
"519 83 OFFCURVE",
"476 83 CURVE SMOOTH",
"432 83 OFFCURVE",
"394 104 OFFCURVE",
"380 154 CURVE",
"378 164 OFFCURVE",
"375 173 OFFCURVE",
"362 173 CURVE SMOOTH",
"350 173 OFFCURVE",
"344 167 OFFCURVE",
"325 143 CURVE SMOOTH",
"302 112 OFFCURVE",
"257 54 OFFCURVE",
"211 54 CURVE SMOOTH",
"186 54 OFFCURVE",
"175 70 OFFCURVE",
"175 100 CURVE SMOOTH",
"175 202 OFFCURVE",
"307 290 OFFCURVE",
"307 420 CURVE SMOOTH",
"307 474 OFFCURVE",
"284 523 OFFCURVE",
"217 523 CURVE SMOOTH",
"109 523 OFFCURVE",
"40 405 OFFCURVE",
"40 315 CURVE SMOOTH",
"40 258 OFFCURVE",
"67 212 OFFCURVE",
"127 212 CURVE SMOOTH",
"138 212 OFFCURVE",
"149 213 OFFCURVE",
"159 217 CURVE",
"119 157 OFFCURVE",
"70 93 OFFCURVE",
"70 29 CURVE SMOOTH",
"70 -18 OFFCURVE",
"97 -50 OFFCURVE",
"146 -50 CURVE SMOOTH"
);
},
{
closed = 1;
nodes = (
"132 287 OFFCURVE",
"111 325 OFFCURVE",
"111 363 CURVE SMOOTH",
"111 399 OFFCURVE",
"131 435 OFFCURVE",
"168 435 CURVE SMOOTH",
"193 435 OFFCURVE",
"217 412 OFFCURVE",
"217 361 CURVE SMOOTH",
"217 336 OFFCURVE",
"211 313 OFFCURVE",
"202 292 CURVE",
"193 288 OFFCURVE",
"184 287 OFFCURVE",
"176 287 CURVE SMOOTH"
);
}
);
width = 660;
}
);
leftKerningGroup = tlO;
rightKerningGroup = tlO;
unicode = 0C12;
},
{
color = 6;
glyphname = tlOO;
lastChange = "2016-01-01 05:46:51 +0000";
layers = (
{
layerId = "59118767-2CA9-48AA-9373-694D24C960D8";
name = Regular;
paths = (
{
closed = 1;
nodes = (
"193 -50 OFFCURVE",
"257 -21 OFFCURVE",
"317 43 CURVE",
"333 4 OFFCURVE",
"370 -14 OFFCURVE",
"417 -14 CURVE SMOOTH",
"533 -14 OFFCURVE",
"650 97 OFFCURVE",
"650 232 CURVE SMOOTH",
"650 281 OFFCURVE",
"635 312 OFFCURVE",
"607 312 CURVE SMOOTH",
"564 312 OFFCURVE",
"529 235 OFFCURVE",
"529 215 CURVE SMOOTH",
"529 196 OFFCURVE",
"563 188 OFFCURVE",
"563 148 CURVE SMOOTH",
"563 108 OFFCURVE",
"519 83 OFFCURVE",
"476 83 CURVE SMOOTH",
"432 83 OFFCURVE",
"395 111 OFFCURVE",
"381 152 CURVE",
"378 162 OFFCURVE",
"376 173 OFFCURVE",
"362 173 CURVE SMOOTH",
"350 173 OFFCURVE",
"344 167 OFFCURVE",
"325 143 CURVE SMOOTH",
"302 112 OFFCURVE",
"257 54 OFFCURVE",
"211 54 CURVE SMOOTH",
"186 54 OFFCURVE",
"175 70 OFFCURVE",
"175 100 CURVE SMOOTH",
"175 202 OFFCURVE",
"307 290 OFFCURVE",
"307 420 CURVE SMOOTH",
"307 474 OFFCURVE",
"284 523 OFFCURVE",
"217 523 CURVE SMOOTH",
"109 523 OFFCURVE",
"40 405 OFFCURVE",
"40 315 CURVE SMOOTH",
"40 258 OFFCURVE",
"67 212 OFFCURVE",
"127 212 CURVE SMOOTH",
"138 212 OFFCURVE",
"149 213 OFFCURVE",
"159 217 CURVE",
"119 157 OFFCURVE",
"70 93 OFFCURVE",
"70 29 CURVE SMOOTH",
"70 -18 OFFCURVE",
"97 -50 OFFCURVE",
"146 -50 CURVE SMOOTH"
);
},
{
closed = 1;
nodes = (
"132 287 OFFCURVE",
"111 325 OFFCURVE",
"111 363 CURVE SMOOTH",
"111 399 OFFCURVE",
"131 435 OFFCURVE",
"168 435 CURVE SMOOTH",
"193 435 OFFCURVE",
"217 412 OFFCURVE",
"217 361 CURVE SMOOTH",
"217 336 OFFCURVE",
"211 313 OFFCURVE",
"202 292 CURVE",
"193 288 OFFCURVE",
"184 287 OFFCURVE",
"176 287 CURVE SMOOTH"
);
},
{
closed = 1;
nodes = (
"262 540 OFFCURVE",
"288 652 OFFCURVE",
"293 712 CURVE SMOOTH",
"296 745 OFFCURVE",
"274 782 OFFCURVE",
"250 782 CURVE SMOOTH",
"230 782 OFFCURVE",
"183 757 OFFCURVE",
"183 721 CURVE SMOOTH",
"183 706 OFFCURVE",
"192 605 OFFCURVE",
"199 556 CURVE SMOOTH",
"200 547 OFFCURVE",
"207 540 OFFCURVE",
"217 540 CURVE SMOOTH"
);
}
);
width = 660;
}
);
leftKerningGroup = tlOO;
leftMetricsKey = tlO;
rightKerningGroup = tlO;
rightMetricsKey = tlO;
unicode = 0C13;
},
{
color = 6;
glyphname = tlAU;
lastChange = "2016-01-01 05:46:51 +0000";
layers = (
{
layerId = "59118767-2CA9-48AA-9373-694D24C960D8";
name = Regular;
paths = (
{
closed = 1;
nodes = (
"193 -50 OFFCURVE",
"257 -21 OFFCURVE",
"317 43 CURVE",
"333 4 OFFCURVE",
"370 -14 OFFCURVE",
"417 -14 CURVE SMOOTH",
"533 -14 OFFCURVE",
"650 97 OFFCURVE",
"650 232 CURVE SMOOTH",
"650 281 OFFCURVE",
"635 312 OFFCURVE",
"607 312 CURVE SMOOTH",
"564 312 OFFCURVE",
"529 235 OFFCURVE",
"529 215 CURVE SMOOTH",
"529 196 OFFCURVE",
"563 188 OFFCURVE",
"563 148 CURVE SMOOTH",
"563 108 OFFCURVE",
"519 83 OFFCURVE",
"476 83 CURVE SMOOTH",
"432 83 OFFCURVE",
"395 104 OFFCURVE",
"380 154 CURVE SMOOTH",
"377 164 OFFCURVE",
"375 173 OFFCURVE",
"362 173 CURVE SMOOTH",
"350 173 OFFCURVE",
"344 167 OFFCURVE",
"325 143 CURVE SMOOTH",
"302 112 OFFCURVE",
"257 54 OFFCURVE",
"211 54 CURVE SMOOTH",
"186 54 OFFCURVE",
"175 70 OFFCURVE",
"175 100 CURVE SMOOTH",
"175 191 OFFCURVE",
"281 271 OFFCURVE",
"303 380 CURVE",
"382 414 OFFCURVE",
"467 497 OFFCURVE",
"467 578 CURVE SMOOTH",
"467 584 OFFCURVE",
"466 590 OFFCURVE",
"465 597 CURVE",
"533 599 OFFCURVE",
"735 597 OFFCURVE",
"778 596 CURVE",
"753 572 OFFCURVE",
"734 525 OFFCURVE",
"734 480 CURVE SMOOTH",
"734 419 OFFCURVE",
"762 386 OFFCURVE",
"817 386 CURVE SMOOTH",
"897 386 OFFCURVE",
"971 470 OFFCURVE",
"971 572 CURVE SMOOTH",
"971 664 OFFCURVE",
"918 678 OFFCURVE",
"874 683 CURVE SMOOTH",
"840 687 OFFCURVE",
"782 688 OFFCURVE",
"680 688 CURVE SMOOTH",
"530 688 OFFCURVE",
"329 690 OFFCURVE",
"234 672 CURVE SMOOTH",
"207 667 OFFCURVE",
"177 606 OFFCURVE",
"177 588 CURVE SMOOTH",
"177 585 OFFCURVE",
"179 578 OFFCURVE",
"190 578 CURVE SMOOTH",
"212 578 OFFCURVE",
"256 591 OFFCURVE",
"323 591 CURVE SMOOTH",
"353 591 OFFCURVE",
"381 579 OFFCURVE",
"381 536 CURVE SMOOTH",
"381 499 OFFCURVE",
"356 472 OFFCURVE",
"314 472 CURVE SMOOTH",
"309 472 OFFCURVE",
"304 472 OFFCURVE",
"298 473 CURVE",
"286 502 OFFCURVE",
"261 523 OFFCURVE",
"217 523 CURVE SMOOTH",
"109 523 OFFCURVE",
"40 405 OFFCURVE",
"40 315 CURVE SMOOTH",
"40 258 OFFCURVE",
"67 212 OFFCURVE",
"127 212 CURVE SMOOTH",
"138 212 OFFCURVE",
"149 213 OFFCURVE",
"159 217 CURVE",
"119 157 OFFCURVE",
"70 93 OFFCURVE",
"70 29 CURVE SMOOTH",
"70 -18 OFFCURVE",
"97 -50 OFFCURVE",
"146 -50 CURVE SMOOTH"
);
},
{
closed = 1;
nodes = (
"132 287 OFFCURVE",
"111 325 OFFCURVE",
"111 363 CURVE SMOOTH",
"111 399 OFFCURVE",
"131 435 OFFCURVE",
"168 435 CURVE SMOOTH",
"193 435 OFFCURVE",
"217 412 OFFCURVE",
"217 361 CURVE SMOOTH",
"217 336 OFFCURVE",
"211 313 OFFCURVE",
"202 292 CURVE",
"193 288 OFFCURVE",
"184 287 OFFCURVE",
"176 287 CURVE SMOOTH"
);
},
{
closed = 1;
nodes = (
"816 483 OFFCURVE",
"802 502 OFFCURVE",
"802 523 CURVE SMOOTH",
"802 551 OFFCURVE",
"825 582 OFFCURVE",
"864 582 CURVE SMOOTH",
"892 582 OFFCURVE",
"906 561 OFFCURVE",
"906 538 CURVE SMOOTH",
"906 511 OFFCURVE",
"887 483 OFFCURVE",
"848 483 CURVE SMOOTH"
);
}
);
width = 921;
}
);
leftKerningGroup = tlOO;
leftMetricsKey = tlO;
rightKerningGroup = y365;
unicode = 0C14;
},
{
color = 9;
glyphname = tlmAA;
lastChange = "2016-01-01 05:46:51 +0000";
layers = (
{
layerId = "59118767-2CA9-48AA-9373-694D24C960D8";
name = Regular;
paths = (
{
closed = 1;
nodes = (
"610 206 OFFCURVE",
"684 290 OFFCURVE",
"684 392 CURVE SMOOTH",
"684 484 OFFCURVE",
"631 498 OFFCURVE",
"587 503 CURVE SMOOTH",
"552 506 OFFCURVE",
"498 507 OFFCURVE",
"438 507 CURVE SMOOTH",
"306 507 OFFCURVE",
"140 501 OFFCURVE",
"57 492 CURVE SMOOTH",
"29 489 OFFCURVE",
"0 426 OFFCURVE",
"0 408 CURVE SMOOTH",
"0 405 OFFCURVE",
"2 397 OFFCURVE",
"13 398 CURVE SMOOTH",
"113 406 OFFCURVE",
"293 417 OFFCURVE",
"437 417 CURVE SMOOTH",
"455 417 OFFCURVE",
"473 417 OFFCURVE",
"491 416 CURVE",
"466 392 OFFCURVE",
"447 345 OFFCURVE",
"447 300 CURVE SMOOTH",
"447 239 OFFCURVE",
"483 206 OFFCURVE",
"531 206 CURVE SMOOTH"
);
},
{
closed = 1;
nodes = (
"529 303 OFFCURVE",
"515 322 OFFCURVE",
"515 343 CURVE SMOOTH",
"515 371 OFFCURVE",
"538 402 OFFCURVE",
"577 402 CURVE SMOOTH",
"605 402 OFFCURVE",
"619 381 OFFCURVE",
"619 358 CURVE SMOOTH",
"619 331 OFFCURVE",
"600 303 OFFCURVE",
"561 303 CURVE SMOOTH"
);
}
);
width = 684;
}
);
unicode = 0C3E;
},
{
color = 9;
glyphname = tlmI;
lastChange = "2016-01-01 05:46:52 +0000";
layers = (
{
layerId = "59118767-2CA9-48AA-9373-694D24C960D8";
name = Regular;
paths = (
{
closed = 1;
nodes = (
"211 422 OFFCURVE",
"254 430 OFFCURVE",
"297 471 CURVE SMOOTH",
"343 515 OFFCURVE",
"372 579 OFFCURVE",
"372 639 CURVE SMOOTH",
"372 720 OFFCURVE",
"319 794 OFFCURVE",
"214 794 CURVE SMOOTH",
"105 794 OFFCURVE",
"0 713 OFFCURVE",
"0 597 CURVE SMOOTH",
"0 514 OFFCURVE",
"53 483 OFFCURVE",
"112 483 CURVE SMOOTH",
"152 483 OFFCURVE",
"191 498 OFFCURVE",
"221 524 CURVE SMOOTH",
"258 556 OFFCURVE",
"282 605 OFFCURVE",
"284 664 CURVE",
"290 659 OFFCURVE",
"294 649 OFFCURVE",
"294 630 CURVE SMOOTH",
"294 590 OFFCURVE",
"276 545 OFFCURVE",
"205 464 CURVE SMOOTH",
"191 449 OFFCURVE",
"185 439 OFFCURVE",
"185 433 CURVE SMOOTH",
"185 425 OFFCURVE",
"195 422 OFFCURVE",
"201 422 CURVE SMOOTH"
);
},
{
closed = 1;
nodes = (
"105 557 OFFCURVE",
"76 576 OFFCURVE",
"76 619 CURVE SMOOTH",
"76 663 OFFCURVE",
"108 712 OFFCURVE",
"167 712 CURVE SMOOTH",
"209 712 OFFCURVE",
"235 688 OFFCURVE",
"235 649 CURVE SMOOTH",
"235 593 OFFCURVE",
"183 557 OFFCURVE",
"138 557 CURVE SMOOTH"
);
}
);
width = 372;
}
);
unicode = 0C3F;
},
{
color = 9;
glyphname = tlmII;
lastChange = "2016-01-01 05:46:51 +0000";
layers = (
{
layerId = "59118767-2CA9-48AA-9373-694D24C960D8";
name = Regular;
paths = (
{
closed = 1;
nodes = (
"208 324 OFFCURVE",
"311 404 OFFCURVE",
"311 531 CURVE SMOOTH",
"311 591 OFFCURVE",
"282 635 OFFCURVE",
"223 655 CURVE SMOOTH",
"160 677 OFFCURVE",
"103 684 OFFCURVE",
"103 749 CURVE SMOOTH",
"103 785 OFFCURVE",
"131 822 OFFCURVE",
"181 822 CURVE SMOOTH",
"233 822 OFFCURVE",
"264 785 OFFCURVE",
"284 785 CURVE SMOOTH",
"304 785 OFFCURVE",
"336 823 OFFCURVE",
"336 856 CURVE SMOOTH",
"336 904 OFFCURVE",
"272 926 OFFCURVE",
"225 926 CURVE SMOOTH",
"118 926 OFFCURVE",
"30 818 OFFCURVE",
"30 720 CURVE SMOOTH",
"30 684 OFFCURVE",
"45 650 OFFCURVE",
"70 622 CURVE SMOOTH",
"80 610 OFFCURVE",
"92 601 OFFCURVE",
"104 594 CURVE",
"55 568 OFFCURVE",
"0 506 OFFCURVE",
"0 435 CURVE SMOOTH",
"0 362 OFFCURVE",
"55 324 OFFCURVE",
"118 324 CURVE SMOOTH"
);
},
{
closed = 1;
nodes = (
"117 414 OFFCURVE",
"91 431 OFFCURVE",
"91 471 CURVE SMOOTH",
"91 505 OFFCURVE",
"109 554 OFFCURVE",
"155 575 CURVE",
"179 572 OFFCURVE",
"198 568 OFFCURVE",
"212 560 CURVE",
"236 549 OFFCURVE",
"247 531 OFFCURVE",
"247 504 CURVE SMOOTH",
"247 446 OFFCURVE",
"193 414 OFFCURVE",
"149 414 CURVE SMOOTH"
);
}
);
width = 336;
}
);
unicode = 0C40;
},
{
color = 9;
glyphname = tlmU;
lastChange = "2016-01-01 05:46:49 +0000";
layers = (
{
layerId = "59118767-2CA9-48AA-9373-694D24C960D8";
name = Regular;
paths = (
{
closed = 1;
nodes = (
"280 -12 OFFCURVE",
"384 115 OFFCURVE",
"384 287 CURVE SMOOTH",
"384 397 OFFCURVE",
"336 523 OFFCURVE",
"279 523 CURVE SMOOTH",
"243 523 OFFCURVE",
"204 471 OFFCURVE",
"204 438 CURVE SMOOTH",
"204 429 OFFCURVE",
"210 421 OFFCURVE",
"223 407 CURVE SMOOTH",
"282 343 OFFCURVE",
"311 277 OFFCURVE",
"311 226 CURVE SMOOTH",
"311 139 OFFCURVE",
"251 90 OFFCURVE",
"186 90 CURVE SMOOTH",
"147 90 OFFCURVE",
"101 111 OFFCURVE",
"83 157 CURVE SMOOTH",
"79 167 OFFCURVE",
"73 171 OFFCURVE",
"65 171 CURVE SMOOTH",
"39 171 OFFCURVE",
"0 123 OFFCURVE",
"0 89 CURVE SMOOTH",
"0 85 OFFCURVE",
"1 81 OFFCURVE",
"2 78 CURVE SMOOTH",
"25 9 OFFCURVE",
"97 -12 OFFCURVE",
"148 -12 CURVE SMOOTH"
);
}
);
width = 384;
}
);
unicode = 0C41;
},
{
color = 9;
glyphname = tlmUU;
lastChange = "2016-01-01 05:46:51 +0000";
layers = (
{
layerId = "59118767-2CA9-48AA-9373-694D24C960D8";
name = Regular;
paths = (
{
closed = 1;
nodes = (
"297 -12 OFFCURVE",
"378 132 OFFCURVE",
"378 232 CURVE SMOOTH",
"378 301 OFFCURVE",
"353 381 OFFCURVE",
"297 428 CURVE",
"341 431 OFFCURVE",
"406 432 OFFCURVE",
"468 432 CURVE SMOOTH",
"499 432 OFFCURVE",
"529 432 OFFCURVE",
"555 431 CURVE",
"528 406 OFFCURVE",
"509 356 OFFCURVE",
"511 310 CURVE SMOOTH",
"513 250 OFFCURVE",
"542 221 OFFCURVE",
"599 221 CURVE SMOOTH",
"677 221 OFFCURVE",
"748 306 OFFCURVE",
"748 407 CURVE SMOOTH",
"748 477 OFFCURVE",
"721 510 OFFCURVE",
"651 518 CURVE SMOOTH",
"618 521 OFFCURVE",
"562 523 OFFCURVE",
"498 523 CURVE SMOOTH",
"380 523 OFFCURVE",
"237 517 OFFCURVE",
"181 507 CURVE SMOOTH",
"154 502 OFFCURVE",
"124 446 OFFCURVE",
"124 428 CURVE SMOOTH",
"124 417 OFFCURVE",
"130 414 OFFCURVE",
"149 408 CURVE SMOOTH",
"238 380 OFFCURVE",
"306 281 OFFCURVE",
"306 204 CURVE SMOOTH",
"306 141 OFFCURVE",
"269 90 OFFCURVE",
"186 90 CURVE SMOOTH",
"147 90 OFFCURVE",
"101 111 OFFCURVE",
"83 157 CURVE SMOOTH",
"79 167 OFFCURVE",
"72 172 OFFCURVE",
"64 172 CURVE SMOOTH",
"38 172 OFFCURVE",
"0 121 OFFCURVE",
"0 89 CURVE SMOOTH",
"0 85 OFFCURVE",
"1 81 OFFCURVE",
"2 78 CURVE SMOOTH",
"26 5 OFFCURVE",
"97 -12 OFFCURVE",
"148 -12 CURVE SMOOTH"
);
},
{
closed = 1;
nodes = (
"595 317 OFFCURVE",
"580 335 OFFCURVE",
"579 356 CURVE SMOOTH",
"578 384 OFFCURVE",
"600 417 OFFCURVE",
"637 417 CURVE SMOOTH",
"667 417 OFFCURVE",
"683 398 OFFCURVE",
"683 375 CURVE SMOOTH",
"683 350 OFFCURVE",
"666 319 OFFCURVE",
"627 318 CURVE SMOOTH"
);
}
);
width = 749;
}
);
unicode = 0C42;
},
{
color = 7;
glyphname = tlmvR;
lastChange = "2016-01-01 05:46:52 +0000";
layers = (
{
anchors = (
{
name = bottom;
position = "{-200, -438}";
}
);
guideLines = (
{
position = "{376, -448}";
}
);
layerId = "59118767-2CA9-48AA-9373-694D24C960D8";
name = Regular;
paths = (
{
closed = 1;
nodes = (
"50 -446 OFFCURVE",
"239 -288 OFFCURVE",
"239 58 CURVE SMOOTH",
"239 322 OFFCURVE",
"134 613 OFFCURVE",
"44 613 CURVE SMOOTH",
"27 613 OFFCURVE",
"7 601 OFFCURVE",
"-8 572 CURVE SMOOTH",
"-13 562 OFFCURVE",
"-16 554 OFFCURVE",
"-16 544 CURVE SMOOTH",
"-16 533 OFFCURVE",
"-12 520 OFFCURVE",
"1 504 CURVE SMOOTH",
"92 385 OFFCURVE",
"154 223 OFFCURVE",
"154 -10 CURVE SMOOTH",
"154 -31 OFFCURVE",
"152 -53 OFFCURVE",
"150 -74 CURVE",
"144 -73 OFFCURVE",
"139 -73 OFFCURVE",
"133 -73 CURVE SMOOTH",
"-57 -73 OFFCURVE",
"-180 -219 OFFCURVE",
"-180 -329 CURVE SMOOTH",
"-180 -388 OFFCURVE",
"-147 -446 OFFCURVE",
"-74 -446 CURVE SMOOTH"
);
},
{
closed = 1;
nodes = (
"-65 -354 OFFCURVE",
"-86 -334 OFFCURVE",
"-86 -297 CURVE SMOOTH",
"-86 -219 OFFCURVE",
"-7 -163 OFFCURVE",
"79 -163 CURVE SMOOTH",
"96 -163 OFFCURVE",
"113 -165 OFFCURVE",
"130 -169 CURVE",
"97 -281 OFFCURVE",
"21 -354 OFFCURVE",
"-34 -354 CURVE SMOOTH"
);
}
);
width = 279;
}
);
leftMetricsKey = tlmvR;
unicode = 0C43;
},
{
color = 8;
glyphname = tlmvR.following;
lastChange = "2016-01-01 05:46:51 +0000";
layers = (
{
anchors = (
{
name = bottom;
position = "{-3, -438}";
}
);
guideLines = (
{
position = "{453, -448}";
}
);
layerId = "59118767-2CA9-48AA-9373-694D24C960D8";
name = Regular;
paths = (
{
closed = 1;
nodes = (
"277 -446 OFFCURVE",
"466 -288 OFFCURVE",
"466 58 CURVE SMOOTH",
"466 322 OFFCURVE",
"361 613 OFFCURVE",
"271 613 CURVE SMOOTH",
"254 613 OFFCURVE",
"234 601 OFFCURVE",
"219 572 CURVE SMOOTH",
"212 558 OFFCURVE",
"208 548 OFFCURVE",
"208 539 CURVE SMOOTH",
"208 531 OFFCURVE",
"212 523 OFFCURVE",
"218 516 CURVE SMOOTH",
"317 400 OFFCURVE",
"381 231 OFFCURVE",
"381 -10 CURVE SMOOTH",
"381 -31 OFFCURVE",
"379 -53 OFFCURVE",
"377 -74 CURVE",
"371 -73 OFFCURVE",
"366 -73 OFFCURVE",
"360 -73 CURVE SMOOTH",
"170 -73 OFFCURVE",
"47 -219 OFFCURVE",
"47 -329 CURVE SMOOTH",
"47 -388 OFFCURVE",
"80 -446 OFFCURVE",
"153 -446 CURVE SMOOTH"
);
},
{
closed = 1;
nodes = (
"162 -354 OFFCURVE",
"141 -334 OFFCURVE",
"141 -297 CURVE SMOOTH",
"141 -219 OFFCURVE",
"220 -163 OFFCURVE",
"306 -163 CURVE SMOOTH",
"323 -163 OFFCURVE",
"340 -165 OFFCURVE",
"357 -169 CURVE",
"324 -281 OFFCURVE",
"248 -354 OFFCURVE",
"193 -354 CURVE SMOOTH"
);
}
);
width = 509;
}
);
leftKerningGroup = tlmvR;
script = telugu;
category = "";
subCategory = "";
},
{
color = 7;
glyphname = tlmvRR;
lastChange = "2016-01-01 05:46:52 +0000";
layers = (
{
anchors = (
{
name = bottom;
position = "{-200, -438}";
}
);
layerId = "59118767-2CA9-48AA-9373-694D24C960D8";
name = Regular;
paths = (
{
closed = 1;
nodes = (
"125 -447 OFFCURVE",
"239 -176 OFFCURVE",
"239 58 CURVE SMOOTH",
"239 227 OFFCURVE",
"196 407 OFFCURVE",
"141 515 CURVE",
"223 520 OFFCURVE",
"282 524 OFFCURVE",
"353 524 CURVE SMOOTH",
"384 524 OFFCURVE",
"417 523 OFFCURVE",
"454 522 CURVE",
"428 498 OFFCURVE",
"410 452 OFFCURVE",
"410 408 CURVE SMOOTH",
"410 345 OFFCURVE",
"445 312 OFFCURVE",
"494 312 CURVE SMOOTH",
"573 312 OFFCURVE",
"647 396 OFFCURVE",
"647 498 CURVE SMOOTH",
"647 590 OFFCURVE",
"594 606 OFFCURVE",
"550 609 CURVE SMOOTH",
"510 612 OFFCURVE",
"461 613 OFFCURVE",
"407 613 CURVE SMOOTH",
"300 613 OFFCURVE",
"176 608 OFFCURVE",
"75 598 CURVE SMOOTH",
"42 595 OFFCURVE",
"3 531 OFFCURVE",
"3 503 CURVE SMOOTH",
"3 487 OFFCURVE",
"22 478 OFFCURVE",
"42 445 CURVE SMOOTH",
"109 334 OFFCURVE",
"154 186 OFFCURVE",
"154 -10 CURVE SMOOTH",
"154 -32 OFFCURVE",
"152 -53 OFFCURVE",
"150 -74 CURVE",
"144 -73 OFFCURVE",
"139 -73 OFFCURVE",
"133 -73 CURVE SMOOTH",
"-20 -73 OFFCURVE",
"-180 -192 OFFCURVE",
"-180 -336 CURVE SMOOTH",
"-180 -398 OFFCURVE",
"-145 -447 OFFCURVE",
"-70 -447 CURVE SMOOTH"
);
},
{
closed = 1;
nodes = (
"-65 -354 OFFCURVE",
"-86 -334 OFFCURVE",
"-86 -297 CURVE SMOOTH",
"-86 -268 OFFCURVE",
"-74 -241 OFFCURVE",
"-53 -218 CURVE SMOOTH",
"-21 -183 OFFCURVE",
"32 -160 OFFCURVE",
"91 -160 CURVE SMOOTH",
"103 -160 OFFCURVE",
"116 -161 OFFCURVE",
"129 -163 CURVE",
"92 -274 OFFCURVE",
"22 -354 OFFCURVE",
"-34 -354 CURVE SMOOTH"
);
},
{
closed = 1;
nodes = (
"492 409 OFFCURVE",
"478 428 OFFCURVE",
"478 449 CURVE SMOOTH",
"478 477 OFFCURVE",
"501 508 OFFCURVE",
"540 508 CURVE SMOOTH",
"568 508 OFFCURVE",
"582 487 OFFCURVE",
"582 464 CURVE SMOOTH",
"582 437 OFFCURVE",
"563 409 OFFCURVE",
"524 409 CURVE SMOOTH"
);
}
);
width = 652;
}
);
leftMetricsKey = tlmvR;
rightKerningGroup = tlvRR;
rightMetricsKey = tlvRR;
unicode = 0C44;
},
{
color = 8;
glyphname = tlmvRR.following;
lastChange = "2016-01-01 05:46:51 +0000";
layers = (
{
anchors = (
{
name = bottom;
position = "{0, -438}";
}
);
layerId = "59118767-2CA9-48AA-9373-694D24C960D8";
name = Regular;
paths = (
{
closed = 1;
nodes = (
"355 -447 OFFCURVE",
"469 -176 OFFCURVE",
"469 58 CURVE SMOOTH",
"469 227 OFFCURVE",
"426 407 OFFCURVE",
"371 515 CURVE",
"453 520 OFFCURVE",
"512 524 OFFCURVE",
"583 524 CURVE SMOOTH",
"614 524 OFFCURVE",
"647 523 OFFCURVE",
"684 522 CURVE",
"658 498 OFFCURVE",
"640 452 OFFCURVE",
"640 408 CURVE SMOOTH",
"640 345 OFFCURVE",
"675 312 OFFCURVE",
"724 312 CURVE SMOOTH",
"803 312 OFFCURVE",
"877 396 OFFCURVE",
"877 498 CURVE SMOOTH",
"877 590 OFFCURVE",
"824 606 OFFCURVE",
"780 609 CURVE SMOOTH",
"740 612 OFFCURVE",
"691 613 OFFCURVE",
"637 613 CURVE SMOOTH",
"530 613 OFFCURVE",
"406 608 OFFCURVE",
"305 598 CURVE SMOOTH",
"272 595 OFFCURVE",
"233 531 OFFCURVE",
"233 503 CURVE SMOOTH",
"233 487 OFFCURVE",
"252 478 OFFCURVE",
"272 445 CURVE SMOOTH",
"339 334 OFFCURVE",
"384 186 OFFCURVE",
"384 -10 CURVE SMOOTH",
"384 -32 OFFCURVE",
"382 -53 OFFCURVE",
"380 -74 CURVE",
"374 -73 OFFCURVE",
"369 -73 OFFCURVE",
"363 -73 CURVE SMOOTH",
"210 -73 OFFCURVE",
"50 -192 OFFCURVE",
"50 -336 CURVE SMOOTH",
"50 -398 OFFCURVE",
"85 -447 OFFCURVE",
"160 -447 CURVE SMOOTH"
);
},
{
closed = 1;
nodes = (
"165 -354 OFFCURVE",
"144 -334 OFFCURVE",
"144 -297 CURVE SMOOTH",
"144 -268 OFFCURVE",
"156 -241 OFFCURVE",
"177 -218 CURVE SMOOTH",
"209 -183 OFFCURVE",
"262 -160 OFFCURVE",
"321 -160 CURVE SMOOTH",
"333 -160 OFFCURVE",
"346 -161 OFFCURVE",
"359 -163 CURVE",
"322 -274 OFFCURVE",
"252 -354 OFFCURVE",
"196 -354 CURVE SMOOTH"
);
},
{
closed = 1;
nodes = (
"722 409 OFFCURVE",
"708 428 OFFCURVE",
"708 449 CURVE SMOOTH",
"708 477 OFFCURVE",
"731 508 OFFCURVE",
"770 508 CURVE SMOOTH",
"798 508 OFFCURVE",
"812 487 OFFCURVE",
"812 464 CURVE SMOOTH",
"812 437 OFFCURVE",
"793 409 OFFCURVE",
"754 409 CURVE SMOOTH"
);
}
);
width = 882;
}
);
leftKerningGroup = tlmvR;
rightKerningGroup = tlvRR;
rightMetricsKey = tlvRR;
script = telugu;
category = "";
subCategory = "";
},
{
color = 7;
glyphname = tlmvL;
lastChange = "2016-01-01 05:46:49 +0000";
layers = (
{
anchors = (
{
name = _bottom;
position = "{-285, -30}";
},
{
name = bottom;
position = "{-285, -564}";
}
);
layerId = "59118767-2CA9-48AA-9373-694D24C960D8";
name = Regular;
paths = (
{
closed = 1;
nodes = (
"-179 -558 OFFCURVE",
"0 -436 OFFCURVE",
"0 -243 CURVE SMOOTH",
"0 -137 OFFCURVE",
"-43 -55 OFFCURVE",
"-100 -55 CURVE SMOOTH",
"-130 -55 OFFCURVE",
"-159 -105 OFFCURVE",
"-159 -122 CURVE SMOOTH",
"-159 -135 OFFCURVE",
"-151 -139 OFFCURVE",
"-143 -143 CURVE SMOOTH",
"-102 -163 OFFCURVE",
"-77 -216 OFFCURVE",
"-77 -286 CURVE SMOOTH",
"-77 -400 OFFCURVE",
"-187 -481 OFFCURVE",
"-341 -481 CURVE SMOOTH",
"-395 -481 OFFCURVE",
"-419 -471 OFFCURVE",
"-419 -451 CURVE SMOOTH",
"-419 -431 OFFCURVE",
"-395 -414 OFFCURVE",
"-346 -401 CURVE SMOOTH",
"-220 -365 OFFCURVE",
"-159 -307 OFFCURVE",
"-159 -223 CURVE SMOOTH",
"-159 -172 OFFCURVE",
"-191 -138 OFFCURVE",
"-238 -138 CURVE SMOOTH",
"-279 -138 OFFCURVE",
"-324 -162 OFFCURVE",
"-355 -199 CURVE",
"-375 -177 OFFCURVE",
"-402 -164 OFFCURVE",
"-432 -164 CURVE SMOOTH",
"-506 -164 OFFCURVE",
"-570 -241 OFFCURVE",
"-570 -272 CURVE SMOOTH",
"-570 -287 OFFCURVE",
"-557 -299 OFFCURVE",
"-541 -299 CURVE SMOOTH",
"-534 -299 OFFCURVE",
"-528 -297 OFFCURVE",
"-525 -292 CURVE SMOOTH",
"-504 -258 OFFCURVE",
"-492 -246 OFFCURVE",
"-463 -246 CURVE SMOOTH",
"-432 -246 OFFCURVE",
"-423 -264 OFFCURVE",
"-417 -280 CURVE SMOOTH",
"-410 -299 OFFCURVE",
"-406 -310 OFFCURVE",
"-387 -310 CURVE SMOOTH",
"-379 -310 OFFCURVE",
"-370 -305 OFFCURVE",
"-363 -295 CURVE SMOOTH",
"-344 -268 OFFCURVE",
"-318 -224 OFFCURVE",
"-278 -224 CURVE SMOOTH",
"-253 -224 OFFCURVE",
"-237 -239 OFFCURVE",
"-237 -263 CURVE SMOOTH",
"-237 -303 OFFCURVE",
"-285 -319 OFFCURVE",
"-341 -338 CURVE SMOOTH",
"-418 -363 OFFCURVE",
"-504 -389 OFFCURVE",
"-504 -469 CURVE SMOOTH",
"-504 -528 OFFCURVE",
"-456 -558 OFFCURVE",
"-363 -558 CURVE SMOOTH"
);
}
);
width = 0;
}
);
unicode = 0C62;
},
{
color = 9;
glyphname = tlmE;
lastChange = "2016-01-01 05:46:49 +0000";
layers = (
{
layerId = "59118767-2CA9-48AA-9373-694D24C960D8";
name = Regular;
paths = (
{
closed = 1;
nodes = (
"401 393 LINE SMOOTH",
"525 397 OFFCURVE",
"626 476 OFFCURVE",
"626 564 CURVE SMOOTH",
"626 648 OFFCURVE",
"543 651 OFFCURVE",
"511 652 CURVE SMOOTH",
"484 653 OFFCURVE",
"379 654 OFFCURVE",
"277 654 CURVE SMOOTH",
"175 654 OFFCURVE",
"76 653 OFFCURVE",
"60 651 CURVE SMOOTH",
"32 647 OFFCURVE",
"0 588 OFFCURVE",
"0 570 CURVE SMOOTH",
"0 567 OFFCURVE",
"1 560 OFFCURVE",
"12 560 CURVE SMOOTH",
"78 560 OFFCURVE",
"303 562 OFFCURVE",
"364 562 CURVE SMOOTH",
"406 562 OFFCURVE",
"449 560 OFFCURVE",
"490 557 CURVE SMOOTH",
"518 555 OFFCURVE",
"536 546 OFFCURVE",
"536 526 CURVE SMOOTH",
"536 488 OFFCURVE",
"478 486 OFFCURVE",
"442 486 CURVE SMOOTH",
"425 486 OFFCURVE",
"405 485 OFFCURVE",
"379 485 CURVE SMOOTH",
"351 485 OFFCURVE",
"321 421 OFFCURVE",
"321 403 CURVE SMOOTH",
"321 400 OFFCURVE",
"323 391 OFFCURVE",
"334 391 CURVE SMOOTH"
);
}
);
width = 626;
}
);
unicode = 0C46;
},
{
color = 9;
glyphname = tlmEE;
lastChange = "2016-01-01 05:46:49 +0000";
layers = (
{
layerId = "59118767-2CA9-48AA-9373-694D24C960D8";
name = Regular;
paths = (
{
closed = 1;
nodes = (
"401 393 LINE SMOOTH",
"525 397 OFFCURVE",
"626 476 OFFCURVE",
"626 564 CURVE SMOOTH",
"626 648 OFFCURVE",
"543 651 OFFCURVE",
"511 652 CURVE SMOOTH",
"503 652 OFFCURVE",
"488 653 OFFCURVE",
"469 653 CURVE",
"452 669 OFFCURVE",
"409 716 OFFCURVE",
"409 779 CURVE SMOOTH",
"409 831 OFFCURVE",
"439 854 OFFCURVE",
"480 854 CURVE SMOOTH",
"530 854 OFFCURVE",
"558 820 OFFCURVE",
"577 820 CURVE SMOOTH",
"596 820 OFFCURVE",
"625 855 OFFCURVE",
"625 886 CURVE SMOOTH",
"625 931 OFFCURVE",
"566 951 OFFCURVE",
"522 951 CURVE SMOOTH",
"448 951 OFFCURVE",
"347 894 OFFCURVE",
"347 753 CURVE SMOOTH",
"347 709 OFFCURVE",
"357 677 OFFCURVE",
"368 654 CURVE",
"277 654 LINE SMOOTH",
"175 654 OFFCURVE",
"76 653 OFFCURVE",
"60 651 CURVE SMOOTH",
"32 647 OFFCURVE",
"0 587 OFFCURVE",
"0 569 CURVE SMOOTH",
"0 566 OFFCURVE",
"1 559 OFFCURVE",
"12 559 CURVE SMOOTH",
"78 559 OFFCURVE",
"303 562 OFFCURVE",
"364 562 CURVE SMOOTH",
"406 562 OFFCURVE",
"449 560 OFFCURVE",
"490 557 CURVE SMOOTH",
"518 555 OFFCURVE",
"536 546 OFFCURVE",
"536 526 CURVE SMOOTH",
"536 488 OFFCURVE",
"478 486 OFFCURVE",
"442 486 CURVE SMOOTH",
"425 486 OFFCURVE",
"405 485 OFFCURVE",
"379 485 CURVE SMOOTH",
"351 485 OFFCURVE",
"321 421 OFFCURVE",
"321 403 CURVE SMOOTH",
"321 400 OFFCURVE",
"323 391 OFFCURVE",
"334 391 CURVE SMOOTH"
);
}
);
width = 626;
}
);
unicode = 0C47;
},
{
color = 9;
glyphname = tlmAI;
lastChange = "2016-01-01 05:46:51 +0000";
layers = (
{
layerId = "59118767-2CA9-48AA-9373-694D24C960D8";
name = Regular;
paths = (
{
closed = 1;
nodes = (
"541 -307 LINE SMOOTH",
"579 -307 OFFCURVE",
"597 -298 OFFCURVE",
"608 -282 CURVE SMOOTH",
"615 -272 OFFCURVE",
"626 -248 OFFCURVE",
"626 -233 CURVE SMOOTH",
"626 -222 OFFCURVE",
"619 -219 OFFCURVE",
"598 -219 CURVE SMOOTH",
"575 -219 OFFCURVE",
"397 -224 OFFCURVE",
"294 -224 CURVE SMOOTH",
"272 -224 OFFCURVE",
"254 -224 OFFCURVE",
"241 -223 CURVE",
"272 -199 OFFCURVE",
"291 -158 OFFCURVE",
"291 -122 CURVE SMOOTH",
"291 -63 OFFCURVE",
"242 -31 OFFCURVE",
"183 -31 CURVE SMOOTH",
"85 -31 OFFCURVE",
"0 -109 OFFCURVE",
"0 -196 CURVE SMOOTH",
"0 -267 OFFCURVE",
"51 -307 OFFCURVE",
"137 -307 CURVE SMOOTH"
);
},
{
closed = 1;
nodes = (
"127 -224 OFFCURVE",
"76 -207 OFFCURVE",
"76 -163 CURVE SMOOTH",
"76 -124 OFFCURVE",
"111 -101 OFFCURVE",
"148 -101 CURVE SMOOTH",
"195 -101 OFFCURVE",
"216 -135 OFFCURVE",
"216 -166 CURVE SMOOTH",
"216 -188 OFFCURVE",
"205 -211 OFFCURVE",
"184 -225 CURVE"
);
},
{
closed = 1;
nodes = (
"401 393 LINE SMOOTH",
"525 397 OFFCURVE",
"626 476 OFFCURVE",
"626 564 CURVE SMOOTH",
"626 648 OFFCURVE",
"543 651 OFFCURVE",
"511 652 CURVE SMOOTH",
"484 653 OFFCURVE",
"379 654 OFFCURVE",
"277 654 CURVE SMOOTH",
"175 654 OFFCURVE",
"76 653 OFFCURVE",
"60 651 CURVE SMOOTH",
"32 647 OFFCURVE",
"0 587 OFFCURVE",
"0 569 CURVE SMOOTH",
"0 566 OFFCURVE",
"1 559 OFFCURVE",
"12 559 CURVE SMOOTH",
"78 559 OFFCURVE",
"303 562 OFFCURVE",
"364 562 CURVE SMOOTH",
"406 562 OFFCURVE",
"449 560 OFFCURVE",
"490 557 CURVE SMOOTH",
"518 555 OFFCURVE",
"536 546 OFFCURVE",
"536 526 CURVE SMOOTH",
"536 488 OFFCURVE",
"478 486 OFFCURVE",
"442 486 CURVE SMOOTH",
"425 486 OFFCURVE",
"405 485 OFFCURVE",
"379 485 CURVE SMOOTH",
"351 485 OFFCURVE",
"321 421 OFFCURVE",
"321 403 CURVE SMOOTH",
"321 400 OFFCURVE",
"323 391 OFFCURVE",
"334 391 CURVE SMOOTH"
);
}
);
width = 626;
}
);
unicode = 0C48;
},
{
color = 9;
glyphname = tlmO;
lastChange = "2016-01-01 05:46:51 +0000";
layers = (
{
layerId = "59118767-2CA9-48AA-9373-694D24C960D8";
name = Regular;
paths = (
{
closed = 1;
nodes = (
"119 360 OFFCURVE",
"137 366 OFFCURVE",
"155 378 CURVE SMOOTH",
"174 390 OFFCURVE",
"186 405 OFFCURVE",
"186 416 CURVE SMOOTH",
"186 432 OFFCURVE",
"147 429 OFFCURVE",
"110 459 CURVE SMOOTH",
"85 480 OFFCURVE",
"72 505 OFFCURVE",
"72 528 CURVE SMOOTH",
"72 553 OFFCURVE",
"88 575 OFFCURVE",
"115 575 CURVE SMOOTH",
"144 575 OFFCURVE",
"159 548 OFFCURVE",
"172 528 CURVE SMOOTH",
"180 516 OFFCURVE",
"190 508 OFFCURVE",
"201 508 CURVE SMOOTH",
"217 508 OFFCURVE",
"242 530 OFFCURVE",
"262 547 CURVE SMOOTH",
"304 583 OFFCURVE",
"363 608 OFFCURVE",
"420 621 CURVE",
"399 587 OFFCURVE",
"389 554 OFFCURVE",
"389 524 CURVE SMOOTH",
"389 463 OFFCURVE",
"429 419 OFFCURVE",
"497 419 CURVE SMOOTH",
"589 419 OFFCURVE",
"697 512 OFFCURVE",
"697 604 CURVE SMOOTH",
"697 677 OFFCURVE",
"620 709 OFFCURVE",
"527 709 CURVE SMOOTH",
"427 709 OFFCURVE",
"315 664 OFFCURVE",
"254 609 CURVE",
"223 645 OFFCURVE",
"191 664 OFFCURVE",
"156 664 CURVE SMOOTH",
"81 664 OFFCURVE",
"0 591 OFFCURVE",
"0 503 CURVE SMOOTH",
"0 430 OFFCURVE",
"44 360 OFFCURVE",
"103 360 CURVE SMOOTH"
);
},
{
closed = 1;
nodes = (
"501 503 OFFCURVE",
"459 525 OFFCURVE",
"459 570 CURVE SMOOTH",
"459 619 OFFCURVE",
"487 629 OFFCURVE",
"520 629 CURVE SMOOTH",
"555 629 OFFCURVE",
"605 608 OFFCURVE",
"605 562 CURVE SMOOTH",
"605 523 OFFCURVE",
"571 503 OFFCURVE",
"537 503 CURVE SMOOTH"
);
}
);
width = 697;
}
);
unicode = 0C4A;
},
{
color = 9;
glyphname = tlmOO;
lastChange = "2016-01-01 05:46:52 +0000";
layers = (
{
layerId = "59118767-2CA9-48AA-9373-694D24C960D8";
name = Regular;
paths = (
{
closed = 1;
nodes = (
"119 360 OFFCURVE",
"137 366 OFFCURVE",
"155 378 CURVE SMOOTH",
"174 390 OFFCURVE",
"186 405 OFFCURVE",
"186 416 CURVE SMOOTH",
"186 432 OFFCURVE",
"147 429 OFFCURVE",
"110 459 CURVE SMOOTH",
"85 480 OFFCURVE",
"72 505 OFFCURVE",
"72 528 CURVE SMOOTH",
"72 553 OFFCURVE",
"88 575 OFFCURVE",
"115 575 CURVE SMOOTH",
"144 575 OFFCURVE",
"159 548 OFFCURVE",
"172 528 CURVE SMOOTH",
"180 516 OFFCURVE",
"190 508 OFFCURVE",
"201 508 CURVE SMOOTH",
"217 508 OFFCURVE",
"242 530 OFFCURVE",
"262 547 CURVE SMOOTH",
"304 583 OFFCURVE",
"363 608 OFFCURVE",
"420 621 CURVE",
"399 587 OFFCURVE",
"389 554 OFFCURVE",
"389 524 CURVE SMOOTH",
"389 463 OFFCURVE",
"429 419 OFFCURVE",
"497 419 CURVE SMOOTH",
"589 419 OFFCURVE",
"697 512 OFFCURVE",
"697 604 CURVE SMOOTH",
"697 670 OFFCURVE",
"633 709 OFFCURVE",
"523 709 CURVE",
"545 743 OFFCURVE",
"567 759 OFFCURVE",
"591 759 CURVE SMOOTH",
"636 759 OFFCURVE",
"646 729 OFFCURVE",
"668 729 CURVE SMOOTH",
"687 729 OFFCURVE",
"716 764 OFFCURVE",
"716 795 CURVE SMOOTH",
"716 832 OFFCURVE",
"668 850 OFFCURVE",
"629 850 CURVE SMOOTH",
"557 850 OFFCURVE",
"503 776 OFFCURVE",
"455 702 CURVE",
"377 687 OFFCURVE",
"301 651 OFFCURVE",
"254 609 CURVE",
"223 645 OFFCURVE",
"191 664 OFFCURVE",
"156 664 CURVE SMOOTH",
"81 664 OFFCURVE",
"0 591 OFFCURVE",
"0 503 CURVE SMOOTH",
"0 430 OFFCURVE",
"44 360 OFFCURVE",
"103 360 CURVE SMOOTH"
);
},
{
closed = 1;
nodes = (
"501 503 OFFCURVE",
"459 525 OFFCURVE",
"459 570 CURVE SMOOTH",
"459 619 OFFCURVE",
"487 629 OFFCURVE",
"520 629 CURVE SMOOTH",
"555 629 OFFCURVE",
"605 608 OFFCURVE",
"605 562 CURVE SMOOTH",
"605 523 OFFCURVE",
"571 503 OFFCURVE",
"537 503 CURVE SMOOTH"
);
}
);
width = 716;
}
);
unicode = 0C4B;
},
{
color = 9;
glyphname = tlmAU;
lastChange = "2016-01-01 05:46:51 +0000";
layers = (
{
layerId = "59118767-2CA9-48AA-9373-694D24C960D8";
name = Regular;
paths = (
{
closed = 1;
nodes = (
"639 369 OFFCURVE",
"708 459 OFFCURVE",
"708 563 CURVE SMOOTH",
"708 648 OFFCURVE",
"654 661 OFFCURVE",
"611 666 CURVE SMOOTH",
"578 669 OFFCURVE",
"522 671 OFFCURVE",
"458 671 CURVE SMOOTH",
"340 671 OFFCURVE",
"197 665 OFFCURVE",
"141 655 CURVE SMOOTH",
"114 650 OFFCURVE",
"84 589 OFFCURVE",
"84 571 CURVE SMOOTH",
"84 568 OFFCURVE",
"86 561 OFFCURVE",
"97 561 CURVE SMOOTH",
"108 561 OFFCURVE",
"143 567 OFFCURVE",
"178 567 CURVE SMOOTH",
"213 567 OFFCURVE",
"255 557 OFFCURVE",
"255 530 CURVE SMOOTH",
"255 492 OFFCURVE",
"205 491 OFFCURVE",
"144 489 CURVE SMOOTH",
"116 488 OFFCURVE",
"85 488 OFFCURVE",
"58 488 CURVE SMOOTH",
"30 488 OFFCURVE",
"0 422 OFFCURVE",
"0 404 CURVE SMOOTH",
"0 401 OFFCURVE",
"2 392 OFFCURVE",
"13 392 CURVE SMOOTH",
"120 395 LINE SMOOTH",
"177 396 OFFCURVE",
"251 427 OFFCURVE",
"297 474 CURVE SMOOTH",
"323 501 OFFCURVE",
"340 533 OFFCURVE",
"340 568 CURVE SMOOTH",
"340 572 OFFCURVE",
"340 576 OFFCURVE",
"339 580 CURVE",
"364 581 OFFCURVE",
"391 581 OFFCURVE",
"418 581 CURVE SMOOTH",
"449 581 OFFCURVE",
"482 580 OFFCURVE",
"515 579 CURVE",
"489 554 OFFCURVE",
"471 504 OFFCURVE",
"471 458 CURVE SMOOTH",
"471 398 OFFCURVE",
"502 369 OFFCURVE",
"559 369 CURVE SMOOTH"
);
},
{
closed = 1;
nodes = (
"555 466 OFFCURVE",
"539 483 OFFCURVE",
"539 504 CURVE SMOOTH",
"539 532 OFFCURVE",
"560 565 OFFCURVE",
"597 565 CURVE SMOOTH",
"627 565 OFFCURVE",
"643 546 OFFCURVE",
"643 523 CURVE SMOOTH",
"643 497 OFFCURVE",
"627 466 OFFCURVE",
"587 466 CURVE SMOOTH"
);
}
);
width = 709;
}
);
unicode = 0C4C;
},
{
color = 9;
glyphname = tlLengthmark;
lastChange = "2016-01-01 05:46:49 +0000";
layers = (
{
layerId = "59118767-2CA9-48AA-9373-694D24C960D8";
name = Regular;
paths = (
{
closed = 1;
nodes = (
"61 367 OFFCURVE",
"133 411 OFFCURVE",
"122 422 CURVE",
"105 436 OFFCURVE",
"62 485 OFFCURVE",
"62 548 CURVE SMOOTH",
"62 600 OFFCURVE",
"92 623 OFFCURVE",
"133 623 CURVE SMOOTH",
"183 623 OFFCURVE",
"211 589 OFFCURVE",
"230 589 CURVE SMOOTH",
"249 589 OFFCURVE",
"278 624 OFFCURVE",
"278 655 CURVE SMOOTH",
"278 700 OFFCURVE",
"219 720 OFFCURVE",
"175 720 CURVE SMOOTH",
"101 720 OFFCURVE",
"0 663 OFFCURVE",
"0 522 CURVE SMOOTH",
"0 429 OFFCURVE",
"44 387 OFFCURVE",
"52 378 CURVE"
);
}
);
width = 278;
}
);
unicode = 0C55;
},
{
color = 7;
glyphname = tlAIlengthmark;
lastChange = "2016-01-01 05:46:51 +0000";
layers = (
{
anchors = (
{
name = _bottom;
position = "{-308, 0}";
},
{
name = bottom;
position = "{-308, -375}";
}
);
layerId = "59118767-2CA9-48AA-9373-694D24C960D8";
name = Regular;
paths = (
{
closed = 1;
nodes = (
"-85 -375 LINE SMOOTH",
"-47 -375 OFFCURVE",
"-29 -366 OFFCURVE",
"-18 -350 CURVE SMOOTH",
"-11 -340 OFFCURVE",
"0 -316 OFFCURVE",
"0 -301 CURVE SMOOTH",
"0 -290 OFFCURVE",
"-7 -287 OFFCURVE",
"-28 -287 CURVE SMOOTH",
"-51 -287 OFFCURVE",
"-188 -292 OFFCURVE",
"-276 -292 CURVE SMOOTH",
"-295 -292 OFFCURVE",
"-312 -292 OFFCURVE",
"-325 -291 CURVE",
"-294 -267 OFFCURVE",
"-275 -226 OFFCURVE",
"-275 -190 CURVE SMOOTH",
"-275 -131 OFFCURVE",
"-324 -99 OFFCURVE",
"-383 -99 CURVE SMOOTH",
"-481 -99 OFFCURVE",
"-566 -177 OFFCURVE",
"-566 -264 CURVE SMOOTH",
"-566 -335 OFFCURVE",
"-515 -375 OFFCURVE",
"-429 -375 CURVE SMOOTH"
);
},
{
closed = 1;
nodes = (
"-439 -292 OFFCURVE",
"-490 -275 OFFCURVE",
"-490 -231 CURVE SMOOTH",
"-490 -192 OFFCURVE",
"-455 -169 OFFCURVE",
"-418 -169 CURVE SMOOTH",
"-371 -169 OFFCURVE",
"-350 -203 OFFCURVE",
"-350 -234 CURVE SMOOTH",
"-350 -256 OFFCURVE",
"-361 -279 OFFCURVE",
"-382 -293 CURVE"
);
}
);
width = 0;
}
);
unicode = 0C56;
},
{
color = 8;
glyphname = tlAIlengthmark.following;
lastChange = "2016-01-01 05:46:51 +0000";
layers = (
{
anchors = (
{
name = _bottom;
position = "{-308, 0}";
},
{
name = bottom;
position = "{-308, -375}";
}
);
layerId = "59118767-2CA9-48AA-9373-694D24C960D8";
name = Regular;
paths = (
{
closed = 1;
nodes = (
"-85 -375 LINE SMOOTH",
"-47 -375 OFFCURVE",
"-29 -366 OFFCURVE",
"-18 -350 CURVE SMOOTH",
"-11 -340 OFFCURVE",
"0 -316 OFFCURVE",
"0 -301 CURVE SMOOTH",
"0 -290 OFFCURVE",
"-7 -287 OFFCURVE",
"-28 -287 CURVE SMOOTH",
"-51 -287 OFFCURVE",
"-188 -292 OFFCURVE",
"-276 -292 CURVE SMOOTH",
"-295 -292 OFFCURVE",
"-312 -292 OFFCURVE",
"-325 -291 CURVE",
"-294 -267 OFFCURVE",
"-275 -226 OFFCURVE",
"-275 -190 CURVE SMOOTH",
"-275 -131 OFFCURVE",
"-324 -99 OFFCURVE",
"-383 -99 CURVE SMOOTH",
"-481 -99 OFFCURVE",
"-566 -177 OFFCURVE",
"-566 -264 CURVE SMOOTH",
"-566 -335 OFFCURVE",
"-515 -375 OFFCURVE",
"-429 -375 CURVE SMOOTH"
);
},
{
closed = 1;
nodes = (
"-439 -292 OFFCURVE",
"-490 -275 OFFCURVE",
"-490 -231 CURVE SMOOTH",
"-490 -192 OFFCURVE",
"-455 -169 OFFCURVE",
"-418 -169 CURVE SMOOTH",
"-371 -169 OFFCURVE",
"-350 -203 OFFCURVE",
"-350 -234 CURVE SMOOTH",
"-350 -256 OFFCURVE",
"-361 -279 OFFCURVE",
"-382 -293 CURVE"
);
}
);
width = 0;
}
);
script = telugu;
category = Mark;
subCategory = "Spacing ";
},
{
color = 7;
glyphname = tlAIlengthmark.01;
lastChange = "2016-01-01 05:46:52 +0000";
layers = (
{
anchors = (
{
name = _bottom;
position = "{-228, 0}";
},
{
name = bottom;
position = "{-228, -375}";
}
);
layerId = "59118767-2CA9-48AA-9373-694D24C960D8";
name = Regular;
paths = (
{
closed = 1;
nodes = (
"-85 -370 LINE SMOOTH",
"-47 -370 OFFCURVE",
"-29 -361 OFFCURVE",
"-18 -345 CURVE SMOOTH",
"-11 -335 OFFCURVE",
"0 -311 OFFCURVE",
"0 -296 CURVE SMOOTH",
"0 -285 OFFCURVE",
"-7 -282 OFFCURVE",
"-28 -282 CURVE SMOOTH",
"-51 -282 OFFCURVE",
"-113 -287 OFFCURVE",
"-176 -287 CURVE SMOOTH",
"-189 -287 OFFCURVE",
"-202 -287 OFFCURVE",
"-215 -286 CURVE",
"-184 -262 OFFCURVE",
"-165 -221 OFFCURVE",
"-165 -185 CURVE SMOOTH",
"-165 -126 OFFCURVE",
"-214 -94 OFFCURVE",
"-273 -94 CURVE SMOOTH",
"-371 -94 OFFCURVE",
"-456 -172 OFFCURVE",
"-456 -259 CURVE SMOOTH",
"-456 -330 OFFCURVE",
"-405 -370 OFFCURVE",
"-319 -370 CURVE SMOOTH"
);
},
{
closed = 1;
nodes = (
"-329 -287 OFFCURVE",
"-380 -270 OFFCURVE",
"-380 -226 CURVE SMOOTH",
"-380 -187 OFFCURVE",
"-345 -164 OFFCURVE",
"-308 -164 CURVE SMOOTH",
"-261 -164 OFFCURVE",
"-240 -198 OFFCURVE",
"-240 -229 CURVE SMOOTH",
"-240 -251 OFFCURVE",
"-251 -274 OFFCURVE",
"-272 -288 CURVE"
);
}
);
width = 0;
}
);
script = telugu;
category = Mark;
subCategory = Nonspacing;
},
{
color = 7;
glyphname = tlAIlengthmark.03;
lastChange = "2016-01-01 05:46:51 +0000";
layers = (
{
anchors = (
{
name = _bottom;
position = "{-348, 0}";
},
{
name = bottom;
position = "{-348, -375}";
}
);
layerId = "59118767-2CA9-48AA-9373-694D24C960D8";
name = Regular;
paths = (
{
closed = 1;
nodes = (
"-85 -369 LINE SMOOTH",
"-47 -369 OFFCURVE",
"-29 -360 OFFCURVE",
"-18 -344 CURVE SMOOTH",
"-11 -334 OFFCURVE",
"0 -310 OFFCURVE",
"0 -295 CURVE SMOOTH",
"0 -284 OFFCURVE",
"-7 -281 OFFCURVE",
"-28 -281 CURVE SMOOTH",
"-51 -281 OFFCURVE",
"-276 -286 OFFCURVE",
"-396 -286 CURVE SMOOTH",
"-421 -286 OFFCURVE",
"-442 -286 OFFCURVE",
"-455 -285 CURVE",
"-424 -261 OFFCURVE",
"-405 -220 OFFCURVE",
"-405 -184 CURVE SMOOTH",
"-405 -125 OFFCURVE",
"-454 -93 OFFCURVE",
"-513 -93 CURVE SMOOTH",
"-611 -93 OFFCURVE",
"-696 -171 OFFCURVE",
"-696 -258 CURVE SMOOTH",
"-696 -329 OFFCURVE",
"-645 -369 OFFCURVE",
"-559 -369 CURVE SMOOTH"
);
},
{
closed = 1;
nodes = (
"-569 -286 OFFCURVE",
"-620 -269 OFFCURVE",
"-620 -225 CURVE SMOOTH",
"-620 -186 OFFCURVE",
"-585 -163 OFFCURVE",
"-548 -163 CURVE SMOOTH",
"-501 -163 OFFCURVE",
"-480 -197 OFFCURVE",
"-480 -228 CURVE SMOOTH",
"-480 -250 OFFCURVE",
"-491 -273 OFFCURVE",
"-512 -287 CURVE"
);
}
);
width = 0;
}
);
script = telugu;
category = Mark;
subCategory = Nonspacing;
},
{
color = 6;
glyphname = tlKA;
lastChange = "2016-01-01 05:46:49 +0000";
layers = (
{
anchors = (
{
name = bottom;
position = "{250, 0}";
}
);
guideLines = (
{
position = "{613, -218}";
}
);
layerId = "59118767-2CA9-48AA-9373-694D24C960D8";
name = Regular;
paths = (
{
closed = 1;
nodes = (
"271 -11 OFFCURVE",
"349 22 OFFCURVE",
"403 67 CURVE SMOOTH",
"453 108 OFFCURVE",
"482 160 OFFCURVE",
"482 204 CURVE SMOOTH",
"482 265 OFFCURVE",
"430 296 OFFCURVE",
"366 296 CURVE SMOOTH",
"340 296 OFFCURVE",
"303 290 OFFCURVE",
"266 282 CURVE SMOOTH",
"235 275 OFFCURVE",
"217 271 OFFCURVE",
"196 271 CURVE SMOOTH",
"182 271 OFFCURVE",
"159 273 OFFCURVE",
"161 302 CURVE SMOOTH",
"165 353 OFFCURVE",
"234 399 OFFCURVE",
"298 399 CURVE SMOOTH",
"355 399 OFFCURVE",
"360 362 OFFCURVE",
"381 362 CURVE SMOOTH",
"403 362 OFFCURVE",
"453 403 OFFCURVE",
"453 441 CURVE SMOOTH",
"453 470 OFFCURVE",
"426 491 OFFCURVE",
"371 491 CURVE SMOOTH",
"307 491 OFFCURVE",
"194 452 OFFCURVE",
"118 416 CURVE",
"137 450 OFFCURVE",
"162 488 OFFCURVE",
"197 517 CURVE SMOOTH",
"269 579 OFFCURVE",
"322 558 OFFCURVE",
"338 574 CURVE SMOOTH",
"347 583 OFFCURVE",
"377 636 OFFCURVE",
"377 666 CURVE SMOOTH",
"377 680 OFFCURVE",
"371 690 OFFCURVE",
"351 690 CURVE SMOOTH",
"319 690 OFFCURVE",
"255 665 OFFCURVE",
"198 618 CURVE SMOOTH",
"148 577 OFFCURVE",
"113 529 OFFCURVE",
"89 486 CURVE SMOOTH",
"77 464 OFFCURVE",
"61 431 OFFCURVE",
"50 402 CURVE SMOOTH",
"43 383 OFFCURVE",
"40 372 OFFCURVE",
"40 356 CURVE",
"41 340 OFFCURVE",
"48 322 OFFCURVE",
"60 322 CURVE SMOOTH",
"73 322 OFFCURVE",
"101 348 OFFCURVE",
"144 377 CURVE",
"99 332 OFFCURVE",
"70 283 OFFCURVE",
"70 245 CURVE SMOOTH",
"70 206 OFFCURVE",
"102 177 OFFCURVE",
"154 177 CURVE SMOOTH",
"181 177 OFFCURVE",
"214 185 OFFCURVE",
"246 193 CURVE SMOOTH",
"275 200 OFFCURVE",
"304 207 OFFCURVE",
"328 207 CURVE SMOOTH",
"370 207 OFFCURVE",
"393 186 OFFCURVE",
"393 161 CURVE SMOOTH",
"393 125 OFFCURVE",
"346 81 OFFCURVE",
"252 81 CURVE SMOOTH",
"172 81 OFFCURVE",
"132 113 OFFCURVE",
"114 113 CURVE SMOOTH",
"96 113 OFFCURVE",
"59 84 OFFCURVE",
"59 50 CURVE SMOOTH",
"59 14 OFFCURVE",
"99 -11 OFFCURVE",
"179 -11 CURVE SMOOTH"
);
}
);
width = 501;
}
);
leftKerningGroup = tlKA;
rightKerningGroup = tlKA;
unicode = 0C15;
},
{
color = 6;
glyphname = tlKHA;
lastChange = "2016-01-01 05:46:51 +0000";
layers = (
{
anchors = (
{
name = bottom;
position = "{346, -200}";
}
);
layerId = "59118767-2CA9-48AA-9373-694D24C960D8";
name = Regular;
paths = (
{
closed = 1;
nodes = (
"217 -136 OFFCURVE",
"293 -74 OFFCURVE",
"345 9 CURVE",
"378 -5 OFFCURVE",
"411 -12 OFFCURVE",
"436 -12 CURVE SMOOTH",
"565 -12 OFFCURVE",
"667 115 OFFCURVE",
"667 287 CURVE SMOOTH",
"667 397 OFFCURVE",
"619 523 OFFCURVE",
"562 523 CURVE SMOOTH",
"526 523 OFFCURVE",
"487 471 OFFCURVE",
"487 438 CURVE SMOOTH",
"487 424 OFFCURVE",
"494 420 OFFCURVE",
"500 414 CURVE SMOOTH",
"563 348 OFFCURVE",
"594 279 OFFCURVE",
"594 226 CURVE SMOOTH",
"594 139 OFFCURVE",
"536 90 OFFCURVE",
"474 90 CURVE SMOOTH",
"436 90 OFFCURVE",
"410 95 OFFCURVE",
"390 102 CURVE",
"409 155 OFFCURVE",
"420 210 OFFCURVE",
"420 261 CURVE SMOOTH",
"420 373 OFFCURVE",
"368 463 OFFCURVE",
"257 463 CURVE SMOOTH",
"146 463 OFFCURVE",
"41 373 OFFCURVE",
"41 250 CURVE SMOOTH",
"41 177 OFFCURVE",
"78 151 OFFCURVE",
"122 151 CURVE SMOOTH",
"191 151 OFFCURVE",
"278 214 OFFCURVE",
"278 316 CURVE SMOOTH",
"278 329 OFFCURVE",
"277 342 OFFCURVE",
"273 356 CURVE",
"328 328 OFFCURVE",
"353 271 OFFCURVE",
"353 208 CURVE SMOOTH",
"353 180 OFFCURVE",
"348 151 OFFCURVE",
"339 124 CURVE",
"309 131 OFFCURVE",
"269 136 OFFCURVE",
"244 136 CURVE SMOOTH",
"134 136 OFFCURVE",
"25 46 OFFCURVE",
"25 -55 CURVE SMOOTH",
"25 -102 OFFCURVE",
"58 -136 OFFCURVE",
"129 -136 CURVE SMOOTH"
);
},
{
closed = 1;
nodes = (
"119 -37 OFFCURVE",
"106 -25 OFFCURVE",
"106 -10 CURVE SMOOTH",
"106 29 OFFCURVE",
"153 50 OFFCURVE",
"205 50 CURVE SMOOTH",
"235 50 OFFCURVE",
"267 45 OFFCURVE",
"292 37 CURVE",
"258 -7 OFFCURVE",
"210 -37 OFFCURVE",
"154 -37 CURVE SMOOTH"
);
},
{
closed = 1;
nodes = (
"374 -210 OFFCURVE",
"393 -176 OFFCURVE",
"393 -143 CURVE SMOOTH",
"393 -116 OFFCURVE",
"380 -27 OFFCURVE",
"359 -27 CURVE SMOOTH",
"338 -27 OFFCURVE",
"288 -113 OFFCURVE",
"288 -157 CURVE SMOOTH",
"288 -176 OFFCURVE",
"298 -210 OFFCURVE",
"336 -210 CURVE SMOOTH"
);
},
{
closed = 1;
nodes = (
"139 225 OFFCURVE",
"108 252 OFFCURVE",
"108 300 CURVE SMOOTH",
"109 348 OFFCURVE",
"136 373 OFFCURVE",
"163 373 CURVE SMOOTH",
"191 373 OFFCURVE",
"219 346 OFFCURVE",
"219 295 CURVE SMOOTH",
"219 247 OFFCURVE",
"194 225 OFFCURVE",
"168 225 CURVE SMOOTH"
);
}
);
width = 692;
}
);
leftKerningGroup = tlKHA;
rightKerningGroup = tlLA;
rightMetricsKey = tlLA;
unicode = 0C16;
},
{
color = 6;
glyphname = tlGA;
lastChange = "2016-01-01 05:46:49 +0000";
layers = (
{
anchors = (
{
name = bottom;
position = "{244, 0}";
}
);
layerId = "59118767-2CA9-48AA-9373-694D24C960D8";
name = Regular;
paths = (
{
closed = 1;
nodes = (
"376 -13 OFFCURVE",
"436 40 OFFCURVE",
"440 56 CURVE SMOOTH",
"448 91 OFFCURVE",
"453 130 OFFCURVE",
"453 211 CURVE SMOOTH",
"453 359 OFFCURVE",
"389 480 OFFCURVE",
"260 480 CURVE SMOOTH",
"216 480 OFFCURVE",
"169 467 OFFCURVE",
"123 442 CURVE",
"142 473 OFFCURVE",
"166 508 OFFCURVE",
"198 535 CURVE SMOOTH",
"270 597 OFFCURVE",
"323 576 OFFCURVE",
"339 592 CURVE SMOOTH",
"348 601 OFFCURVE",
"378 654 OFFCURVE",
"378 684 CURVE SMOOTH",
"378 698 OFFCURVE",
"372 708 OFFCURVE",
"352 708 CURVE SMOOTH",
"320 708 OFFCURVE",
"256 683 OFFCURVE",
"199 636 CURVE SMOOTH",
"149 595 OFFCURVE",
"114 547 OFFCURVE",
"90 504 CURVE SMOOTH",
"62 452 OFFCURVE",
"40 403 OFFCURVE",
"40 356 CURVE SMOOTH",
"40 336 OFFCURVE",
"51 326 OFFCURVE",
"58 326 CURVE SMOOTH",
"76 326 OFFCURVE",
"142 371 OFFCURVE",
"210 377 CURVE",
"127 306 OFFCURVE",
"41 150 OFFCURVE",
"41 5 CURVE SMOOTH",
"41 -7 OFFCURVE",
"46 -12 OFFCURVE",
"54 -12 CURVE SMOOTH",
"80 -12 OFFCURVE",
"147 44 OFFCURVE",
"147 88 CURVE SMOOTH",
"147 148 OFFCURVE",
"207 288 OFFCURVE",
"279 364 CURVE",
"322 341 OFFCURVE",
"360 287 OFFCURVE",
"360 188 CURVE SMOOTH",
"360 66 OFFCURVE",
"340 21 OFFCURVE",
"340 1 CURVE SMOOTH",
"340 -8 OFFCURVE",
"344 -13 OFFCURVE",
"351 -13 CURVE SMOOTH"
);
}
);
width = 488;
}
);
leftKerningGroup = tlGA;
rightKerningGroup = tlGA;
unicode = 0C17;
},
{
color = 6;
glyphname = tlGHA;
lastChange = "2016-01-01 05:46:52 +0000";
layers = (
{
anchors = (
{
name = bottom;
position = "{480, -190}";
}
);
layerId = "59118767-2CA9-48AA-9373-694D24C960D8";
name = Regular;
paths = (
{
closed = 1;
nodes = (
"163 -50 OFFCURVE",
"227 -10 OFFCURVE",
"270 41 CURVE",
"291 11 OFFCURVE",
"331 -14 OFFCURVE",
"392 -14 CURVE SMOOTH",
"452 -14 OFFCURVE",
"508 5 OFFCURVE",
"553 38 CURVE",
"587 -1 OFFCURVE",
"641 -12 OFFCURVE",
"681 -12 CURVE SMOOTH",
"813 -12 OFFCURVE",
"940 103 OFFCURVE",
"940 267 CURVE SMOOTH",
"940 377 OFFCURVE",
"887 464 OFFCURVE",
"830 464 CURVE SMOOTH",
"794 464 OFFCURVE",
"755 412 OFFCURVE",
"755 379 CURVE SMOOTH",
"755 365 OFFCURVE",
"762 359 OFFCURVE",
"768 355 CURVE SMOOTH",
"806 330 OFFCURVE",
"856 292 OFFCURVE",
"856 211 CURVE SMOOTH",
"856 117 OFFCURVE",
"790 85 OFFCURVE",
"724 85 CURVE SMOOTH",
"689 85 OFFCURVE",
"651 95 OFFCURVE",
"628 124 CURVE",
"646 158 OFFCURVE",
"657 198 OFFCURVE",
"657 240 CURVE SMOOTH",
"657 350 OFFCURVE",
"555 462 OFFCURVE",
"452 462 CURVE SMOOTH",
"415 462 OFFCURVE",
"377 413 OFFCURVE",
"377 384 CURVE SMOOTH",
"377 374 OFFCURVE",
"381 367 OFFCURVE",
"390 364 CURVE SMOOTH",
"441 347 OFFCURVE",
"489 330 OFFCURVE",
"524 301 CURVE SMOOTH",
"558 273 OFFCURVE",
"579 232 OFFCURVE",
"579 192 CURVE SMOOTH",
"579 124 OFFCURVE",
"523 83 OFFCURVE",
"452 83 CURVE SMOOTH",
"393 83 OFFCURVE",
"337 113 OFFCURVE",
"321 170 CURVE",
"317 219 OFFCURVE",
"286 253 OFFCURVE",
"234 253 CURVE SMOOTH",
"108 253 OFFCURVE",
"15 135 OFFCURVE",
"15 38 CURVE SMOOTH",
"15 -24 OFFCURVE",
"56 -50 OFFCURVE",
"106 -50 CURVE SMOOTH"
);
},
{
closed = 1;
nodes = (
"292 -192 OFFCURVE",
"311 -158 OFFCURVE",
"311 -125 CURVE SMOOTH",
"311 -98 OFFCURVE",
"298 -9 OFFCURVE",
"277 -9 CURVE SMOOTH",
"256 -9 OFFCURVE",
"206 -95 OFFCURVE",
"206 -139 CURVE SMOOTH",
"206 -158 OFFCURVE",
"216 -192 OFFCURVE",
"254 -192 CURVE SMOOTH"
);
},
{
closed = 1;
nodes = (
"121 46 OFFCURVE",
"100 66 OFFCURVE",
"100 88 CURVE SMOOTH",
"100 135 OFFCURVE",
"146 158 OFFCURVE",
"188 158 CURVE SMOOTH",
"213 158 OFFCURVE",
"239 149 OFFCURVE",
"256 132 CURVE",
"246 85 OFFCURVE",
"203 46 OFFCURVE",
"155 46 CURVE SMOOTH"
);
},
{
closed = 1;
nodes = (
"183 329 OFFCURVE",
"178 338 OFFCURVE",
"211 401 CURVE SMOOTH",
"230 438 OFFCURVE",
"258 483 OFFCURVE",
"298 517 CURVE SMOOTH",
"370 579 OFFCURVE",
"423 558 OFFCURVE",
"439 574 CURVE SMOOTH",
"448 583 OFFCURVE",
"478 636 OFFCURVE",
"478 666 CURVE SMOOTH",
"478 680 OFFCURVE",
"472 690 OFFCURVE",
"452 690 CURVE SMOOTH",
"420 690 OFFCURVE",
"356 665 OFFCURVE",
"299 618 CURVE SMOOTH",
"249 577 OFFCURVE",
"214 529 OFFCURVE",
"190 486 CURVE SMOOTH",
"170 451 OFFCURVE",
"141 385 OFFCURVE",
"141 358 CURVE SMOOTH",
"141 343 OFFCURVE",
"147 329 OFFCURVE",
"165 329 CURVE SMOOTH"
);
}
);
width = 960;
}
);
leftKerningGroup = tlPA;
leftMetricsKey = tlPA;
rightKerningGroup = tlJHA;
rightMetricsKey = tlJHA;
unicode = 0C18;
},
{
color = 6;
glyphname = tlNGA;
lastChange = "2016-01-01 05:46:51 +0000";
layers = (
{
anchors = (
{
name = bottom;
position = "{330, 0}";
}
);
layerId = "59118767-2CA9-48AA-9373-694D24C960D8";
name = Regular;
paths = (
{
closed = 1;
nodes = (
"193 -50 OFFCURVE",
"257 -21 OFFCURVE",
"317 43 CURVE",
"333 4 OFFCURVE",
"370 -14 OFFCURVE",
"417 -14 CURVE SMOOTH",
"533 -14 OFFCURVE",
"650 97 OFFCURVE",
"650 232 CURVE SMOOTH",
"650 281 OFFCURVE",
"635 312 OFFCURVE",
"607 312 CURVE SMOOTH",
"564 312 OFFCURVE",
"529 235 OFFCURVE",
"529 215 CURVE SMOOTH",
"529 196 OFFCURVE",
"563 188 OFFCURVE",
"563 148 CURVE SMOOTH",
"563 108 OFFCURVE",
"519 83 OFFCURVE",
"476 83 CURVE SMOOTH",
"432 83 OFFCURVE",
"393 111 OFFCURVE",
"381 152 CURVE SMOOTH",
"378 162 OFFCURVE",
"376 173 OFFCURVE",
"362 173 CURVE SMOOTH",
"350 173 OFFCURVE",
"344 167 OFFCURVE",
"325 143 CURVE SMOOTH",
"302 112 OFFCURVE",
"257 54 OFFCURVE",
"211 54 CURVE SMOOTH",
"186 54 OFFCURVE",
"175 70 OFFCURVE",
"175 100 CURVE SMOOTH",
"175 185 OFFCURVE",
"266 260 OFFCURVE",
"297 358 CURVE",
"349 360 OFFCURVE",
"404 362 OFFCURVE",
"439 362 CURVE SMOOTH",
"489 362 OFFCURVE",
"518 360 OFFCURVE",
"527 360 CURVE",
"562 362 OFFCURVE",
"598 415 OFFCURVE",
"598 433 CURVE SMOOTH",
"598 440 OFFCURVE",
"591 445 OFFCURVE",
"586 445 CURVE SMOOTH",
"515 445 OFFCURVE",
"402 441 OFFCURVE",
"306 437 CURVE",
"302 484 OFFCURVE",
"277 523 OFFCURVE",
"217 523 CURVE SMOOTH",
"109 523 OFFCURVE",
"40 405 OFFCURVE",
"40 315 CURVE SMOOTH",
"40 258 OFFCURVE",
"67 212 OFFCURVE",
"127 212 CURVE SMOOTH",
"138 212 OFFCURVE",
"149 213 OFFCURVE",
"159 217 CURVE",
"119 157 OFFCURVE",
"70 93 OFFCURVE",
"70 29 CURVE SMOOTH",
"70 -18 OFFCURVE",
"97 -50 OFFCURVE",
"146 -50 CURVE SMOOTH"
);
},
{
closed = 1;
nodes = (
"132 287 OFFCURVE",
"111 325 OFFCURVE",
"111 363 CURVE SMOOTH",
"111 399 OFFCURVE",
"131 435 OFFCURVE",
"168 435 CURVE SMOOTH",
"193 435 OFFCURVE",
"217 412 OFFCURVE",
"217 361 CURVE SMOOTH",
"217 336 OFFCURVE",
"211 313 OFFCURVE",
"202 292 CURVE",
"193 288 OFFCURVE",
"184 287 OFFCURVE",
"176 287 CURVE SMOOTH"
);
},
{
closed = 1;
nodes = (
"458 472 OFFCURVE",
"484 584 OFFCURVE",
"489 644 CURVE SMOOTH",
"492 677 OFFCURVE",
"470 714 OFFCURVE",
"446 714 CURVE SMOOTH",
"426 714 OFFCURVE",
"379 689 OFFCURVE",
"379 653 CURVE SMOOTH",
"379 638 OFFCURVE",
"390 537 OFFCURVE",
"395 488 CURVE SMOOTH",
"396 479 OFFCURVE",
"403 472 OFFCURVE",
"413 472 CURVE SMOOTH"
);
}
);
width = 660;
}
);
leftKerningGroup = tlO;
leftMetricsKey = tlO;
rightKerningGroup = tlO;
rightMetricsKey = tlO;
unicode = 0C19;
},
{
color = 6;
glyphname = tlCA;
lastChange = "2016-01-01 05:46:49 +0000";
layers = (
{
anchors = (
{
name = bottom;
position = "{376, 0}";
}
);
layerId = "59118767-2CA9-48AA-9373-694D24C960D8";
name = Regular;
paths = (
{
closed = 1;
nodes = (
"267 -50 OFFCURVE",
"336 -20 OFFCURVE",
"398 47 CURVE",
"419 5 OFFCURVE",
"457 -13 OFFCURVE",
"503 -13 CURVE SMOOTH",
"558 -13 OFFCURVE",
"610 12 OFFCURVE",
"651 53 CURVE SMOOTH",
"697 101 OFFCURVE",
"728 171 OFFCURVE",
"728 250 CURVE SMOOTH",
"728 317 OFFCURVE",
"706 368 OFFCURVE",
"666 403 CURVE SMOOTH",
"622 442 OFFCURVE",
"557 462 OFFCURVE",
"476 462 CURVE SMOOTH",
"407 462 OFFCURVE",
"323 447 OFFCURVE",
"252 419 CURVE",
"271 452 OFFCURVE",
"296 488 OFFCURVE",
"330 517 CURVE SMOOTH",
"402 579 OFFCURVE",
"455 558 OFFCURVE",
"471 574 CURVE SMOOTH",
"480 583 OFFCURVE",
"510 636 OFFCURVE",
"510 666 CURVE SMOOTH",
"510 680 OFFCURVE",
"504 690 OFFCURVE",
"485 690 CURVE SMOOTH",
"452 690 OFFCURVE",
"402 661 OFFCURVE",
"353 618 CURVE SMOOTH",
"313 584 OFFCURVE",
"279 545 OFFCURVE",
"252 508 CURVE",
"207 451 OFFCURVE",
"173 389 OFFCURVE",
"173 354 CURVE SMOOTH",
"173 329 OFFCURVE",
"183 310 OFFCURVE",
"194 310 CURVE SMOOTH",
"211 310 OFFCURVE",
"299 359 OFFCURVE",
"423 359 CURVE SMOOTH",
"499 359 OFFCURVE",
"552 341 OFFCURVE",
"588 314 CURVE SMOOTH",
"636 278 OFFCURVE",
"653 228 OFFCURVE",
"653 189 CURVE SMOOTH",
"653 154 OFFCURVE",
"639 125 OFFCURVE",
"617 106 CURVE SMOOTH",
"600 91 OFFCURVE",
"578 83 OFFCURVE",
"554 83 CURVE SMOOTH",
"538 83 OFFCURVE",
"521 87 OFFCURVE",
"506 96 CURVE SMOOTH",
"468 118 OFFCURVE",
"464 155 OFFCURVE",
"455 167 CURVE SMOOTH",
"452 171 OFFCURVE",
"447 173 OFFCURVE",
"442 173 CURVE SMOOTH",
"436 173 OFFCURVE",
"431 171 OFFCURVE",
"427 168 CURVE SMOOTH",
"417 161 OFFCURVE",
"395 129 OFFCURVE",
"366 100 CURVE SMOOTH",
"339 73 OFFCURVE",
"312 54 OFFCURVE",
"284 54 CURVE SMOOTH",
"254 54 OFFCURVE",
"233 76 OFFCURVE",
"233 112 CURVE SMOOTH",
"233 138 OFFCURVE",
"244 168 OFFCURVE",
"264 194 CURVE SMOOTH",
"267 198 OFFCURVE",
"275 207 OFFCURVE",
"275 216 CURVE SMOOTH",
"275 225 OFFCURVE",
"269 233 OFFCURVE",
"247 233 CURVE SMOOTH",
"95 233 OFFCURVE",
"82 232 OFFCURVE",
"65 227 CURVE SMOOTH",
"30 216 OFFCURVE",
"10 161 OFFCURVE",
"10 146 CURVE SMOOTH",
"10 144 OFFCURVE",
"10 138 OFFCURVE",
"16 138 CURVE SMOOTH",
"21 138 OFFCURVE",
"114 143 OFFCURVE",
"173 147 CURVE",
"150 108 OFFCURVE",
"142 69 OFFCURVE",
"142 37 CURVE SMOOTH",
"142 -19 OFFCURVE",
"167 -50 OFFCURVE",
"217 -50 CURVE SMOOTH"
);
}
);
width = 753;
}
);
leftKerningGroup = tlCA;
rightKerningGroup = tlDA;
rightMetricsKey = tlDA;
unicode = 0C1A;
},
{
color = 6;
glyphname = tlCHA;
lastChange = "2016-01-01 05:46:52 +0000";
layers = (
{
anchors = (
{
name = bottom;
position = "{381, -190}";
}
);
layerId = "59118767-2CA9-48AA-9373-694D24C960D8";
name = Regular;
paths = (
{
closed = 1;
nodes = (
"272 -50 OFFCURVE",
"341 -20 OFFCURVE",
"403 47 CURVE",
"424 5 OFFCURVE",
"462 -13 OFFCURVE",
"508 -13 CURVE SMOOTH",
"563 -13 OFFCURVE",
"615 12 OFFCURVE",
"656 53 CURVE SMOOTH",
"702 101 OFFCURVE",
"733 171 OFFCURVE",
"733 250 CURVE SMOOTH",
"733 317 OFFCURVE",
"711 368 OFFCURVE",
"671 403 CURVE SMOOTH",
"627 442 OFFCURVE",
"562 462 OFFCURVE",
"481 462 CURVE SMOOTH",
"412 462 OFFCURVE",
"328 447 OFFCURVE",
"257 419 CURVE",
"276 452 OFFCURVE",
"301 488 OFFCURVE",
"335 517 CURVE SMOOTH",
"407 579 OFFCURVE",
"460 558 OFFCURVE",
"476 574 CURVE SMOOTH",
"485 583 OFFCURVE",
"515 636 OFFCURVE",
"515 666 CURVE SMOOTH",
"515 680 OFFCURVE",
"509 690 OFFCURVE",
"490 690 CURVE SMOOTH",
"457 690 OFFCURVE",
"407 661 OFFCURVE",
"358 618 CURVE SMOOTH",
"318 584 OFFCURVE",
"284 545 OFFCURVE",
"257 508 CURVE",
"212 451 OFFCURVE",
"178 389 OFFCURVE",
"178 354 CURVE SMOOTH",
"178 329 OFFCURVE",
"188 310 OFFCURVE",
"199 310 CURVE SMOOTH",
"216 310 OFFCURVE",
"304 359 OFFCURVE",
"428 359 CURVE SMOOTH",
"504 359 OFFCURVE",
"557 341 OFFCURVE",
"593 314 CURVE SMOOTH",
"641 278 OFFCURVE",
"658 228 OFFCURVE",
"658 189 CURVE SMOOTH",
"658 154 OFFCURVE",
"644 125 OFFCURVE",
"622 106 CURVE SMOOTH",
"605 91 OFFCURVE",
"583 83 OFFCURVE",
"559 83 CURVE SMOOTH",
"543 83 OFFCURVE",
"526 87 OFFCURVE",
"511 96 CURVE SMOOTH",
"473 118 OFFCURVE",
"469 155 OFFCURVE",
"460 167 CURVE SMOOTH",
"457 171 OFFCURVE",
"452 173 OFFCURVE",
"447 173 CURVE SMOOTH",
"441 173 OFFCURVE",
"436 171 OFFCURVE",
"432 168 CURVE SMOOTH",
"422 161 OFFCURVE",
"400 129 OFFCURVE",
"371 100 CURVE SMOOTH",
"344 73 OFFCURVE",
"317 54 OFFCURVE",
"289 54 CURVE SMOOTH",
"259 54 OFFCURVE",
"238 76 OFFCURVE",
"238 112 CURVE SMOOTH",
"238 138 OFFCURVE",
"249 168 OFFCURVE",
"269 194 CURVE SMOOTH",
"272 198 OFFCURVE",
"280 207 OFFCURVE",
"280 216 CURVE SMOOTH",
"280 225 OFFCURVE",
"274 233 OFFCURVE",
"252 233 CURVE SMOOTH",
"100 233 OFFCURVE",
"87 232 OFFCURVE",
"70 227 CURVE SMOOTH",
"35 216 OFFCURVE",
"15 161 OFFCURVE",
"15 146 CURVE SMOOTH",
"15 144 OFFCURVE",
"15 138 OFFCURVE",
"21 138 CURVE SMOOTH",
"26 138 OFFCURVE",
"119 143 OFFCURVE",
"178 147 CURVE",
"155 108 OFFCURVE",
"147 69 OFFCURVE",
"147 37 CURVE SMOOTH",
"147 -19 OFFCURVE",
"172 -50 OFFCURVE",
"222 -50 CURVE SMOOTH"
);
},
{
closed = 1;
nodes = (
"400 -192 OFFCURVE",
"419 -158 OFFCURVE",
"419 -125 CURVE SMOOTH",
"419 -98 OFFCURVE",
"406 -9 OFFCURVE",
"385 -9 CURVE SMOOTH",
"364 -9 OFFCURVE",
"314 -95 OFFCURVE",
"314 -139 CURVE SMOOTH",
"314 -158 OFFCURVE",
"324 -192 OFFCURVE",
"362 -192 CURVE SMOOTH"
);
}
);
width = 758;
}
);
leftKerningGroup = tlCA;
leftMetricsKey = tlPA;
rightKerningGroup = tlDA;
unicode = 0C1B;
},
{
color = 6;
glyphname = tlJA;
lastChange = "2016-01-01 05:46:52 +0000";
layers = (
{
anchors = (
{
name = bottom;
position = "{330, 0}";
}
);
layerId = "59118767-2CA9-48AA-9373-694D24C960D8";
name = Regular;
paths = (
{
closed = 1;
nodes = (
"193 -50 OFFCURVE",
"257 -21 OFFCURVE",
"317 43 CURVE",
"333 4 OFFCURVE",
"370 -14 OFFCURVE",
"417 -14 CURVE SMOOTH",
"533 -14 OFFCURVE",
"650 97 OFFCURVE",
"650 232 CURVE SMOOTH",
"650 281 OFFCURVE",
"635 312 OFFCURVE",
"607 312 CURVE SMOOTH",
"564 312 OFFCURVE",
"529 235 OFFCURVE",
"529 215 CURVE SMOOTH",
"529 196 OFFCURVE",
"563 188 OFFCURVE",
"563 148 CURVE SMOOTH",
"563 108 OFFCURVE",
"519 83 OFFCURVE",
"476 83 CURVE SMOOTH",
"432 83 OFFCURVE",
"390 103 OFFCURVE",
"380 154 CURVE SMOOTH",
"378 164 OFFCURVE",
"375 173 OFFCURVE",
"362 173 CURVE SMOOTH",
"350 173 OFFCURVE",
"344 167 OFFCURVE",
"325 143 CURVE SMOOTH",
"302 112 OFFCURVE",
"257 54 OFFCURVE",
"211 54 CURVE SMOOTH",
"186 54 OFFCURVE",
"175 70 OFFCURVE",
"175 100 CURVE SMOOTH",
"175 169 OFFCURVE",
"236 232 OFFCURVE",
"275 306 CURVE",
"290 299 OFFCURVE",
"308 296 OFFCURVE",
"328 296 CURVE SMOOTH",
"444 296 OFFCURVE",
"551 417 OFFCURVE",
"551 552 CURVE SMOOTH",
"551 601 OFFCURVE",
"536 612 OFFCURVE",
"508 612 CURVE SMOOTH",
"465 612 OFFCURVE",
"430 555 OFFCURVE",
"430 535 CURVE SMOOTH",
"430 516 OFFCURVE",
"464 508 OFFCURVE",
"464 468 CURVE SMOOTH",
"464 428 OFFCURVE",
"420 383 OFFCURVE",
"377 383 CURVE SMOOTH",
"348 383 OFFCURVE",
"324 394 OFFCURVE",
"307 412 CURVE",
"307 486 OFFCURVE",
"277 523 OFFCURVE",
"217 523 CURVE SMOOTH",
"109 523 OFFCURVE",
"40 405 OFFCURVE",
"40 315 CURVE SMOOTH",
"40 258 OFFCURVE",
"67 212 OFFCURVE",
"127 212 CURVE SMOOTH",
"138 212 OFFCURVE",
"149 213 OFFCURVE",
"159 217 CURVE",
"119 157 OFFCURVE",
"70 93 OFFCURVE",
"70 29 CURVE SMOOTH",
"70 -18 OFFCURVE",
"97 -50 OFFCURVE",
"146 -50 CURVE SMOOTH"
);
},
{
closed = 1;
nodes = (
"132 287 OFFCURVE",
"111 325 OFFCURVE",
"111 363 CURVE SMOOTH",
"111 399 OFFCURVE",
"131 435 OFFCURVE",
"168 435 CURVE SMOOTH",
"193 435 OFFCURVE",
"217 412 OFFCURVE",
"217 361 CURVE SMOOTH",
"217 336 OFFCURVE",
"211 313 OFFCURVE",
"202 292 CURVE",
"193 288 OFFCURVE",
"184 287 OFFCURVE",
"176 287 CURVE SMOOTH"
);
}
);
width = 660;
}
);
leftKerningGroup = tlO;
leftMetricsKey = tlO;
rightKerningGroup = tlO;
rightMetricsKey = tlO;
unicode = 0C1C;
},
{
color = 6;
glyphname = tlJHA;
lastChange = "2016-01-01 05:46:51 +0000";
layers = (
{
anchors = (
{
name = bottom;
position = "{376, -190}";
}
);
layerId = "59118767-2CA9-48AA-9373-694D24C960D8";
name = Regular;
paths = (
{
closed = 1;
nodes = (
"260 -13 OFFCURVE",
"317 10 OFFCURVE",
"365 46 CURVE",
"399 0 OFFCURVE",
"458 -12 OFFCURVE",
"500 -12 CURVE SMOOTH",
"553 -12 OFFCURVE",
"605 7 OFFCURVE",
"649 39 CURVE",
"683 -1 OFFCURVE",
"738 -12 OFFCURVE",
"778 -12 CURVE SMOOTH",
"910 -12 OFFCURVE",
"1037 103 OFFCURVE",
"1037 267 CURVE SMOOTH",
"1037 377 OFFCURVE",
"984 464 OFFCURVE",
"927 464 CURVE SMOOTH",
"891 464 OFFCURVE",
"852 412 OFFCURVE",
"852 379 CURVE SMOOTH",
"852 365 OFFCURVE",
"859 359 OFFCURVE",
"865 355 CURVE SMOOTH",
"903 330 OFFCURVE",
"953 292 OFFCURVE",
"953 211 CURVE SMOOTH",
"953 117 OFFCURVE",
"887 85 OFFCURVE",
"821 85 CURVE SMOOTH",
"785 85 OFFCURVE",
"747 95 OFFCURVE",
"723 125 CURVE",
"746 166 OFFCURVE",
"759 214 OFFCURVE",
"759 267 CURVE SMOOTH",
"759 377 OFFCURVE",
"706 464 OFFCURVE",
"649 464 CURVE SMOOTH",
"613 464 OFFCURVE",
"574 412 OFFCURVE",
"574 379 CURVE SMOOTH",
"574 365 OFFCURVE",
"581 359 OFFCURVE",
"587 355 CURVE SMOOTH",
"625 330 OFFCURVE",
"675 292 OFFCURVE",
"675 211 CURVE SMOOTH",
"675 117 OFFCURVE",
"609 85 OFFCURVE",
"543 85 CURVE SMOOTH",
"506 85 OFFCURVE",
"466 96 OFFCURVE",
"443 129 CURVE",
"478 181 OFFCURVE",
"499 242 OFFCURVE",
"499 300 CURVE SMOOTH",
"499 416 OFFCURVE",
"415 462 OFFCURVE",
"320 462 CURVE SMOOTH",
"254 462 OFFCURVE",
"180 440 OFFCURVE",
"126 414 CURVE",
"145 448 OFFCURVE",
"171 486 OFFCURVE",
"207 517 CURVE SMOOTH",
"279 579 OFFCURVE",
"332 558 OFFCURVE",
"348 574 CURVE SMOOTH",
"357 583 OFFCURVE",
"387 636 OFFCURVE",
"387 666 CURVE SMOOTH",
"387 680 OFFCURVE",
"381 690 OFFCURVE",
"361 690 CURVE SMOOTH",
"329 690 OFFCURVE",
"265 665 OFFCURVE",
"208 618 CURVE SMOOTH",
"133 557 OFFCURVE",
"50 422 OFFCURVE",
"50 350 CURVE SMOOTH",
"50 333 OFFCURVE",
"56 310 OFFCURVE",
"70 310 CURVE SMOOTH",
"82 310 OFFCURVE",
"109 325 OFFCURVE",
"149 338 CURVE",
"88 286 OFFCURVE",
"51 207 OFFCURVE",
"51 131 CURVE SMOOTH",
"51 52 OFFCURVE",
"91 -13 OFFCURVE",
"197 -13 CURVE SMOOTH"
);
},
{
closed = 1;
nodes = (
"171 90 OFFCURVE",
"139 129 OFFCURVE",
"139 183 CURVE SMOOTH",
"139 240 OFFCURVE",
"175 304 OFFCURVE",
"240 356 CURVE",
"247 357 OFFCURVE",
"255 357 OFFCURVE",
"262 357 CURVE SMOOTH",
"345 357 OFFCURVE",
"413 326 OFFCURVE",
"413 239 CURVE SMOOTH",
"413 131 OFFCURVE",
"307 90 OFFCURVE",
"238 90 CURVE SMOOTH"
);
},
{
closed = 1;
nodes = (
"683 -192 OFFCURVE",
"702 -158 OFFCURVE",
"702 -125 CURVE SMOOTH",
"702 -98 OFFCURVE",
"689 -9 OFFCURVE",
"668 -9 CURVE SMOOTH",
"647 -9 OFFCURVE",
"597 -95 OFFCURVE",
"597 -139 CURVE SMOOTH",
"597 -158 OFFCURVE",
"607 -192 OFFCURVE",
"645 -192 CURVE SMOOTH"
);
}
);
width = 1057;
}
);
leftKerningGroup = tlRA;
leftMetricsKey = tlRA;
rightKerningGroup = tlJHA;
unicode = 0C1D;
},
{
color = 6;
glyphname = tlNYA;
lastChange = "2016-01-01 05:46:52 +0000";
layers = (
{
anchors = (
{
name = bottom;
position = "{341, 0}";
}
);
layerId = "59118767-2CA9-48AA-9373-694D24C960D8";
name = Regular;
paths = (
{
closed = 1;
nodes = (
"529 -13 OFFCURVE",
"553 -1 OFFCURVE",
"569 13 CURVE SMOOTH",
"589 31 OFFCURVE",
"598 52 OFFCURVE",
"598 78 CURVE SMOOTH",
"598 133 OFFCURVE",
"556 178 OFFCURVE",
"496 209 CURVE",
"531 258 OFFCURVE",
"555 310 OFFCURVE",
"562 358 CURVE",
"614 361 OFFCURVE",
"656 362 OFFCURVE",
"689 362 CURVE SMOOTH",
"739 362 OFFCURVE",
"768 360 OFFCURVE",
"777 360 CURVE SMOOTH",
"812 360 OFFCURVE",
"848 415 OFFCURVE",
"848 433 CURVE SMOOTH",
"848 440 OFFCURVE",
"841 445 OFFCURVE",
"836 445 CURVE SMOOTH",
"765 445 OFFCURVE",
"653 440 OFFCURVE",
"558 437 CURVE",
"543 480 OFFCURVE",
"508 501 OFFCURVE",
"466 501 CURVE SMOOTH",
"417 501 OFFCURVE",
"354 472 OFFCURVE",
"308 414 CURVE",
"281 450 OFFCURVE",
"242 466 OFFCURVE",
"204 466 CURVE SMOOTH",
"108 466 OFFCURVE",
"25 365 OFFCURVE",
"25 326 CURVE SMOOTH",
"25 308 OFFCURVE",
"43 297 OFFCURVE",
"57 297 CURVE SMOOTH",
"65 297 OFFCURVE",
"71 300 OFFCURVE",
"74 304 CURVE SMOOTH",
"105 346 OFFCURVE",
"119 368 OFFCURVE",
"163 368 CURVE SMOOTH",
"219 368 OFFCURVE",
"228 332 OFFCURVE",
"235 308 CURVE SMOOTH",
"239 294 OFFCURVE",
"245 282 OFFCURVE",
"265 282 CURVE SMOOTH",
"274 282 OFFCURVE",
"281 287 OFFCURVE",
"292 300 CURVE SMOOTH",
"320 334 OFFCURVE",
"354 398 OFFCURVE",
"413 398 CURVE SMOOTH",
"447 398 OFFCURVE",
"474 377 OFFCURVE",
"474 337 CURVE SMOOTH",
"474 309 OFFCURVE",
"460 269 OFFCURVE",
"437 232 CURVE",
"397 244 OFFCURVE",
"353 251 OFFCURVE",
"310 251 CURVE SMOOTH",
"151 251 OFFCURVE",
"45 161 OFFCURVE",
"45 79 CURVE SMOOTH",
"45 20 OFFCURVE",
"99 -11 OFFCURVE",
"172 -11 CURVE SMOOTH",
"259 -11 OFFCURVE",
"375 32 OFFCURVE",
"447 106 CURVE",
"470 79 OFFCURVE",
"491 45 OFFCURVE",
"500 -2 CURVE SMOOTH",
"501 -7 OFFCURVE",
"503 -13 OFFCURVE",
"514 -13 CURVE SMOOTH"
);
},
{
closed = 1;
nodes = (
"168 78 OFFCURVE",
"140 93 OFFCURVE",
"140 119 CURVE SMOOTH",
"140 157 OFFCURVE",
"197 188 OFFCURVE",
"267 188 CURVE SMOOTH",
"307 188 OFFCURVE",
"357 178 OFFCURVE",
"402 147 CURVE",
"350 106 OFFCURVE",
"267 78 OFFCURVE",
"210 78 CURVE SMOOTH"
);
},
{
closed = 1;
nodes = (
"717 472 OFFCURVE",
"751 584 OFFCURVE",
"751 650 CURVE SMOOTH",
"751 681 OFFCURVE",
"731 714 OFFCURVE",
"708 714 CURVE SMOOTH",
"688 714 OFFCURVE",
"641 689 OFFCURVE",
"641 653 CURVE SMOOTH",
"641 638 OFFCURVE",
"652 537 OFFCURVE",
"657 488 CURVE SMOOTH",
"658 479 OFFCURVE",
"665 472 OFFCURVE",
"675 472 CURVE SMOOTH"
);
}
);
width = 823;
}
);
leftKerningGroup = tlI;
leftMetricsKey = tlI;
rightKerningGroup = tlNYA;
unicode = 0C1E;
},
{
color = 6;
glyphname = tlTTA;
lastChange = "2016-01-01 05:46:51 +0000";
layers = (
{
anchors = (
{
name = bottom;
position = "{390, 0}";
}
);
guideLines = (
{
position = "{916, 503}";
},
{
angle = 180.542;
position = "{715, 717}";
}
);
layerId = "59118767-2CA9-48AA-9373-694D24C960D8";
name = Regular;
paths = (
{
closed = 1;
nodes = (
"272 -14 OFFCURVE",
"336 6 OFFCURVE",
"391 47 CURVE",
"427 5 OFFCURVE",
"474 -14 OFFCURVE",
"522 -14 CURVE SMOOTH",
"663 -14 OFFCURVE",
"761 111 OFFCURVE",
"761 238 CURVE SMOOTH",
"761 296 OFFCURVE",
"740 355 OFFCURVE",
"692 401 CURVE SMOOTH",
"656 436 OFFCURVE",
"600 462 OFFCURVE",
"561 462 CURVE SMOOTH",
"525 462 OFFCURVE",
"487 412 OFFCURVE",
"487 384 CURVE SMOOTH",
"487 374 OFFCURVE",
"492 367 OFFCURVE",
"501 364 CURVE",
"544 352 OFFCURVE",
"584 337 OFFCURVE",
"615 314 CURVE SMOOTH",
"669 274 OFFCURVE",
"683 233 OFFCURVE",
"683 190 CURVE SMOOTH",
"683 134 OFFCURVE",
"645 86 OFFCURVE",
"573 86 CURVE SMOOTH",
"526 86 OFFCURVE",
"469 109 OFFCURVE",
"449 163 CURVE SMOOTH",
"446 171 OFFCURVE",
"440 173 OFFCURVE",
"434 173 CURVE SMOOTH",
"422 173 OFFCURVE",
"415 166 OFFCURVE",
"403 152 CURVE SMOOTH",
"363 106 OFFCURVE",
"320 80 OFFCURVE",
"265 80 CURVE SMOOTH",
"194 80 OFFCURVE",
"139 124 OFFCURVE",
"139 207 CURVE SMOOTH",
"139 296 OFFCURVE",
"193 376 OFFCURVE",
"270 376 CURVE SMOOTH",
"297 376 OFFCURVE",
"310 358 OFFCURVE",
"310 338 CURVE SMOOTH",
"310 315 OFFCURVE",
"294 288 OFFCURVE",
"266 280 CURVE",
"251 275 OFFCURVE",
"239 278 OFFCURVE",
"236 275 CURVE",
"230 268 OFFCURVE",
"228 260 OFFCURVE",
"228 252 CURVE SMOOTH",
"228 234 OFFCURVE",
"241 217 OFFCURVE",
"267 220 CURVE SMOOTH",
"353 230 OFFCURVE",
"412 298 OFFCURVE",
"412 363 CURVE SMOOTH",
"412 423 OFFCURVE",
"367 463 OFFCURVE",
"302 463 CURVE SMOOTH",
"171 463 OFFCURVE",
"40 301 OFFCURVE",
"40 154 CURVE SMOOTH",
"40 41 OFFCURVE",
"119 -14 OFFCURVE",
"214 -14 CURVE SMOOTH"
);
},
{
closed = 1;
nodes = (
"296 472 OFFCURVE",
"322 584 OFFCURVE",
"327 644 CURVE SMOOTH",
"330 677 OFFCURVE",
"308 714 OFFCURVE",
"284 714 CURVE SMOOTH",
"264 714 OFFCURVE",
"217 689 OFFCURVE",
"217 653 CURVE SMOOTH",
"217 638 OFFCURVE",
"226 537 OFFCURVE",
"233 488 CURVE SMOOTH",
"234 479 OFFCURVE",
"241 472 OFFCURVE",
"251 472 CURVE SMOOTH"
);
}
);
width = 781;
}
);
leftKerningGroup = tlTTA;
leftMetricsKey = tlLA;
rightKerningGroup = tlJHA;
rightMetricsKey = tlJHA;
unicode = 0C1F;
},
{
color = 6;
glyphname = tlTTHA;
lastChange = "2016-01-01 05:46:52 +0000";
layers = (
{
anchors = (
{
name = bottom;
position = "{264, 0}";
}
);
layerId = "59118767-2CA9-48AA-9373-694D24C960D8";
name = Regular;
paths = (
{
closed = 1;
nodes = (
"366 -13 OFFCURVE",
"499 153 OFFCURVE",
"499 300 CURVE SMOOTH",
"499 416 OFFCURVE",
"415 462 OFFCURVE",
"320 462 CURVE SMOOTH",
"254 462 OFFCURVE",
"180 440 OFFCURVE",
"126 414 CURVE",
"145 448 OFFCURVE",
"171 486 OFFCURVE",
"207 517 CURVE SMOOTH",
"279 579 OFFCURVE",
"332 558 OFFCURVE",
"348 574 CURVE SMOOTH",
"357 583 OFFCURVE",
"387 636 OFFCURVE",
"387 666 CURVE SMOOTH",
"387 680 OFFCURVE",
"381 690 OFFCURVE",
"361 690 CURVE SMOOTH",
"329 690 OFFCURVE",
"265 665 OFFCURVE",
"208 618 CURVE SMOOTH",
"133 557 OFFCURVE",
"50 422 OFFCURVE",
"50 350 CURVE SMOOTH",
"50 333 OFFCURVE",
"56 310 OFFCURVE",
"70 310 CURVE SMOOTH",
"82 310 OFFCURVE",
"109 325 OFFCURVE",
"149 338 CURVE",
"88 286 OFFCURVE",
"51 207 OFFCURVE",
"51 131 CURVE SMOOTH",
"51 52 OFFCURVE",
"91 -13 OFFCURVE",
"197 -13 CURVE SMOOTH"
);
},
{
closed = 1;
nodes = (
"171 90 OFFCURVE",
"139 129 OFFCURVE",
"139 183 CURVE SMOOTH",
"139 240 OFFCURVE",
"175 304 OFFCURVE",
"240 356 CURVE",
"247 357 OFFCURVE",
"255 357 OFFCURVE",
"262 357 CURVE SMOOTH",
"345 357 OFFCURVE",
"413 326 OFFCURVE",
"413 239 CURVE SMOOTH",
"413 131 OFFCURVE",
"307 90 OFFCURVE",
"238 90 CURVE SMOOTH"
);
},
{
closed = 1;
nodes = (
"312 179 OFFCURVE",
"334 202 OFFCURVE",
"334 234 CURVE SMOOTH",
"334 263 OFFCURVE",
"314 283 OFFCURVE",
"284 283 CURVE SMOOTH",
"253 283 OFFCURVE",
"230 261 OFFCURVE",
"230 230 CURVE SMOOTH",
"230 200 OFFCURVE",
"251 179 OFFCURVE",
"281 179 CURVE SMOOTH"
);
}
);
width = 529;
}
);
leftKerningGroup = tlRA;
rightKerningGroup = tlRA;
unicode = 0C20;
},
{
color = 6;
glyphname = tlDDA;
lastChange = "2016-01-01 05:46:49 +0000";
layers = (
{
anchors = (
{
name = bottom;
position = "{333, 0}";
}
);
layerId = "59118767-2CA9-48AA-9373-694D24C960D8";
name = Regular;
paths = (
{
closed = 1;
nodes = (
"160 -50 OFFCURVE",
"228 -20 OFFCURVE",
"290 45 CURVE",
"320 6 OFFCURVE",
"366 -13 OFFCURVE",
"416 -13 CURVE SMOOTH",
"531 -13 OFFCURVE",
"652 80 OFFCURVE",
"652 191 CURVE SMOOTH",
"652 265 OFFCURVE",
"607 304 OFFCURVE",
"552 304 CURVE SMOOTH",
"489 304 OFFCURVE",
"448 258 OFFCURVE",
"436 231 CURVE SMOOTH",
"432 222 OFFCURVE",
"430 213 OFFCURVE",
"430 206 CURVE SMOOTH",
"430 189 OFFCURVE",
"441 180 OFFCURVE",
"454 180 CURVE SMOOTH",
"460 180 OFFCURVE",
"466 181 OFFCURVE",
"472 186 CURVE SMOOTH",
"484 196 OFFCURVE",
"500 203 OFFCURVE",
"522 203 CURVE SMOOTH",
"555 203 OFFCURVE",
"576 180 OFFCURVE",
"576 154 CURVE SMOOTH",
"576 123 OFFCURVE",
"546 90 OFFCURVE",
"469 90 CURVE SMOOTH",
"418 90 OFFCURVE",
"368 113 OFFCURVE",
"353 157 CURVE SMOOTH",
"350 166 OFFCURVE",
"345 173 OFFCURVE",
"336 173 CURVE SMOOTH",
"325 173 OFFCURVE",
"314 165 OFFCURVE",
"305 152 CURVE SMOOTH",
"269 99 OFFCURVE",
"213 54 OFFCURVE",
"179 54 CURVE SMOOTH",
"148 54 OFFCURVE",
"136 80 OFFCURVE",
"136 113 CURVE SMOOTH",
"136 228 OFFCURVE",
"250 342 OFFCURVE",
"386 387 CURVE SMOOTH",
"411 395 OFFCURVE",
"422 415 OFFCURVE",
"422 432 CURVE SMOOTH",
"422 448 OFFCURVE",
"412 462 OFFCURVE",
"393 462 CURVE SMOOTH",
"321 462 OFFCURVE",
"217 440 OFFCURVE",
"142 413 CURVE",
"161 447 OFFCURVE",
"187 486 OFFCURVE",
"222 516 CURVE SMOOTH",
"294 578 OFFCURVE",
"347 557 OFFCURVE",
"363 573 CURVE SMOOTH",
"372 582 OFFCURVE",
"402 635 OFFCURVE",
"402 665 CURVE SMOOTH",
"402 679 OFFCURVE",
"396 689 OFFCURVE",
"376 689 CURVE SMOOTH",
"344 689 OFFCURVE",
"280 664 OFFCURVE",
"223 617 CURVE SMOOTH",
"173 576 OFFCURVE",
"138 528 OFFCURVE",
"114 485 CURVE SMOOTH",
"88 437 OFFCURVE",
"65 380 OFFCURVE",
"65 350 CURVE SMOOTH",
"65 328 OFFCURVE",
"77 310 OFFCURVE",
"88 310 CURVE SMOOTH",
"106 310 OFFCURVE",
"141 339 OFFCURVE",
"213 359 CURVE",
"118 294 OFFCURVE",
"35 152 OFFCURVE",
"35 42 CURVE SMOOTH",
"35 -11 OFFCURVE",
"57 -50 OFFCURVE",
"114 -50 CURVE SMOOTH"
);
}
);
width = 667;
}
);
leftKerningGroup = tlDA;
leftMetricsKey = tlDA;
rightKerningGroup = tlDDA;
unicode = 0C21;
},
{
color = 6;
glyphname = tlDDHA;
lastChange = "2016-01-01 05:46:51 +0000";
layers = (
{
anchors = (
{
name = bottom;
position = "{333, -190}";
}
);
layerId = "59118767-2CA9-48AA-9373-694D24C960D8";
name = Regular;
paths = (
{
closed = 1;
nodes = (
"160 -50 OFFCURVE",
"228 -20 OFFCURVE",
"290 45 CURVE",
"320 6 OFFCURVE",
"366 -13 OFFCURVE",
"416 -13 CURVE SMOOTH",
"531 -13 OFFCURVE",
"652 80 OFFCURVE",
"652 191 CURVE SMOOTH",
"652 265 OFFCURVE",
"607 304 OFFCURVE",
"552 304 CURVE SMOOTH",
"489 304 OFFCURVE",
"448 258 OFFCURVE",
"436 231 CURVE SMOOTH",
"432 222 OFFCURVE",
"430 213 OFFCURVE",
"430 206 CURVE SMOOTH",
"430 189 OFFCURVE",
"441 180 OFFCURVE",
"454 180 CURVE SMOOTH",
"460 180 OFFCURVE",
"466 181 OFFCURVE",
"472 186 CURVE SMOOTH",
"484 196 OFFCURVE",
"500 203 OFFCURVE",
"522 203 CURVE SMOOTH",
"555 203 OFFCURVE",
"576 180 OFFCURVE",
"576 154 CURVE SMOOTH",
"576 123 OFFCURVE",
"546 90 OFFCURVE",
"469 90 CURVE SMOOTH",
"418 90 OFFCURVE",
"368 113 OFFCURVE",
"353 157 CURVE SMOOTH",
"350 166 OFFCURVE",
"345 173 OFFCURVE",
"336 173 CURVE SMOOTH",
"325 173 OFFCURVE",
"314 165 OFFCURVE",
"305 152 CURVE SMOOTH",
"269 99 OFFCURVE",
"213 54 OFFCURVE",
"179 54 CURVE SMOOTH",
"148 54 OFFCURVE",
"136 80 OFFCURVE",
"136 113 CURVE SMOOTH",
"136 228 OFFCURVE",
"250 342 OFFCURVE",
"386 387 CURVE SMOOTH",
"411 395 OFFCURVE",
"422 415 OFFCURVE",
"422 432 CURVE SMOOTH",
"422 448 OFFCURVE",
"412 462 OFFCURVE",
"393 462 CURVE SMOOTH",
"321 462 OFFCURVE",
"217 440 OFFCURVE",
"142 413 CURVE",
"161 447 OFFCURVE",
"187 486 OFFCURVE",
"222 516 CURVE SMOOTH",
"294 578 OFFCURVE",
"347 557 OFFCURVE",
"363 573 CURVE SMOOTH",
"372 582 OFFCURVE",
"402 635 OFFCURVE",
"402 665 CURVE SMOOTH",
"402 679 OFFCURVE",
"396 689 OFFCURVE",
"376 689 CURVE SMOOTH",
"344 689 OFFCURVE",
"280 664 OFFCURVE",
"223 617 CURVE SMOOTH",
"173 576 OFFCURVE",
"138 528 OFFCURVE",
"114 485 CURVE SMOOTH",
"88 437 OFFCURVE",
"65 380 OFFCURVE",
"65 350 CURVE SMOOTH",
"65 328 OFFCURVE",
"77 310 OFFCURVE",
"88 310 CURVE SMOOTH",
"106 310 OFFCURVE",
"141 339 OFFCURVE",
"213 359 CURVE",
"118 294 OFFCURVE",
"35 152 OFFCURVE",
"35 42 CURVE SMOOTH",
"35 -11 OFFCURVE",
"57 -50 OFFCURVE",
"114 -50 CURVE SMOOTH"
);
},
{
closed = 1;
nodes = (
"306 -192 OFFCURVE",
"325 -158 OFFCURVE",
"325 -125 CURVE SMOOTH",
"325 -98 OFFCURVE",
"312 -9 OFFCURVE",
"291 -9 CURVE SMOOTH",
"270 -9 OFFCURVE",
"220 -95 OFFCURVE",
"220 -139 CURVE SMOOTH",
"220 -158 OFFCURVE",
"230 -192 OFFCURVE",
"268 -192 CURVE SMOOTH"
);
}
);
width = 667;
}
);
leftKerningGroup = tlDA;
leftMetricsKey = tlDA;
rightKerningGroup = tlDDA;
rightMetricsKey = tlDDA;
unicode = 0C22;
},
{
color = 6;
glyphname = tlNNA;
lastChange = "2016-01-01 05:46:52 +0000";
layers = (
{
anchors = (
{
name = bottom;
position = "{375, 0}";
}
);
guideLines = (
{
angle = 90;
position = "{56, 161}";
}
);
layerId = "59118767-2CA9-48AA-9373-694D24C960D8";
name = Regular;
paths = (
{
closed = 1;
nodes = (
"629 -14 OFFCURVE",
"730 133 OFFCURVE",
"730 279 CURVE SMOOTH",
"730 400 OFFCURVE",
"661 463 OFFCURVE",
"571 463 CURVE SMOOTH",
"529 463 OFFCURVE",
"482 450 OFFCURVE",
"435 421 CURVE",
"389 495 OFFCURVE",
"325 523 OFFCURVE",
"263 523 CURVE SMOOTH",
"161 523 OFFCURVE",
"50 447 OFFCURVE",
"50 319 CURVE SMOOTH",
"50 273 OFFCURVE",
"64 234 OFFCURVE",
"96 208 CURVE",
"66 178 OFFCURVE",
"51 141 OFFCURVE",
"51 103 CURVE SMOOTH",
"51 37 OFFCURVE",
"96 -13 OFFCURVE",
"160 -13 CURVE SMOOTH",
"188 -13 OFFCURVE",
"212 -3 OFFCURVE",
"234 19 CURVE SMOOTH",
"250 35 OFFCURVE",
"264 59 OFFCURVE",
"264 76 CURVE SMOOTH",
"264 87 OFFCURVE",
"258 89 OFFCURVE",
"240 89 CURVE SMOOTH",
"219 89 OFFCURVE",
"195 86 OFFCURVE",
"165 100 CURVE SMOOTH",
"142 111 OFFCURVE",
"127 129 OFFCURVE",
"127 155 CURVE SMOOTH",
"127 169 OFFCURVE",
"131 178 OFFCURVE",
"139 184 CURVE",
"155 179 OFFCURVE",
"176 176 OFFCURVE",
"192 176 CURVE SMOOTH",
"220 176 OFFCURVE",
"249 185 OFFCURVE",
"270 202 CURVE SMOOTH",
"289 218 OFFCURVE",
"310 246 OFFCURVE",
"310 266 CURVE SMOOTH",
"310 285 OFFCURVE",
"291 294 OFFCURVE",
"262 294 CURVE SMOOTH",
"241 294 OFFCURVE",
"215 289 OFFCURVE",
"191 280 CURVE",
"156 298 OFFCURVE",
"138 333 OFFCURVE",
"138 367 CURVE SMOOTH",
"138 410 OFFCURVE",
"165 450 OFFCURVE",
"220 450 CURVE SMOOTH",
"268 450 OFFCURVE",
"295 419 OFFCURVE",
"348 353 CURVE SMOOTH",
"361 337 OFFCURVE",
"366 330 OFFCURVE",
"375 330 CURVE SMOOTH",
"381 330 OFFCURVE",
"389 334 OFFCURVE",
"404 343 CURVE SMOOTH",
"433 360 OFFCURVE",
"463 373 OFFCURVE",
"499 373 CURVE SMOOTH",
"576 373 OFFCURVE",
"650 312 OFFCURVE",
"650 212 CURVE SMOOTH",
"650 175 OFFCURVE",
"640 140 OFFCURVE",
"619 108 CURVE",
"622 120 OFFCURVE",
"624 133 OFFCURVE",
"624 147 CURVE SMOOTH",
"624 206 OFFCURVE",
"591 263 OFFCURVE",
"522 263 CURVE SMOOTH",
"433 263 OFFCURVE",
"366 167 OFFCURVE",
"366 88 CURVE SMOOTH",
"366 18 OFFCURVE",
"419 -14 OFFCURVE",
"486 -14 CURVE SMOOTH"
);
},
{
closed = 1;
nodes = (
"462 72 OFFCURVE",
"438 105 OFFCURVE",
"438 131 CURVE SMOOTH",
"438 152 OFFCURVE",
"454 170 OFFCURVE",
"486 170 CURVE SMOOTH",
"531 170 OFFCURVE",
"569 135 OFFCURVE",
"569 78 CURVE",
"556 74 OFFCURVE",
"539 72 OFFCURVE",
"524 72 CURVE SMOOTH"
);
}
);
width = 750;
}
);
leftKerningGroup = tlNNA;
rightKerningGroup = tlJHA;
rightMetricsKey = tlJHA;
unicode = 0C23;
},
{
color = 6;
glyphname = tlTA;
lastChange = "2016-01-01 05:46:52 +0000";
layers = (
{
anchors = (
{
name = bottom;
position = "{377, -30}";
}
);
layerId = "59118767-2CA9-48AA-9373-694D24C960D8";
name = Regular;
paths = (
{
closed = 1;
nodes = (
"503 -30 OFFCURVE",
"735 82 OFFCURVE",
"735 258 CURVE SMOOTH",
"735 364 OFFCURVE",
"652 432 OFFCURVE",
"558 432 CURVE SMOOTH",
"547 432 OFFCURVE",
"536 431 OFFCURVE",
"525 429 CURVE",
"493 466 OFFCURVE",
"452 482 OFFCURVE",
"403 482 CURVE SMOOTH",
"366 482 OFFCURVE",
"330 473 OFFCURVE",
"294 456 CURVE",
"311 484 OFFCURVE",
"333 512 OFFCURVE",
"361 536 CURVE SMOOTH",
"433 598 OFFCURVE",
"486 577 OFFCURVE",
"502 593 CURVE SMOOTH",
"511 602 OFFCURVE",
"541 655 OFFCURVE",
"541 685 CURVE SMOOTH",
"541 699 OFFCURVE",
"535 709 OFFCURVE",
"515 709 CURVE SMOOTH",
"483 709 OFFCURVE",
"419 684 OFFCURVE",
"362 637 CURVE SMOOTH",
"312 596 OFFCURVE",
"277 548 OFFCURVE",
"253 505 CURVE SMOOTH",
"233 470 OFFCURVE",
"204 404 OFFCURVE",
"204 377 CURVE SMOOTH",
"204 362 OFFCURVE",
"210 348 OFFCURVE",
"228 348 CURVE SMOOTH",
"239 348 OFFCURVE",
"253 357 OFFCURVE",
"271 365 CURVE SMOOTH",
"308 382 OFFCURVE",
"346 395 OFFCURVE",
"390 395 CURVE SMOOTH",
"407 395 OFFCURVE",
"423 393 OFFCURVE",
"439 390 CURVE",
"387 356 OFFCURVE",
"361 300 OFFCURVE",
"361 250 CURVE SMOOTH",
"361 195 OFFCURVE",
"394 147 OFFCURVE",
"454 147 CURVE SMOOTH",
"527 147 OFFCURVE",
"586 219 OFFCURVE",
"586 290 CURVE SMOOTH",
"586 311 OFFCURVE",
"581 332 OFFCURVE",
"571 348 CURVE",
"614 333 OFFCURVE",
"647 283 OFFCURVE",
"647 229 CURVE SMOOTH",
"647 114 OFFCURVE",
"496 52 OFFCURVE",
"347 52 CURVE SMOOTH",
"221 52 OFFCURVE",
"102 96 OFFCURVE",
"102 176 CURVE SMOOTH",
"102 224 OFFCURVE",
"144 249 OFFCURVE",
"175 249 CURVE SMOOTH",
"194 249 OFFCURVE",
"209 240 OFFCURVE",
"209 222 CURVE SMOOTH",
"209 200 OFFCURVE",
"187 192 OFFCURVE",
"184 190 CURVE SMOOTH",
"181 188 OFFCURVE",
"176 181 OFFCURVE",
"176 167 CURVE SMOOTH",
"176 145 OFFCURVE",
"187 115 OFFCURVE",
"214 115 CURVE SMOOTH",
"241 115 OFFCURVE",
"304 143 OFFCURVE",
"304 217 CURVE SMOOTH",
"304 280 OFFCURVE",
"258 308 OFFCURVE",
"204 308 CURVE SMOOTH",
"120 308 OFFCURVE",
"15 240 OFFCURVE",
"15 139 CURVE SMOOTH",
"15 37 OFFCURVE",
"121 -30 OFFCURVE",
"288 -30 CURVE SMOOTH"
);
},
{
closed = 1;
nodes = (
"450 213 OFFCURVE",
"423 237 OFFCURVE",
"423 281 CURVE SMOOTH",
"423 323 OFFCURVE",
"447 347 OFFCURVE",
"472 347 CURVE SMOOTH",
"498 347 OFFCURVE",
"523 323 OFFCURVE",
"523 277 CURVE SMOOTH",
"523 233 OFFCURVE",
"499 213 OFFCURVE",
"476 213 CURVE SMOOTH"
);
}
);
width = 754;
}
);
leftKerningGroup = tlTA;
rightKerningGroup = tlTA;
unicode = 0C24;
},
{
color = 6;
glyphname = tlTHA;
lastChange = "2016-01-01 05:46:52 +0000";
layers = (
{
anchors = (
{
name = bottom;
position = "{323, -190}";
}
);
layerId = "59118767-2CA9-48AA-9373-694D24C960D8";
name = Regular;
paths = (
{
closed = 1;
nodes = (
"159 -50 OFFCURVE",
"229 -20 OFFCURVE",
"291 47 CURVE",
"312 5 OFFCURVE",
"351 -13 OFFCURVE",
"395 -13 CURVE SMOOTH",
"515 -13 OFFCURVE",
"621 109 OFFCURVE",
"621 240 CURVE SMOOTH",
"621 390 OFFCURVE",
"522 462 OFFCURVE",
"383 462 CURVE SMOOTH",
"295 462 OFFCURVE",
"215 447 OFFCURVE",
"146 419 CURVE",
"164 452 OFFCURVE",
"189 488 OFFCURVE",
"223 517 CURVE SMOOTH",
"295 579 OFFCURVE",
"348 558 OFFCURVE",
"364 574 CURVE SMOOTH",
"373 583 OFFCURVE",
"403 636 OFFCURVE",
"403 666 CURVE SMOOTH",
"403 680 OFFCURVE",
"397 690 OFFCURVE",
"377 690 CURVE SMOOTH",
"345 690 OFFCURVE",
"281 665 OFFCURVE",
"224 618 CURVE SMOOTH",
"174 577 OFFCURVE",
"139 529 OFFCURVE",
"115 486 CURVE SMOOTH",
"80 423 OFFCURVE",
"66 393 OFFCURVE",
"66 353 CURVE SMOOTH",
"66 329 OFFCURVE",
"76 310 OFFCURVE",
"87 310 CURVE SMOOTH",
"103 310 OFFCURVE",
"127 326 OFFCURVE",
"177 340 CURVE",
"100 269 OFFCURVE",
"35 139 OFFCURVE",
"35 34 CURVE SMOOTH",
"35 -19 OFFCURVE",
"60 -50 OFFCURVE",
"113 -50 CURVE SMOOTH"
);
},
{
closed = 1;
nodes = (
"308 -192 OFFCURVE",
"327 -158 OFFCURVE",
"327 -125 CURVE SMOOTH",
"327 -98 OFFCURVE",
"314 -9 OFFCURVE",
"293 -9 CURVE SMOOTH",
"272 -9 OFFCURVE",
"222 -95 OFFCURVE",
"222 -139 CURVE SMOOTH",
"222 -158 OFFCURVE",
"232 -192 OFFCURVE",
"270 -192 CURVE SMOOTH"
);
},
{
closed = 1;
nodes = (
"147 54 OFFCURVE",
"136 76 OFFCURVE",
"136 110 CURVE SMOOTH",
"136 182 OFFCURVE",
"192 299 OFFCURVE",
"261 355 CURVE",
"283 358 OFFCURVE",
"309 359 OFFCURVE",
"337 359 CURVE SMOOTH",
"452 359 OFFCURVE",
"546 287 OFFCURVE",
"546 184 CURVE SMOOTH",
"546 129 OFFCURVE",
"501 83 OFFCURVE",
"447 83 CURVE SMOOTH",
"409 83 OFFCURVE",
"369 105 OFFCURVE",
"352 157 CURVE SMOOTH",
"349 166 OFFCURVE",
"344 173 OFFCURVE",
"335 173 CURVE SMOOTH",
"324 173 OFFCURVE",
"313 165 OFFCURVE",
"304 152 CURVE SMOOTH",
"268 99 OFFCURVE",
"212 54 OFFCURVE",
"178 54 CURVE SMOOTH"
);
},
{
closed = 1;
nodes = (
"384 202 OFFCURVE",
"406 225 OFFCURVE",
"406 257 CURVE SMOOTH",
"406 286 OFFCURVE",
"386 306 OFFCURVE",
"356 306 CURVE SMOOTH",
"325 306 OFFCURVE",
"302 284 OFFCURVE",
"302 253 CURVE SMOOTH",
"302 223 OFFCURVE",
"323 202 OFFCURVE",
"353 202 CURVE SMOOTH"
);
}
);
width = 646;
}
);
leftKerningGroup = tlDA;
leftMetricsKey = tlDA;
rightKerningGroup = tlDA;
rightMetricsKey = tlDA;
unicode = 0C25;
},
{
color = 6;
glyphname = tlDA;
lastChange = "2016-01-01 05:46:51 +0000";
layers = (
{
layerId = "59118767-2CA9-48AA-9373-694D24C960D8";
name = Regular;
paths = (
{
closed = 1;
nodes = (
"159 -50 OFFCURVE",
"229 -20 OFFCURVE",
"291 47 CURVE",
"312 5 OFFCURVE",
"351 -13 OFFCURVE",
"395 -13 CURVE SMOOTH",
"515 -13 OFFCURVE",
"621 109 OFFCURVE",
"621 240 CURVE SMOOTH",
"621 390 OFFCURVE",
"522 462 OFFCURVE",
"383 462 CURVE SMOOTH",
"295 462 OFFCURVE",
"215 447 OFFCURVE",
"146 419 CURVE",
"164 452 OFFCURVE",
"189 488 OFFCURVE",
"223 517 CURVE SMOOTH",
"295 579 OFFCURVE",
"348 558 OFFCURVE",
"364 574 CURVE SMOOTH",
"373 583 OFFCURVE",
"403 636 OFFCURVE",
"403 666 CURVE SMOOTH",
"403 680 OFFCURVE",
"397 690 OFFCURVE",
"377 690 CURVE SMOOTH",
"345 690 OFFCURVE",
"281 665 OFFCURVE",
"224 618 CURVE SMOOTH",
"174 577 OFFCURVE",
"139 529 OFFCURVE",
"115 486 CURVE SMOOTH",
"80 423 OFFCURVE",
"66 393 OFFCURVE",
"66 353 CURVE SMOOTH",
"66 329 OFFCURVE",
"76 310 OFFCURVE",
"87 310 CURVE SMOOTH",
"103 310 OFFCURVE",
"127 326 OFFCURVE",
"177 340 CURVE",
"100 269 OFFCURVE",
"35 139 OFFCURVE",
"35 34 CURVE SMOOTH",
"35 -19 OFFCURVE",
"60 -50 OFFCURVE",
"113 -50 CURVE SMOOTH"
);
},
{
closed = 1;
nodes = (
"147 54 OFFCURVE",
"136 76 OFFCURVE",
"136 110 CURVE SMOOTH",
"136 182 OFFCURVE",
"192 299 OFFCURVE",
"261 355 CURVE",
"283 358 OFFCURVE",
"309 359 OFFCURVE",
"337 359 CURVE SMOOTH",
"452 359 OFFCURVE",
"546 287 OFFCURVE",
"546 184 CURVE SMOOTH",
"546 129 OFFCURVE",
"501 83 OFFCURVE",
"447 83 CURVE SMOOTH",
"409 83 OFFCURVE",
"369 105 OFFCURVE",
"352 157 CURVE SMOOTH",
"349 166 OFFCURVE",
"344 173 OFFCURVE",
"335 173 CURVE SMOOTH",
"324 173 OFFCURVE",
"313 165 OFFCURVE",
"304 152 CURVE SMOOTH",
"268 99 OFFCURVE",
"212 54 OFFCURVE",
"178 54 CURVE SMOOTH"
);
}
);
width = 646;
}
);
leftKerningGroup = tlDA;
rightKerningGroup = tlDA;
unicode = 0C26;
},
{
color = 6;
glyphname = tlDHA;
lastChange = "2016-01-01 05:46:52 +0000";
layers = (
{
anchors = (
{
name = bottom;
position = "{323, -190}";
}
);
layerId = "59118767-2CA9-48AA-9373-694D24C960D8";
name = Regular;
paths = (
{
closed = 1;
nodes = (
"159 -50 OFFCURVE",
"229 -20 OFFCURVE",
"291 47 CURVE",
"312 5 OFFCURVE",
"351 -13 OFFCURVE",
"395 -13 CURVE SMOOTH",
"515 -13 OFFCURVE",
"621 109 OFFCURVE",
"621 240 CURVE SMOOTH",
"621 390 OFFCURVE",
"522 462 OFFCURVE",
"383 462 CURVE SMOOTH",
"295 462 OFFCURVE",
"215 447 OFFCURVE",
"146 419 CURVE",
"164 452 OFFCURVE",
"189 488 OFFCURVE",
"223 517 CURVE SMOOTH",
"295 579 OFFCURVE",
"348 558 OFFCURVE",
"364 574 CURVE SMOOTH",
"373 583 OFFCURVE",
"403 636 OFFCURVE",
"403 666 CURVE SMOOTH",
"403 680 OFFCURVE",
"397 690 OFFCURVE",
"377 690 CURVE SMOOTH",
"345 690 OFFCURVE",
"281 665 OFFCURVE",
"224 618 CURVE SMOOTH",
"174 577 OFFCURVE",
"139 529 OFFCURVE",
"115 486 CURVE SMOOTH",
"80 423 OFFCURVE",
"66 393 OFFCURVE",
"66 353 CURVE SMOOTH",
"66 329 OFFCURVE",
"76 310 OFFCURVE",
"87 310 CURVE SMOOTH",
"103 310 OFFCURVE",
"127 326 OFFCURVE",
"177 340 CURVE",
"100 269 OFFCURVE",
"35 139 OFFCURVE",
"35 34 CURVE SMOOTH",
"35 -19 OFFCURVE",
"60 -50 OFFCURVE",
"113 -50 CURVE SMOOTH"
);
},
{
closed = 1;
nodes = (
"308 -192 OFFCURVE",
"327 -158 OFFCURVE",
"327 -125 CURVE SMOOTH",
"327 -98 OFFCURVE",
"314 -9 OFFCURVE",
"293 -9 CURVE SMOOTH",
"272 -9 OFFCURVE",
"222 -95 OFFCURVE",
"222 -139 CURVE SMOOTH",
"222 -158 OFFCURVE",
"232 -192 OFFCURVE",
"270 -192 CURVE SMOOTH"
);
},
{
closed = 1;
nodes = (
"147 54 OFFCURVE",
"136 76 OFFCURVE",
"136 110 CURVE SMOOTH",
"136 182 OFFCURVE",
"192 299 OFFCURVE",
"261 355 CURVE",
"283 358 OFFCURVE",
"309 359 OFFCURVE",
"337 359 CURVE SMOOTH",
"452 359 OFFCURVE",
"546 287 OFFCURVE",
"546 184 CURVE SMOOTH",
"546 129 OFFCURVE",
"501 83 OFFCURVE",
"447 83 CURVE SMOOTH",
"409 83 OFFCURVE",
"369 105 OFFCURVE",
"352 157 CURVE SMOOTH",
"349 166 OFFCURVE",
"344 173 OFFCURVE",
"335 173 CURVE SMOOTH",
"324 173 OFFCURVE",
"313 165 OFFCURVE",
"304 152 CURVE SMOOTH",
"268 99 OFFCURVE",
"212 54 OFFCURVE",
"178 54 CURVE SMOOTH"
);
}
);
width = 646;
}
);
leftKerningGroup = tlDA;
leftMetricsKey = tlDA;
rightKerningGroup = tlDA;
rightMetricsKey = tlDA;
unicode = 0C27;
},
{
color = 6;
glyphname = tlNA;
lastChange = "2016-01-01 05:46:49 +0000";
layers = (
{
anchors = (
{
name = bottom;
position = "{229, -191}";
}
);
layerId = "59118767-2CA9-48AA-9373-694D24C960D8";
name = Regular;
paths = (
{
closed = 1;
nodes = (
"110 -191 OFFCURVE",
"138 -144 OFFCURVE",
"138 -115 CURVE SMOOTH",
"138 -104 OFFCURVE",
"134 -95 OFFCURVE",
"124 -94 CURVE SMOOTH",
"101 -91 OFFCURVE",
"52 -83 OFFCURVE",
"52 -39 CURVE SMOOTH",
"52 -5 OFFCURVE",
"80 5 OFFCURVE",
"105 5 CURVE SMOOTH",
"145 5 OFFCURVE",
"173 -13 OFFCURVE",
"228 -13 CURVE SMOOTH",
"275 -13 OFFCURVE",
"320 7 OFFCURVE",
"358 38 CURVE SMOOTH",
"415 85 OFFCURVE",
"453 161 OFFCURVE",
"453 240 CURVE SMOOTH",
"453 374 OFFCURVE",
"367 463 OFFCURVE",
"241 463 CURVE SMOOTH",
"197 463 OFFCURVE",
"151 445 OFFCURVE",
"111 423 CURVE",
"129 455 OFFCURVE",
"154 490 OFFCURVE",
"186 517 CURVE SMOOTH",
"258 579 OFFCURVE",
"311 558 OFFCURVE",
"327 574 CURVE SMOOTH",
"336 583 OFFCURVE",
"366 636 OFFCURVE",
"366 666 CURVE SMOOTH",
"366 680 OFFCURVE",
"360 690 OFFCURVE",
"340 690 CURVE SMOOTH",
"308 690 OFFCURVE",
"244 665 OFFCURVE",
"187 618 CURVE SMOOTH",
"137 577 OFFCURVE",
"102 529 OFFCURVE",
"78 486 CURVE SMOOTH",
"59 453 OFFCURVE",
"27 382 OFFCURVE",
"27 345 CURVE SMOOTH",
"27 323 OFFCURVE",
"36 303 OFFCURVE",
"52 303 CURVE SMOOTH",
"56 303 OFFCURVE",
"61 304 OFFCURVE",
"66 307 CURVE SMOOTH",
"120 339 OFFCURVE",
"148 355 OFFCURVE",
"198 355 CURVE SMOOTH",
"287 355 OFFCURVE",
"378 283 OFFCURVE",
"378 184 CURVE SMOOTH",
"378 128 OFFCURVE",
"345 89 OFFCURVE",
"290 89 CURVE SMOOTH",
"250 89 OFFCURVE",
"202 109 OFFCURVE",
"151 109 CURVE SMOOTH",
"54 109 OFFCURVE",
"-25 10 OFFCURVE",
"-25 -77 CURVE SMOOTH",
"-25 -147 OFFCURVE",
"26 -191 OFFCURVE",
"67 -191 CURVE SMOOTH"
);
}
);
width = 478;
}
);
leftKerningGroup = tlNA;
rightKerningGroup = tlDA;
rightMetricsKey = tlDA;
unicode = 0C28;
},
{
color = 6;
glyphname = tlPA;
lastChange = "2016-01-01 05:46:51 +0000";
layers = (
{
anchors = (
{
name = bottom;
position = "{341, 0}";
}
);
layerId = "59118767-2CA9-48AA-9373-694D24C960D8";
name = Regular;
paths = (
{
closed = 1;
nodes = (
"163 -50 OFFCURVE",
"227 -10 OFFCURVE",
"270 41 CURVE",
"291 11 OFFCURVE",
"331 -14 OFFCURVE",
"392 -14 CURVE SMOOTH",
"538 -14 OFFCURVE",
"657 99 OFFCURVE",
"657 240 CURVE SMOOTH",
"657 350 OFFCURVE",
"555 462 OFFCURVE",
"452 462 CURVE SMOOTH",
"415 462 OFFCURVE",
"377 413 OFFCURVE",
"377 384 CURVE SMOOTH",
"377 374 OFFCURVE",
"381 367 OFFCURVE",
"390 364 CURVE SMOOTH",
"441 347 OFFCURVE",
"489 330 OFFCURVE",
"524 301 CURVE SMOOTH",
"558 273 OFFCURVE",
"579 232 OFFCURVE",
"579 192 CURVE SMOOTH",
"579 124 OFFCURVE",
"523 83 OFFCURVE",
"452 83 CURVE SMOOTH",
"393 83 OFFCURVE",
"337 113 OFFCURVE",
"321 170 CURVE",
"317 219 OFFCURVE",
"286 253 OFFCURVE",
"234 253 CURVE SMOOTH",
"108 253 OFFCURVE",
"15 135 OFFCURVE",
"15 38 CURVE SMOOTH",
"15 -24 OFFCURVE",
"56 -50 OFFCURVE",
"106 -50 CURVE SMOOTH"
);
},
{
closed = 1;
nodes = (
"121 46 OFFCURVE",
"100 66 OFFCURVE",
"100 88 CURVE SMOOTH",
"100 135 OFFCURVE",
"146 158 OFFCURVE",
"188 158 CURVE SMOOTH",
"213 158 OFFCURVE",
"239 149 OFFCURVE",
"256 132 CURVE",
"246 85 OFFCURVE",
"203 46 OFFCURVE",
"155 46 CURVE SMOOTH"
);
},
{
closed = 1;
nodes = (
"183 329 OFFCURVE",
"178 338 OFFCURVE",
"211 401 CURVE SMOOTH",
"230 438 OFFCURVE",
"258 483 OFFCURVE",
"298 517 CURVE SMOOTH",
"370 579 OFFCURVE",
"423 558 OFFCURVE",
"439 574 CURVE SMOOTH",
"448 583 OFFCURVE",
"478 636 OFFCURVE",
"478 666 CURVE SMOOTH",
"478 680 OFFCURVE",
"472 690 OFFCURVE",
"452 690 CURVE SMOOTH",
"420 690 OFFCURVE",
"356 665 OFFCURVE",
"299 618 CURVE SMOOTH",
"249 577 OFFCURVE",
"214 529 OFFCURVE",
"190 486 CURVE SMOOTH",
"170 451 OFFCURVE",
"141 385 OFFCURVE",
"141 358 CURVE SMOOTH",
"141 343 OFFCURVE",
"147 329 OFFCURVE",
"165 329 CURVE SMOOTH"
);
}
);
width = 682;
}
);
leftKerningGroup = tlPA;
rightKerningGroup = tlJHA;
unicode = 0C2A;
},
{
color = 6;
glyphname = tlPHA;
lastChange = "2016-01-01 05:46:51 +0000";
layers = (
{
anchors = (
{
name = bottom;
position = "{341, -190}";
}
);
layerId = "59118767-2CA9-48AA-9373-694D24C960D8";
name = Regular;
paths = (
{
closed = 1;
nodes = (
"163 -50 OFFCURVE",
"227 -10 OFFCURVE",
"270 41 CURVE",
"291 11 OFFCURVE",
"331 -14 OFFCURVE",
"392 -14 CURVE SMOOTH",
"538 -14 OFFCURVE",
"657 99 OFFCURVE",
"657 240 CURVE SMOOTH",
"657 350 OFFCURVE",
"555 462 OFFCURVE",
"452 462 CURVE SMOOTH",
"415 462 OFFCURVE",
"377 413 OFFCURVE",
"377 384 CURVE SMOOTH",
"377 374 OFFCURVE",
"381 367 OFFCURVE",
"390 364 CURVE SMOOTH",
"441 347 OFFCURVE",
"489 330 OFFCURVE",
"524 301 CURVE SMOOTH",
"558 273 OFFCURVE",
"579 232 OFFCURVE",
"579 192 CURVE SMOOTH",
"579 124 OFFCURVE",
"523 83 OFFCURVE",
"452 83 CURVE SMOOTH",
"393 83 OFFCURVE",
"337 113 OFFCURVE",
"321 170 CURVE",
"317 219 OFFCURVE",
"286 253 OFFCURVE",
"234 253 CURVE SMOOTH",
"108 253 OFFCURVE",
"15 135 OFFCURVE",
"15 38 CURVE SMOOTH",
"15 -24 OFFCURVE",
"56 -50 OFFCURVE",
"106 -50 CURVE SMOOTH"
);
},
{
closed = 1;
nodes = (
"292 -192 OFFCURVE",
"311 -158 OFFCURVE",
"311 -125 CURVE SMOOTH",
"311 -98 OFFCURVE",
"298 -9 OFFCURVE",
"277 -9 CURVE SMOOTH",
"256 -9 OFFCURVE",
"206 -95 OFFCURVE",
"206 -139 CURVE SMOOTH",
"206 -158 OFFCURVE",
"216 -192 OFFCURVE",
"254 -192 CURVE SMOOTH"
);
},
{
closed = 1;
nodes = (
"121 46 OFFCURVE",
"100 66 OFFCURVE",
"100 88 CURVE SMOOTH",
"100 135 OFFCURVE",
"146 158 OFFCURVE",
"188 158 CURVE SMOOTH",
"213 158 OFFCURVE",
"239 149 OFFCURVE",
"256 132 CURVE",
"246 85 OFFCURVE",
"203 46 OFFCURVE",
"155 46 CURVE SMOOTH"
);
},
{
closed = 1;
nodes = (
"183 329 OFFCURVE",
"178 338 OFFCURVE",
"211 401 CURVE SMOOTH",
"230 438 OFFCURVE",
"258 483 OFFCURVE",
"298 517 CURVE SMOOTH",
"370 579 OFFCURVE",
"423 558 OFFCURVE",
"439 574 CURVE SMOOTH",
"448 583 OFFCURVE",
"478 636 OFFCURVE",
"478 666 CURVE SMOOTH",
"478 680 OFFCURVE",
"472 690 OFFCURVE",
"452 690 CURVE SMOOTH",
"420 690 OFFCURVE",
"356 665 OFFCURVE",
"299 618 CURVE SMOOTH",
"249 577 OFFCURVE",
"214 529 OFFCURVE",
"190 486 CURVE SMOOTH",
"170 451 OFFCURVE",
"141 385 OFFCURVE",
"141 358 CURVE SMOOTH",
"141 343 OFFCURVE",
"147 329 OFFCURVE",
"165 329 CURVE SMOOTH"
);
}
);
width = 682;
}
);
leftKerningGroup = tlPA;
rightKerningGroup = tlPA;
unicode = 0C2B;
},
{
color = 6;
glyphname = tlBA;
lastChange = "2016-01-01 05:46:51 +0000";
layers = (
{
anchors = (
{
name = bottom;
position = "{356, 0}";
}
);
layerId = "59118767-2CA9-48AA-9373-694D24C960D8";
name = Regular;
paths = (
{
closed = 1;
nodes = (
"194 -50 OFFCURVE",
"260 -19 OFFCURVE",
"321 47 CURVE",
"353 1 OFFCURVE",
"408 -12 OFFCURVE",
"451 -12 CURVE SMOOTH",
"583 -12 OFFCURVE",
"687 115 OFFCURVE",
"687 287 CURVE SMOOTH",
"687 397 OFFCURVE",
"639 523 OFFCURVE",
"582 523 CURVE SMOOTH",
"546 523 OFFCURVE",
"507 471 OFFCURVE",
"507 438 CURVE SMOOTH",
"507 424 OFFCURVE",
"514 420 OFFCURVE",
"520 414 CURVE SMOOTH",
"583 348 OFFCURVE",
"614 279 OFFCURVE",
"614 226 CURVE SMOOTH",
"614 139 OFFCURVE",
"554 90 OFFCURVE",
"489 90 CURVE SMOOTH",
"446 90 OFFCURVE",
"406 113 OFFCURVE",
"383 157 CURVE SMOOTH",
"377 168 OFFCURVE",
"371 173 OFFCURVE",
"362 173 CURVE SMOOTH",
"350 173 OFFCURVE",
"344 167 OFFCURVE",
"325 143 CURVE SMOOTH",
"302 112 OFFCURVE",
"257 54 OFFCURVE",
"211 54 CURVE SMOOTH",
"186 54 OFFCURVE",
"175 70 OFFCURVE",
"175 100 CURVE SMOOTH",
"175 202 OFFCURVE",
"307 290 OFFCURVE",
"307 420 CURVE SMOOTH",
"307 474 OFFCURVE",
"284 523 OFFCURVE",
"217 523 CURVE SMOOTH",
"109 523 OFFCURVE",
"40 405 OFFCURVE",
"40 315 CURVE SMOOTH",
"40 258 OFFCURVE",
"67 212 OFFCURVE",
"127 212 CURVE SMOOTH",
"138 212 OFFCURVE",
"149 213 OFFCURVE",
"159 217 CURVE",
"119 157 OFFCURVE",
"70 93 OFFCURVE",
"70 29 CURVE SMOOTH",
"70 -18 OFFCURVE",
"97 -50 OFFCURVE",
"146 -50 CURVE SMOOTH"
);
},
{
closed = 1;
nodes = (
"132 287 OFFCURVE",
"111 325 OFFCURVE",
"111 363 CURVE SMOOTH",
"111 399 OFFCURVE",
"131 435 OFFCURVE",
"168 435 CURVE SMOOTH",
"193 435 OFFCURVE",
"217 412 OFFCURVE",
"217 361 CURVE SMOOTH",
"217 336 OFFCURVE",
"211 313 OFFCURVE",
"202 292 CURVE",
"193 288 OFFCURVE",
"184 287 OFFCURVE",
"176 287 CURVE SMOOTH"
);
}
);
width = 712;
}
);
leftKerningGroup = tlO;
leftMetricsKey = tlO;
rightKerningGroup = tlDA;
rightMetricsKey = tlDA;
unicode = 0C2C;
},
{
color = 6;
glyphname = tlBHA;
lastChange = "2016-01-01 05:46:51 +0000";
layers = (
{
anchors = (
{
name = bottom;
position = "{361, -190}";
}
);
layerId = "59118767-2CA9-48AA-9373-694D24C960D8";
name = Regular;
paths = (
{
closed = 1;
nodes = (
"193 -50 OFFCURVE",
"258 -20 OFFCURVE",
"318 44 CURVE",
"341 5 OFFCURVE",
"382 -13 OFFCURVE",
"426 -13 CURVE SMOOTH",
"565 -13 OFFCURVE",
"698 152 OFFCURVE",
"698 302 CURVE SMOOTH",
"698 399 OFFCURVE",
"642 462 OFFCURVE",
"541 462 CURVE SMOOTH",
"515 462 OFFCURVE",
"485 458 OFFCURVE",
"453 449 CURVE",
"469 473 OFFCURVE",
"488 497 OFFCURVE",
"512 517 CURVE SMOOTH",
"584 579 OFFCURVE",
"637 558 OFFCURVE",
"653 574 CURVE SMOOTH",
"662 583 OFFCURVE",
"692 636 OFFCURVE",
"692 666 CURVE SMOOTH",
"692 680 OFFCURVE",
"686 690 OFFCURVE",
"667 690 CURVE SMOOTH",
"634 690 OFFCURVE",
"584 661 OFFCURVE",
"535 618 CURVE SMOOTH",
"463 555 OFFCURVE",
"410 478 OFFCURVE",
"380 422 CURVE SMOOTH",
"372 408 OFFCURVE",
"366 389 OFFCURVE",
"366 374 CURVE SMOOTH",
"366 359 OFFCURVE",
"372 348 OFFCURVE",
"384 348 CURVE SMOOTH",
"395 348 OFFCURVE",
"441 358 OFFCURVE",
"475 358 CURVE SMOOTH",
"550 358 OFFCURVE",
"601 308 OFFCURVE",
"601 236 CURVE SMOOTH",
"601 163 OFFCURVE",
"555 83 OFFCURVE",
"477 83 CURVE SMOOTH",
"441 83 OFFCURVE",
"397 101 OFFCURVE",
"382 150 CURVE SMOOTH",
"378 163 OFFCURVE",
"374 173 OFFCURVE",
"362 173 CURVE SMOOTH",
"350 173 OFFCURVE",
"344 167 OFFCURVE",
"325 143 CURVE SMOOTH",
"302 112 OFFCURVE",
"257 54 OFFCURVE",
"211 54 CURVE SMOOTH",
"186 54 OFFCURVE",
"175 70 OFFCURVE",
"175 100 CURVE SMOOTH",
"175 202 OFFCURVE",
"307 290 OFFCURVE",
"307 420 CURVE SMOOTH",
"307 474 OFFCURVE",
"284 523 OFFCURVE",
"217 523 CURVE SMOOTH",
"109 523 OFFCURVE",
"40 405 OFFCURVE",
"40 315 CURVE SMOOTH",
"40 258 OFFCURVE",
"67 212 OFFCURVE",
"127 212 CURVE SMOOTH",
"138 212 OFFCURVE",
"149 213 OFFCURVE",
"159 217 CURVE",
"119 157 OFFCURVE",
"70 93 OFFCURVE",
"70 29 CURVE SMOOTH",
"70 -18 OFFCURVE",
"97 -50 OFFCURVE",
"146 -50 CURVE SMOOTH"
);
},
{
closed = 1;
nodes = (
"329 -192 OFFCURVE",
"348 -158 OFFCURVE",
"348 -125 CURVE SMOOTH",
"348 -98 OFFCURVE",
"335 -9 OFFCURVE",
"314 -9 CURVE SMOOTH",
"293 -9 OFFCURVE",
"243 -95 OFFCURVE",
"243 -139 CURVE SMOOTH",
"243 -158 OFFCURVE",
"253 -192 OFFCURVE",
"291 -192 CURVE SMOOTH"
);
},
{
closed = 1;
nodes = (
"132 287 OFFCURVE",
"111 325 OFFCURVE",
"111 363 CURVE SMOOTH",
"111 399 OFFCURVE",
"131 435 OFFCURVE",
"168 435 CURVE SMOOTH",
"193 435 OFFCURVE",
"217 412 OFFCURVE",
"217 361 CURVE SMOOTH",
"217 336 OFFCURVE",
"211 313 OFFCURVE",
"202 292 CURVE",
"193 288 OFFCURVE",
"184 287 OFFCURVE",
"176 287 CURVE SMOOTH"
);
}
);
width = 723;
}
);
leftKerningGroup = tlO;
leftMetricsKey = tlO;
rightKerningGroup = tlBHA;
unicode = 0C2D;
},
{
color = 6;
glyphname = tlMA;
lastChange = "2016-01-01 05:46:51 +0000";
layers = (
{
anchors = (
{
name = bottom;
position = "{463, 0}";
}
);
layerId = "59118767-2CA9-48AA-9373-694D24C960D8";
name = Regular;
paths = (
{
closed = 1;
nodes = (
"162 -50 OFFCURVE",
"224 -12 OFFCURVE",
"267 38 CURVE",
"291 4 OFFCURVE",
"333 -13 OFFCURVE",
"374 -13 CURVE SMOOTH",
"430 -13 OFFCURVE",
"478 9 OFFCURVE",
"516 43 CURVE",
"550 0 OFFCURVE",
"607 -12 OFFCURVE",
"648 -12 CURVE SMOOTH",
"780 -12 OFFCURVE",
"907 103 OFFCURVE",
"907 267 CURVE SMOOTH",
"907 377 OFFCURVE",
"854 464 OFFCURVE",
"797 464 CURVE SMOOTH",
"761 464 OFFCURVE",
"722 412 OFFCURVE",
"722 379 CURVE SMOOTH",
"722 365 OFFCURVE",
"729 360 OFFCURVE",
"735 355 CURVE SMOOTH",
"770 326 OFFCURVE",
"823 292 OFFCURVE",
"823 211 CURVE SMOOTH",
"823 117 OFFCURVE",
"757 85 OFFCURVE",
"691 85 CURVE SMOOTH",
"651 85 OFFCURVE",
"606 98 OFFCURVE",
"584 139 CURVE",
"597 168 OFFCURVE",
"603 198 OFFCURVE",
"603 227 CURVE SMOOTH",
"603 347 OFFCURVE",
"546 461 OFFCURVE",
"375 461 CURVE SMOOTH",
"314 461 OFFCURVE",
"232 446 OFFCURVE",
"150 412 CURVE",
"169 447 OFFCURVE",
"195 486 OFFCURVE",
"231 517 CURVE SMOOTH",
"303 579 OFFCURVE",
"356 558 OFFCURVE",
"372 574 CURVE SMOOTH",
"381 583 OFFCURVE",
"411 636 OFFCURVE",
"411 666 CURVE SMOOTH",
"411 680 OFFCURVE",
"405 690 OFFCURVE",
"385 690 CURVE SMOOTH",
"353 690 OFFCURVE",
"289 665 OFFCURVE",
"232 618 CURVE SMOOTH",
"182 577 OFFCURVE",
"147 529 OFFCURVE",
"123 486 CURVE SMOOTH",
"103 451 OFFCURVE",
"74 385 OFFCURVE",
"74 358 CURVE SMOOTH",
"74 332 OFFCURVE",
"88 306 OFFCURVE",
"112 306 CURVE SMOOTH",
"133 306 OFFCURVE",
"219 358 OFFCURVE",
"328 358 CURVE SMOOTH",
"376 358 OFFCURVE",
"417 343 OFFCURVE",
"450 320 CURVE SMOOTH",
"499 285 OFFCURVE",
"528 232 OFFCURVE",
"528 180 CURVE SMOOTH",
"528 117 OFFCURVE",
"478 84 OFFCURVE",
"427 84 CURVE SMOOTH",
"383 84 OFFCURVE",
"337 109 OFFCURVE",
"321 160 CURVE",
"321 214 OFFCURVE",
"289 253 OFFCURVE",
"234 253 CURVE SMOOTH",
"108 253 OFFCURVE",
"15 135 OFFCURVE",
"15 38 CURVE SMOOTH",
"15 -24 OFFCURVE",
"56 -50 OFFCURVE",
"106 -50 CURVE SMOOTH"
);
},
{
closed = 1;
nodes = (
"121 46 OFFCURVE",
"100 66 OFFCURVE",
"100 88 CURVE SMOOTH",
"100 135 OFFCURVE",
"146 158 OFFCURVE",
"188 158 CURVE SMOOTH",
"213 158 OFFCURVE",
"239 149 OFFCURVE",
"256 132 CURVE",
"246 85 OFFCURVE",
"203 46 OFFCURVE",
"155 46 CURVE SMOOTH"
);
}
);
width = 927;
}
);
leftKerningGroup = tlVA;
leftMetricsKey = tlVA;
rightKerningGroup = tlJHA;
rightMetricsKey = tlJHA;
unicode = 0C2E;
},
{
color = 6;
glyphname = tlYA;
lastChange = "2016-01-01 05:46:51 +0000";
layers = (
{
anchors = (
{
name = bottom;
position = "{535, 0}";
}
);
guideLines = (
{
position = "{43, 49}";
}
);
layerId = "59118767-2CA9-48AA-9373-694D24C960D8";
name = Regular;
paths = (
{
closed = 1;
nodes = (
"246 -16 OFFCURVE",
"306 13 OFFCURVE",
"353 55 CURVE",
"386 8 OFFCURVE",
"434 -13 OFFCURVE",
"486 -13 CURVE SMOOTH",
"542 -13 OFFCURVE",
"602 12 OFFCURVE",
"652 54 CURVE",
"685 2 OFFCURVE",
"747 -12 OFFCURVE",
"792 -12 CURVE SMOOTH",
"924 -12 OFFCURVE",
"1051 103 OFFCURVE",
"1051 267 CURVE SMOOTH",
"1051 377 OFFCURVE",
"998 464 OFFCURVE",
"941 464 CURVE SMOOTH",
"905 464 OFFCURVE",
"866 412 OFFCURVE",
"866 379 CURVE SMOOTH",
"866 365 OFFCURVE",
"873 359 OFFCURVE",
"879 355 CURVE SMOOTH",
"917 330 OFFCURVE",
"967 292 OFFCURVE",
"967 211 CURVE SMOOTH",
"967 117 OFFCURVE",
"901 85 OFFCURVE",
"835 85 CURVE SMOOTH",
"793 85 OFFCURVE",
"748 99 OFFCURVE",
"727 142 CURVE",
"754 189 OFFCURVE",
"771 243 OFFCURVE",
"771 301 CURVE SMOOTH",
"771 399 OFFCURVE",
"699 450 OFFCURVE",
"625 450 CURVE SMOOTH",
"620 450 OFFCURVE",
"614 450 OFFCURVE",
"609 449 CURVE",
"625 473 OFFCURVE",
"644 497 OFFCURVE",
"668 517 CURVE SMOOTH",
"740 579 OFFCURVE",
"793 558 OFFCURVE",
"809 574 CURVE SMOOTH",
"818 583 OFFCURVE",
"848 636 OFFCURVE",
"848 666 CURVE SMOOTH",
"848 680 OFFCURVE",
"842 690 OFFCURVE",
"823 690 CURVE SMOOTH",
"790 690 OFFCURVE",
"740 661 OFFCURVE",
"691 618 CURVE SMOOTH",
"619 555 OFFCURVE",
"566 478 OFFCURVE",
"536 422 CURVE SMOOTH",
"528 408 OFFCURVE",
"522 389 OFFCURVE",
"522 374 CURVE SMOOTH",
"522 360 OFFCURVE",
"528 348 OFFCURVE",
"539 348 CURVE SMOOTH",
"547 348 OFFCURVE",
"556 350 OFFCURVE",
"566 350 CURVE SMOOTH",
"621 350 OFFCURVE",
"683 328 OFFCURVE",
"683 235 CURVE SMOOTH",
"683 141 OFFCURVE",
"602 82 OFFCURVE",
"525 82 CURVE SMOOTH",
"482 82 OFFCURVE",
"442 101 OFFCURVE",
"423 144 CURVE",
"453 196 OFFCURVE",
"469 253 OFFCURVE",
"469 302 CURVE SMOOTH",
"469 414 OFFCURVE",
"397 462 OFFCURVE",
"301 462 CURVE SMOOTH",
"269 462 OFFCURVE",
"234 457 OFFCURVE",
"198 447 CURVE SMOOTH",
"163 436 OFFCURVE",
"116 378 OFFCURVE",
"116 352 CURVE SMOOTH",
"116 344 OFFCURVE",
"120 339 OFFCURVE",
"130 339 CURVE SMOOTH",
"133 339 OFFCURVE",
"137 340 OFFCURVE",
"142 341 CURVE",
"68 277 OFFCURVE",
"36 199 OFFCURVE",
"36 125 CURVE SMOOTH",
"36 29 OFFCURVE",
"89 -16 OFFCURVE",
"176 -16 CURVE SMOOTH"
);
},
{
closed = 1;
nodes = (
"155 90 OFFCURVE",
"115 132 OFFCURVE",
"115 185 CURVE SMOOTH",
"115 236 OFFCURVE",
"160 307 OFFCURVE",
"214 352 CURVE",
"229 353 OFFCURVE",
"245 356 OFFCURVE",
"260 356 CURVE SMOOTH",
"349 356 OFFCURVE",
"383 306 OFFCURVE",
"383 239 CURVE SMOOTH",
"383 126 OFFCURVE",
"285 90 OFFCURVE",
"223 90 CURVE SMOOTH"
);
}
);
width = 1071;
}
);
leftKerningGroup = tlYA;
rightKerningGroup = tlJHA;
rightMetricsKey = tlJHA;
unicode = 0C2F;
},
{
color = 6;
glyphname = tlRA;
lastChange = "2016-01-01 05:46:51 +0000";
layers = (
{
anchors = (
{
name = bottom;
position = "{264, 0}";
}
);
layerId = "59118767-2CA9-48AA-9373-694D24C960D8";
name = Regular;
paths = (
{
closed = 1;
nodes = (
"366 -13 OFFCURVE",
"499 153 OFFCURVE",
"499 300 CURVE SMOOTH",
"499 416 OFFCURVE",
"415 462 OFFCURVE",
"320 462 CURVE SMOOTH",
"254 462 OFFCURVE",
"180 440 OFFCURVE",
"126 414 CURVE",
"145 448 OFFCURVE",
"171 486 OFFCURVE",
"207 517 CURVE SMOOTH",
"279 579 OFFCURVE",
"332 558 OFFCURVE",
"348 574 CURVE SMOOTH",
"357 583 OFFCURVE",
"387 636 OFFCURVE",
"387 666 CURVE SMOOTH",
"387 680 OFFCURVE",
"381 690 OFFCURVE",
"361 690 CURVE SMOOTH",
"329 690 OFFCURVE",
"265 665 OFFCURVE",
"208 618 CURVE SMOOTH",
"133 557 OFFCURVE",
"50 422 OFFCURVE",
"50 350 CURVE SMOOTH",
"50 333 OFFCURVE",
"56 310 OFFCURVE",
"70 310 CURVE SMOOTH",
"82 310 OFFCURVE",
"109 325 OFFCURVE",
"149 338 CURVE",
"88 286 OFFCURVE",
"51 207 OFFCURVE",
"51 131 CURVE SMOOTH",
"51 52 OFFCURVE",
"91 -13 OFFCURVE",
"197 -13 CURVE SMOOTH"
);
},
{
closed = 1;
nodes = (
"171 90 OFFCURVE",
"139 129 OFFCURVE",
"139 183 CURVE SMOOTH",
"139 240 OFFCURVE",
"175 304 OFFCURVE",
"240 356 CURVE",
"247 357 OFFCURVE",
"255 357 OFFCURVE",
"262 357 CURVE SMOOTH",
"345 357 OFFCURVE",
"413 326 OFFCURVE",
"413 239 CURVE SMOOTH",
"413 131 OFFCURVE",
"307 90 OFFCURVE",
"238 90 CURVE SMOOTH"
);
}
);
width = 529;
}
);
leftKerningGroup = tlRA;
rightKerningGroup = tlRA;
unicode = 0C30;
},
{
color = 6;
glyphname = tlLA;
lastChange = "2016-01-01 05:46:49 +0000";
layers = (
{
anchors = (
{
name = bottom;
position = "{330, 0}";
}
);
layerId = "59118767-2CA9-48AA-9373-694D24C960D8";
name = Regular;
paths = (
{
closed = 1;
nodes = (
"438 -15 OFFCURVE",
"636 93 OFFCURVE",
"636 318 CURVE SMOOTH",
"636 430 OFFCURVE",
"589 536 OFFCURVE",
"530 536 CURVE SMOOTH",
"497 536 OFFCURVE",
"450 489 OFFCURVE",
"450 460 CURVE SMOOTH",
"450 445 OFFCURVE",
"462 435 OFFCURVE",
"478 420 CURVE SMOOTH",
"536 366 OFFCURVE",
"554 304 OFFCURVE",
"554 267 CURVE SMOOTH",
"554 143 OFFCURVE",
"436 81 OFFCURVE",
"324 81 CURVE SMOOTH",
"228 81 OFFCURVE",
"137 128 OFFCURVE",
"137 222 CURVE SMOOTH",
"137 264 OFFCURVE",
"160 316 OFFCURVE",
"191 346 CURVE SMOOTH",
"211 366 OFFCURVE",
"236 381 OFFCURVE",
"264 381 CURVE SMOOTH",
"299 381 OFFCURVE",
"318 356 OFFCURVE",
"318 331 CURVE SMOOTH",
"318 303 OFFCURVE",
"294 268 OFFCURVE",
"244 251 CURVE SMOOTH",
"230 246 OFFCURVE",
"216 235 OFFCURVE",
"216 221 CURVE SMOOTH",
"216 205 OFFCURVE",
"233 190 OFFCURVE",
"257 190 CURVE SMOOTH",
"318 190 OFFCURVE",
"425 263 OFFCURVE",
"425 354 CURVE SMOOTH",
"425 416 OFFCURVE",
"381 460 OFFCURVE",
"310 460 CURVE SMOOTH",
"170 460 OFFCURVE",
"40 312 OFFCURVE",
"40 173 CURVE SMOOTH",
"40 54 OFFCURVE",
"142 -15 OFFCURVE",
"272 -15 CURVE SMOOTH"
);
}
);
width = 661;
}
);
leftKerningGroup = tlLA;
rightKerningGroup = tlLA;
unicode = 0C32;
},
{
color = 6;
glyphname = tlVA;
lastChange = "2016-01-01 05:46:51 +0000";
layers = (
{
anchors = (
{
name = bottom;
position = "{314, 0}";
}
);
layerId = "59118767-2CA9-48AA-9373-694D24C960D8";
name = Regular;
paths = (
{
closed = 1;
nodes = (
"162 -50 OFFCURVE",
"224 -12 OFFCURVE",
"267 38 CURVE",
"291 4 OFFCURVE",
"333 -13 OFFCURVE",
"374 -13 CURVE SMOOTH",
"509 -13 OFFCURVE",
"603 117 OFFCURVE",
"603 227 CURVE SMOOTH",
"603 347 OFFCURVE",
"546 461 OFFCURVE",
"375 461 CURVE SMOOTH",
"314 461 OFFCURVE",
"232 446 OFFCURVE",
"150 412 CURVE",
"169 447 OFFCURVE",
"195 486 OFFCURVE",
"231 517 CURVE SMOOTH",
"303 579 OFFCURVE",
"356 558 OFFCURVE",
"372 574 CURVE SMOOTH",
"381 583 OFFCURVE",
"411 636 OFFCURVE",
"411 666 CURVE SMOOTH",
"411 680 OFFCURVE",
"405 690 OFFCURVE",
"385 690 CURVE SMOOTH",
"353 690 OFFCURVE",
"289 665 OFFCURVE",
"232 618 CURVE SMOOTH",
"182 577 OFFCURVE",
"147 529 OFFCURVE",
"123 486 CURVE SMOOTH",
"103 451 OFFCURVE",
"74 385 OFFCURVE",
"74 358 CURVE SMOOTH",
"74 332 OFFCURVE",
"88 306 OFFCURVE",
"112 306 CURVE SMOOTH",
"133 306 OFFCURVE",
"219 358 OFFCURVE",
"328 358 CURVE SMOOTH",
"376 358 OFFCURVE",
"417 343 OFFCURVE",
"450 320 CURVE SMOOTH",
"499 285 OFFCURVE",
"528 232 OFFCURVE",
"528 180 CURVE SMOOTH",
"528 117 OFFCURVE",
"478 84 OFFCURVE",
"427 84 CURVE SMOOTH",
"383 84 OFFCURVE",
"337 109 OFFCURVE",
"321 160 CURVE",
"321 214 OFFCURVE",
"289 253 OFFCURVE",
"234 253 CURVE SMOOTH",
"108 253 OFFCURVE",
"15 135 OFFCURVE",
"15 38 CURVE SMOOTH",
"15 -24 OFFCURVE",
"56 -50 OFFCURVE",
"106 -50 CURVE SMOOTH"
);
},
{
closed = 1;
nodes = (
"121 46 OFFCURVE",
"100 66 OFFCURVE",
"100 88 CURVE SMOOTH",
"100 135 OFFCURVE",
"146 158 OFFCURVE",
"188 158 CURVE SMOOTH",
"213 158 OFFCURVE",
"239 149 OFFCURVE",
"256 132 CURVE",
"246 85 OFFCURVE",
"203 46 OFFCURVE",
"155 46 CURVE SMOOTH"
);
}
);
width = 628;
}
);
leftKerningGroup = tlVA;
rightKerningGroup = tlDA;
rightMetricsKey = tlDA;
unicode = 0C35;
},
{
color = 6;
glyphname = tlSHA;
lastChange = "2016-01-01 05:46:52 +0000";
layers = (
{
anchors = (
{
name = bottom;
position = "{304, -28}";
}
);
layerId = "59118767-2CA9-48AA-9373-694D24C960D8";
name = Regular;
paths = (
{
closed = 1;
nodes = (
"488 -30 OFFCURVE",
"588 77 OFFCURVE",
"588 177 CURVE SMOOTH",
"588 277 OFFCURVE",
"500 320 OFFCURVE",
"391 325 CURVE",
"395 348 OFFCURVE",
"398 369 OFFCURVE",
"398 387 CURVE SMOOTH",
"398 442 OFFCURVE",
"365 462 OFFCURVE",
"318 462 CURVE SMOOTH",
"308 462 OFFCURVE",
"299 461 OFFCURVE",
"289 459 CURVE",
"306 486 OFFCURVE",
"327 514 OFFCURVE",
"354 537 CURVE SMOOTH",
"426 599 OFFCURVE",
"479 578 OFFCURVE",
"495 594 CURVE SMOOTH",
"504 603 OFFCURVE",
"534 656 OFFCURVE",
"534 686 CURVE SMOOTH",
"534 700 OFFCURVE",
"528 710 OFFCURVE",
"508 710 CURVE SMOOTH",
"476 710 OFFCURVE",
"412 685 OFFCURVE",
"355 638 CURVE SMOOTH",
"269 567 OFFCURVE",
"200 434 OFFCURVE",
"200 390 CURVE SMOOTH",
"200 375 OFFCURVE",
"205 364 OFFCURVE",
"219 364 CURVE SMOOTH",
"230 364 OFFCURVE",
"245 369 OFFCURVE",
"268 369 CURVE SMOOTH",
"300 369 OFFCURVE",
"336 359 OFFCURVE",
"336 324 CURVE",
"240 319 OFFCURVE",
"145 290 OFFCURVE",
"84 235 CURVE SMOOTH",
"43 198 OFFCURVE",
"15 149 OFFCURVE",
"15 87 CURVE SMOOTH",
"15 26 OFFCURVE",
"55 -29 OFFCURVE",
"110 -29 CURVE SMOOTH",
"152 -29 OFFCURVE",
"181 18 OFFCURVE",
"181 47 CURVE SMOOTH",
"181 58 OFFCURVE",
"177 68 OFFCURVE",
"167 68 CURVE SMOOTH",
"132 68 OFFCURVE",
"92 81 OFFCURVE",
"92 121 CURVE SMOOTH",
"92 150 OFFCURVE",
"110 173 OFFCURVE",
"134 190 CURVE SMOOTH",
"176 220 OFFCURVE",
"243 233 OFFCURVE",
"303 233 CURVE",
"278 183 OFFCURVE",
"247 124 OFFCURVE",
"247 73 CURVE SMOOTH",
"247 13 OFFCURVE",
"289 -30 OFFCURVE",
"364 -30 CURVE SMOOTH"
);
},
{
closed = 1;
nodes = (
"386 58 OFFCURVE",
"349 77 OFFCURVE",
"349 118 CURVE SMOOTH",
"349 143 OFFCURVE",
"358 183 OFFCURVE",
"369 227 CURVE",
"438 213 OFFCURVE",
"500 179 OFFCURVE",
"500 125 CURVE SMOOTH",
"500 87 OFFCURVE",
"461 58 OFFCURVE",
"420 58 CURVE SMOOTH"
);
}
);
width = 608;
}
);
leftKerningGroup = tlSHA;
leftMetricsKey = tlPA;
rightKerningGroup = tlLLA;
unicode = 0C36;
},
{
color = 6;
glyphname = tlSSA;
lastChange = "2016-01-01 05:46:52 +0000";
layers = (
{
anchors = (
{
name = bottom;
position = "{351, -130}";
}
);
layerId = "59118767-2CA9-48AA-9373-694D24C960D8";
name = Regular;
paths = (
{
closed = 1;
nodes = (
"556 -124 OFFCURVE",
"564 -122 OFFCURVE",
"574 -119 CURVE SMOOTH",
"628 -103 OFFCURVE",
"626 -89 OFFCURVE",
"630 18 CURVE SMOOTH",
"632 56 OFFCURVE",
"632 100 OFFCURVE",
"632 141 CURVE",
"648 173 OFFCURVE",
"657 207 OFFCURVE",
"657 241 CURVE SMOOTH",
"657 368 OFFCURVE",
"532 462 OFFCURVE",
"459 462 CURVE SMOOTH",
"418 462 OFFCURVE",
"377 421 OFFCURVE",
"377 383 CURVE SMOOTH",
"377 373 OFFCURVE",
"382 367 OFFCURVE",
"390 364 CURVE SMOOTH",
"418 353 OFFCURVE",
"578 317 OFFCURVE",
"578 192 CURVE SMOOTH",
"578 113 OFFCURVE",
"514 83 OFFCURVE",
"453 83 CURVE SMOOTH",
"389 83 OFFCURVE",
"336 116 OFFCURVE",
"321 170 CURVE",
"316 222 OFFCURVE",
"287 253 OFFCURVE",
"228 253 CURVE SMOOTH",
"112 253 OFFCURVE",
"15 135 OFFCURVE",
"15 39 CURVE SMOOTH",
"15 -24 OFFCURVE",
"56 -50 OFFCURVE",
"104 -50 CURVE SMOOTH",
"164 -50 OFFCURVE",
"227 -10 OFFCURVE",
"270 41 CURVE",
"291 11 OFFCURVE",
"332 -14 OFFCURVE",
"391 -14 CURVE SMOOTH",
"440 -14 OFFCURVE",
"488 3 OFFCURVE",
"527 26 CURVE",
"524 4 OFFCURVE",
"524 -23 OFFCURVE",
"524 -53 CURVE SMOOTH",
"524 -107 OFFCURVE",
"530 -124 OFFCURVE",
"549 -124 CURVE SMOOTH"
);
},
{
closed = 1;
nodes = (
"126 46 OFFCURVE",
"100 60 OFFCURVE",
"100 91 CURVE SMOOTH",
"100 132 OFFCURVE",
"145 158 OFFCURVE",
"188 158 CURVE SMOOTH",
"213 158 OFFCURVE",
"239 149 OFFCURVE",
"256 132 CURVE",
"246 85 OFFCURVE",
"203 46 OFFCURVE",
"155 46 CURVE SMOOTH"
);
},
{
closed = 1;
nodes = (
"175 329 OFFCURVE",
"178 333 OFFCURVE",
"182 342 CURVE SMOOTH",
"199 377 OFFCURVE",
"234 462 OFFCURVE",
"298 517 CURVE SMOOTH",
"370 579 OFFCURVE",
"423 558 OFFCURVE",
"439 574 CURVE SMOOTH",
"448 583 OFFCURVE",
"478 636 OFFCURVE",
"478 666 CURVE SMOOTH",
"478 680 OFFCURVE",
"472 690 OFFCURVE",
"452 690 CURVE SMOOTH",
"420 690 OFFCURVE",
"356 665 OFFCURVE",
"299 618 CURVE SMOOTH",
"196 533 OFFCURVE",
"154 413 OFFCURVE",
"145 382 CURVE SMOOTH",
"143 375 OFFCURVE",
"141 366 OFFCURVE",
"141 358 CURVE SMOOTH",
"141 343 OFFCURVE",
"147 329 OFFCURVE",
"165 329 CURVE SMOOTH"
);
}
);
width = 702;
}
);
leftKerningGroup = tlPA;
leftMetricsKey = tlPA;
rightKerningGroup = tlSSA;
unicode = 0C37;
},
{
color = 6;
glyphname = tlSA;
lastChange = "2016-01-01 05:46:51 +0000";
layers = (
{
anchors = (
{
name = bottom;
position = "{248, -191}";
}
);
guideLines = (
{
position = "{626, 664}";
}
);
layerId = "59118767-2CA9-48AA-9373-694D24C960D8";
name = Regular;
paths = (
{
closed = 1;
nodes = (
"109 -191 OFFCURVE",
"138 -143 OFFCURVE",
"138 -115 CURVE SMOOTH",
"138 -104 OFFCURVE",
"134 -95 OFFCURVE",
"124 -94 CURVE SMOOTH",
"101 -91 OFFCURVE",
"52 -83 OFFCURVE",
"52 -39 CURVE SMOOTH",
"52 -5 OFFCURVE",
"80 5 OFFCURVE",
"105 5 CURVE SMOOTH",
"137 5 OFFCURVE",
"206 -12 OFFCURVE",
"250 -12 CURVE SMOOTH",
"402 -12 OFFCURVE",
"487 124 OFFCURVE",
"487 251 CURVE SMOOTH",
"487 343 OFFCURVE",
"438 419 OFFCURVE",
"366 424 CURVE SMOOTH",
"329 426 OFFCURVE",
"288 376 OFFCURVE",
"288 346 CURVE SMOOTH",
"288 337 OFFCURVE",
"292 329 OFFCURVE",
"302 326 CURVE SMOOTH",
"383 301 OFFCURVE",
"410 243 OFFCURVE",
"410 191 CURVE SMOOTH",
"410 140 OFFCURVE",
"382 98 OFFCURVE",
"321 98 CURVE SMOOTH",
"287 98 OFFCURVE",
"188 109 OFFCURVE",
"153 109 CURVE SMOOTH",
"47 109 OFFCURVE",
"-25 5 OFFCURVE",
"-25 -77 CURVE SMOOTH",
"-25 -146 OFFCURVE",
"26 -191 OFFCURVE",
"67 -191 CURVE SMOOTH"
);
},
{
closed = 1;
nodes = (
"100 329 OFFCURVE",
"103 333 OFFCURVE",
"107 342 CURVE",
"122 371 OFFCURVE",
"155 458 OFFCURVE",
"223 517 CURVE SMOOTH",
"295 579 OFFCURVE",
"348 558 OFFCURVE",
"364 574 CURVE SMOOTH",
"373 583 OFFCURVE",
"403 636 OFFCURVE",
"403 666 CURVE SMOOTH",
"403 680 OFFCURVE",
"397 690 OFFCURVE",
"377 690 CURVE SMOOTH",
"345 690 OFFCURVE",
"281 665 OFFCURVE",
"224 618 CURVE SMOOTH",
"121 533 OFFCURVE",
"82 419 OFFCURVE",
"70 382 CURVE",
"68 375 OFFCURVE",
"66 366 OFFCURVE",
"66 358 CURVE SMOOTH",
"66 343 OFFCURVE",
"72 329 OFFCURVE",
"90 329 CURVE SMOOTH"
);
}
);
width = 517;
}
);
leftKerningGroup = tlSA;
leftMetricsKey = tlSA;
rightKerningGroup = tlJHA;
unicode = 0C38;
},
{
color = 6;
glyphname = tlHA;
lastChange = "2016-01-01 05:46:52 +0000";
layers = (
{
anchors = (
{
name = bottom;
position = "{341, 0}";
}
);
layerId = "59118767-2CA9-48AA-9373-694D24C960D8";
name = Regular;
paths = (
{
closed = 1;
nodes = (
"163 -50 OFFCURVE",
"227 -10 OFFCURVE",
"270 41 CURVE",
"291 11 OFFCURVE",
"331 -14 OFFCURVE",
"392 -14 CURVE SMOOTH",
"457 -14 OFFCURVE",
"542 14 OFFCURVE",
"592 73 CURVE SMOOTH",
"632 118 OFFCURVE",
"657 177 OFFCURVE",
"657 240 CURVE SMOOTH",
"657 290 OFFCURVE",
"630 349 OFFCURVE",
"578 376 CURVE",
"606 377 OFFCURVE",
"636 377 OFFCURVE",
"666 377 CURVE SMOOTH",
"717 377 OFFCURVE",
"769 376 OFFCURVE",
"819 372 CURVE",
"792 348 OFFCURVE",
"771 299 OFFCURVE",
"771 253 CURVE SMOOTH",
"771 193 OFFCURVE",
"799 161 OFFCURVE",
"856 161 CURVE SMOOTH",
"936 161 OFFCURVE",
"1012 246 OFFCURVE",
"1012 350 CURVE SMOOTH",
"1012 435 OFFCURVE",
"961 449 OFFCURVE",
"918 456 CURVE SMOOTH",
"863 464 OFFCURVE",
"738 469 OFFCURVE",
"626 469 CURVE SMOOTH",
"554 469 OFFCURVE",
"487 466 OFFCURVE",
"449 462 CURVE SMOOTH",
"415 458 OFFCURVE",
"377 415 OFFCURVE",
"377 384 CURVE SMOOTH",
"377 374 OFFCURVE",
"381 367 OFFCURVE",
"390 364 CURVE SMOOTH",
"488 334 OFFCURVE",
"578 292 OFFCURVE",
"578 184 CURVE SMOOTH",
"578 145 OFFCURVE",
"555 116 OFFCURVE",
"523 99 CURVE SMOOTH",
"501 88 OFFCURVE",
"476 83 OFFCURVE",
"452 83 CURVE SMOOTH",
"393 83 OFFCURVE",
"337 113 OFFCURVE",
"321 170 CURVE",
"317 219 OFFCURVE",
"286 253 OFFCURVE",
"234 253 CURVE SMOOTH",
"108 253 OFFCURVE",
"15 135 OFFCURVE",
"15 38 CURVE SMOOTH",
"15 -24 OFFCURVE",
"56 -50 OFFCURVE",
"106 -50 CURVE SMOOTH"
);
},
{
closed = 1;
nodes = (
"121 46 OFFCURVE",
"100 66 OFFCURVE",
"100 88 CURVE SMOOTH",
"100 135 OFFCURVE",
"146 158 OFFCURVE",
"188 158 CURVE SMOOTH",
"213 158 OFFCURVE",
"239 149 OFFCURVE",
"256 132 CURVE",
"246 85 OFFCURVE",
"203 46 OFFCURVE",
"155 46 CURVE SMOOTH"
);
},
{
closed = 1;
nodes = (
"175 329 OFFCURVE",
"178 333 OFFCURVE",
"182 342 CURVE",
"197 371 OFFCURVE",
"230 458 OFFCURVE",
"298 517 CURVE SMOOTH",
"370 579 OFFCURVE",
"423 558 OFFCURVE",
"439 574 CURVE SMOOTH",
"448 583 OFFCURVE",
"478 636 OFFCURVE",
"478 666 CURVE SMOOTH",
"478 680 OFFCURVE",
"472 690 OFFCURVE",
"452 690 CURVE SMOOTH",
"420 690 OFFCURVE",
"356 665 OFFCURVE",
"299 618 CURVE SMOOTH",
"196 533 OFFCURVE",
"157 419 OFFCURVE",
"145 382 CURVE",
"143 375 OFFCURVE",
"141 366 OFFCURVE",
"141 358 CURVE SMOOTH",
"141 343 OFFCURVE",
"147 329 OFFCURVE",
"165 329 CURVE SMOOTH"
);
},
{
closed = 1;
nodes = (
"855 257 OFFCURVE",
"841 276 OFFCURVE",
"841 297 CURVE SMOOTH",
"841 325 OFFCURVE",
"864 356 OFFCURVE",
"901 356 CURVE SMOOTH",
"931 356 OFFCURVE",
"945 335 OFFCURVE",
"945 312 CURVE SMOOTH",
"945 286 OFFCURVE",
"926 257 OFFCURVE",
"887 257 CURVE SMOOTH"
);
}
);
width = 1012;
}
);
leftKerningGroup = tlPA;
leftMetricsKey = tlPA;
rightKerningGroup = y145tlUU;
rightMetricsKey = tlUU;
unicode = 0C39;
},
{
color = 6;
glyphname = tlRRA;
lastChange = "2016-01-01 05:46:51 +0000";
layers = (
{
anchors = (
{
name = bottom;
position = "{422, 0}";
}
);
layerId = "59118767-2CA9-48AA-9373-694D24C960D8";
name = Regular;
paths = (
{
closed = 1;
nodes = (
"282 -16 OFFCURVE",
"336 9 OFFCURVE",
"383 47 CURVE",
"425 5 OFFCURVE",
"473 -12 OFFCURVE",
"524 -12 CURVE SMOOTH",
"673 -12 OFFCURVE",
"830 132 OFFCURVE",
"830 314 CURVE SMOOTH",
"830 438 OFFCURVE",
"758 489 OFFCURVE",
"683 489 CURVE SMOOTH",
"603 489 OFFCURVE",
"505 430 OFFCURVE",
"505 326 CURVE SMOOTH",
"505 315 OFFCURVE",
"506 308 OFFCURVE",
"508 301 CURVE",
"483 302 OFFCURVE",
"459 302 OFFCURVE",
"441 302 CURVE SMOOTH",
"417 302 OFFCURVE",
"390 302 OFFCURVE",
"364 301 CURVE",
"389 329 OFFCURVE",
"402 364 OFFCURVE",
"402 396 CURVE SMOOTH",
"402 444 OFFCURVE",
"372 484 OFFCURVE",
"306 484 CURVE SMOOTH",
"163 484 OFFCURVE",
"40 295 OFFCURVE",
"40 156 CURVE SMOOTH",
"40 52 OFFCURVE",
"109 -16 OFFCURVE",
"217 -16 CURVE SMOOTH"
);
},
{
closed = 1;
nodes = (
"186 80 OFFCURVE",
"131 124 OFFCURVE",
"131 207 CURVE SMOOTH",
"131 307 OFFCURVE",
"209 403 OFFCURVE",
"271 403 CURVE SMOOTH",
"296 403 OFFCURVE",
"308 387 OFFCURVE",
"308 361 CURVE SMOOTH",
"308 319 OFFCURVE",
"276 308 OFFCURVE",
"233 295 CURVE SMOOTH",
"192 282 OFFCURVE",
"173 228 OFFCURVE",
"173 217 CURVE SMOOTH",
"173 215 OFFCURVE",
"174 208 OFFCURVE",
"185 208 CURVE SMOOTH",
"198 208 OFFCURVE",
"272 217 OFFCURVE",
"404 217 CURVE SMOOTH",
"536 217 OFFCURVE",
"610 208 OFFCURVE",
"625 208 CURVE SMOOTH",
"661 208 OFFCURVE",
"700 262 OFFCURVE",
"700 278 CURVE SMOOTH",
"700 285 OFFCURVE",
"693 289 OFFCURVE",
"688 289 CURVE SMOOTH",
"636 289 OFFCURVE",
"581 292 OFFCURVE",
"581 343 CURVE SMOOTH",
"581 376 OFFCURVE",
"604 392 OFFCURVE",
"634 392 CURVE SMOOTH",
"679 392 OFFCURVE",
"741 354 OFFCURVE",
"741 262 CURVE SMOOTH",
"741 146 OFFCURVE",
"663 85 OFFCURVE",
"564 85 CURVE SMOOTH",
"515 85 OFFCURVE",
"469 107 OFFCURVE",
"441 163 CURVE SMOOTH",
"437 171 OFFCURVE",
"432 173 OFFCURVE",
"426 173 CURVE SMOOTH",
"414 173 OFFCURVE",
"407 166 OFFCURVE",
"395 152 CURVE SMOOTH",
"355 106 OFFCURVE",
"312 80 OFFCURVE",
"257 80 CURVE SMOOTH"
);
}
);
width = 845;
}
);
leftKerningGroup = tlLA;
leftMetricsKey = tlLA;
rightKerningGroup = tlA;
rightMetricsKey = tlA;
unicode = 0C31;
},
{
color = 6;
glyphname = tlLLA;
lastChange = "2016-01-01 05:46:51 +0000";
layers = (
{
anchors = (
{
name = bottom;
position = "{371, -28}";
}
);
layerId = "59118767-2CA9-48AA-9373-694D24C960D8";
name = Regular;
paths = (
{
closed = 1;
nodes = (
"623 -30 OFFCURVE",
"716 69 OFFCURVE",
"716 162 CURVE SMOOTH",
"716 262 OFFCURVE",
"642 296 OFFCURVE",
"527 296 CURVE",
"555 345 OFFCURVE",
"572 379 OFFCURVE",
"572 403 CURVE SMOOTH",
"572 437 OFFCURVE",
"546 471 OFFCURVE",
"491 482 CURVE",
"506 502 OFFCURVE",
"522 521 OFFCURVE",
"542 538 CURVE SMOOTH",
"614 600 OFFCURVE",
"667 579 OFFCURVE",
"683 595 CURVE SMOOTH",
"692 604 OFFCURVE",
"722 657 OFFCURVE",
"722 687 CURVE SMOOTH",
"722 701 OFFCURVE",
"716 711 OFFCURVE",
"697 711 CURVE SMOOTH",
"664 711 OFFCURVE",
"614 682 OFFCURVE",
"565 639 CURVE SMOOTH",
"503 586 OFFCURVE",
"402 461 OFFCURVE",
"402 415 CURVE SMOOTH",
"402 400 OFFCURVE",
"412 387 OFFCURVE",
"438 381 CURVE SMOOTH",
"463 375 OFFCURVE",
"477 363 OFFCURVE",
"477 344 CURVE SMOOTH",
"477 327 OFFCURVE",
"466 308 OFFCURVE",
"457 291 CURVE",
"417 289 OFFCURVE",
"371 286 OFFCURVE",
"316 286 CURVE SMOOTH",
"300 286 OFFCURVE",
"285 286 OFFCURVE",
"270 287 CURVE",
"300 331 OFFCURVE",
"317 378 OFFCURVE",
"317 420 CURVE SMOOTH",
"317 504 OFFCURVE",
"257 545 OFFCURVE",
"191 545 CURVE SMOOTH",
"87 545 OFFCURVE",
"20 449 OFFCURVE",
"20 354 CURVE SMOOTH",
"20 252 OFFCURVE",
"92 201 OFFCURVE",
"205 201 CURVE SMOOTH",
"263 201 OFFCURVE",
"335 205 OFFCURVE",
"418 206 CURVE",
"400 163 OFFCURVE",
"385 117 OFFCURVE",
"385 86 CURVE SMOOTH",
"385 7 OFFCURVE",
"450 -30 OFFCURVE",
"514 -30 CURVE SMOOTH"
);
},
{
closed = 1;
nodes = (
"146 307 OFFCURVE",
"97 335 OFFCURVE",
"97 395 CURVE SMOOTH",
"97 428 OFFCURVE",
"120 453 OFFCURVE",
"151 453 CURVE SMOOTH",
"188 453 OFFCURVE",
"227 412 OFFCURVE",
"227 356 CURVE SMOOTH",
"227 337 OFFCURVE",
"222 317 OFFCURVE",
"210 294 CURVE"
);
},
{
closed = 1;
nodes = (
"519 60 OFFCURVE",
"474 86 OFFCURVE",
"474 138 CURVE SMOOTH",
"474 158 OFFCURVE",
"479 181 OFFCURVE",
"488 207 CURVE",
"551 206 OFFCURVE",
"630 188 OFFCURVE",
"630 117 CURVE SMOOTH",
"630 79 OFFCURVE",
"597 60 OFFCURVE",
"561 60 CURVE SMOOTH"
);
}
);
width = 742;
}
);
leftKerningGroup = tlLLA;
rightKerningGroup = tlLLA;
unicode = 0C33;
},
{
color = 6;
glyphname = tlLLLA;
lastChange = "2016-01-01 05:46:49 +0000";
layers = (
{
anchors = (
{
name = bottom;
position = "{426, 0}";
}
);
layerId = "59118767-2CA9-48AA-9373-694D24C960D8";
name = Regular;
paths = (
{
closed = 1;
nodes = (
"272 -14 OFFCURVE",
"336 6 OFFCURVE",
"391 47 CURVE",
"433 5 OFFCURVE",
"481 -12 OFFCURVE",
"532 -12 CURVE SMOOTH",
"678 -12 OFFCURVE",
"838 130 OFFCURVE",
"838 314 CURVE SMOOTH",
"838 438 OFFCURVE",
"765 489 OFFCURVE",
"694 489 CURVE SMOOTH",
"604 489 OFFCURVE",
"503 408 OFFCURVE",
"503 294 CURVE SMOOTH",
"503 211 OFFCURVE",
"556 172 OFFCURVE",
"595 172 CURVE SMOOTH",
"637 172 OFFCURVE",
"666 219 OFFCURVE",
"666 248 CURVE SMOOTH",
"666 259 OFFCURVE",
"662 269 OFFCURVE",
"652 269 CURVE SMOOTH",
"619 269 OFFCURVE",
"580 281 OFFCURVE",
"580 329 CURVE SMOOTH",
"580 368 OFFCURVE",
"606 392 OFFCURVE",
"642 392 CURVE SMOOTH",
"687 392 OFFCURVE",
"749 354 OFFCURVE",
"749 262 CURVE SMOOTH",
"749 146 OFFCURVE",
"671 85 OFFCURVE",
"572 85 CURVE SMOOTH",
"523 85 OFFCURVE",
"477 106 OFFCURVE",
"450 161 CURVE SMOOTH",
"445 171 OFFCURVE",
"441 173 OFFCURVE",
"434 173 CURVE SMOOTH",
"422 173 OFFCURVE",
"415 166 OFFCURVE",
"403 152 CURVE SMOOTH",
"363 106 OFFCURVE",
"320 80 OFFCURVE",
"265 80 CURVE SMOOTH",
"194 80 OFFCURVE",
"137 128 OFFCURVE",
"137 207 CURVE SMOOTH",
"137 257 OFFCURVE",
"158 312 OFFCURVE",
"193 346 CURVE SMOOTH",
"213 366 OFFCURVE",
"238 381 OFFCURVE",
"266 381 CURVE SMOOTH",
"301 381 OFFCURVE",
"320 356 OFFCURVE",
"320 331 CURVE SMOOTH",
"320 303 OFFCURVE",
"296 268 OFFCURVE",
"246 251 CURVE SMOOTH",
"232 246 OFFCURVE",
"218 235 OFFCURVE",
"218 221 CURVE SMOOTH",
"218 205 OFFCURVE",
"235 190 OFFCURVE",
"259 190 CURVE SMOOTH",
"320 190 OFFCURVE",
"427 263 OFFCURVE",
"427 354 CURVE SMOOTH",
"427 416 OFFCURVE",
"383 460 OFFCURVE",
"312 460 CURVE SMOOTH",
"162 460 OFFCURVE",
"40 304 OFFCURVE",
"40 154 CURVE SMOOTH",
"40 41 OFFCURVE",
"119 -14 OFFCURVE",
"214 -14 CURVE SMOOTH"
);
}
);
width = 853;
}
);
leftKerningGroup = tlLA;
leftMetricsKey = tlLA;
rightKerningGroup = tlA;
rightMetricsKey = tlA;
unicode = 0C34;
},
{
color = 6;
glyphname = tlAnusvara;
lastChange = "2016-01-01 05:46:52 +0000";
layers = (
{
layerId = "59118767-2CA9-48AA-9373-694D24C960D8";
name = Regular;
paths = (
{
closed = 1;
nodes = (
"279 59 OFFCURVE",
"378 177 OFFCURVE",
"378 294 CURVE SMOOTH",
"378 353 OFFCURVE",
"352 420 OFFCURVE",
"248 420 CURVE SMOOTH",
"88 420 OFFCURVE",
"15 260 OFFCURVE",
"15 175 CURVE SMOOTH",
"15 161 OFFCURVE",
"17 146 OFFCURVE",
"33 146 CURVE SMOOTH",
"46 146 OFFCURVE",
"52 154 OFFCURVE",
"60 171 CURVE",
"60 100 OFFCURVE",
"99 59 OFFCURVE",
"165 59 CURVE SMOOTH"
);
},
{
closed = 1;
nodes = (
"139 164 OFFCURVE",
"100 197 OFFCURVE",
"100 252 CURVE",
"125 288 OFFCURVE",
"163 318 OFFCURVE",
"226 318 CURVE SMOOTH",
"293 318 OFFCURVE",
"309 284 OFFCURVE",
"309 255 CURVE SMOOTH",
"309 192 OFFCURVE",
"232 164 OFFCURVE",
"188 164 CURVE SMOOTH"
);
}
);
width = 423;
}
);
leftKerningGroup = tlAnuswara;
rightKerningGroup = tlVisarga;
rightMetricsKey = tlVisarga;
unicode = 0C02;
},
{
color = 6;
glyphname = tlArasunna;
lastChange = "2016-01-01 05:46:49 +0000";
layers = (
{
layerId = "59118767-2CA9-48AA-9373-694D24C960D8";
name = Regular;
paths = (
{
closed = 1;
nodes = (
"278 -15 OFFCURVE",
"315 3 OFFCURVE",
"327 29 CURVE SMOOTH",
"332 40 OFFCURVE",
"334 48 OFFCURVE",
"334 55 CURVE SMOOTH",
"334 72 OFFCURVE",
"319 79 OFFCURVE",
"288 79 CURVE SMOOTH",
"192 79 OFFCURVE",
"121 128 OFFCURVE",
"121 221 CURVE SMOOTH",
"121 316 OFFCURVE",
"212 380 OFFCURVE",
"279 403 CURVE SMOOTH",
"314 415 OFFCURVE",
"323 426 OFFCURVE",
"323 444 CURVE SMOOTH",
"323 455 OFFCURVE",
"316 464 OFFCURVE",
"294 464 CURVE SMOOTH",
"168 464 OFFCURVE",
"30 325 OFFCURVE",
"30 174 CURVE SMOOTH",
"30 46 OFFCURVE",
"124 -15 OFFCURVE",
"232 -15 CURVE SMOOTH"
);
}
);
width = 379;
}
);
leftKerningGroup = tlAnuswara;
rightKerningGroup = tlVisarga;
rightMetricsKey = tlVisarga;
unicode = 0C01;
},
{
color = 6;
glyphname = tlVisarga;
lastChange = "2016-01-01 05:46:52 +0000";
layers = (
{
layerId = "59118767-2CA9-48AA-9373-694D24C960D8";
name = Regular;
paths = (
{
closed = 1;
nodes = (
"202 20 OFFCURVE",
"272 100 OFFCURVE",
"272 180 CURVE SMOOTH",
"272 220 OFFCURVE",
"253 266 OFFCURVE",
"180 266 CURVE SMOOTH",
"67 266 OFFCURVE",
"15 157 OFFCURVE",
"15 99 CURVE SMOOTH",
"15 90 OFFCURVE",
"17 79 OFFCURVE",
"28 79 CURVE SMOOTH",
"37 79 OFFCURVE",
"41 85 OFFCURVE",
"47 96 CURVE",
"47 48 OFFCURVE",
"74 20 OFFCURVE",
"121 20 CURVE SMOOTH"
);
},
{
closed = 1;
nodes = (
"109 99 OFFCURVE",
"86 117 OFFCURVE",
"86 154 CURVE",
"104 174 OFFCURVE",
"127 189 OFFCURVE",
"162 189 CURVE SMOOTH",
"203 189 OFFCURVE",
"212 169 OFFCURVE",
"212 153 CURVE SMOOTH",
"212 116 OFFCURVE",
"166 99 OFFCURVE",
"139 99 CURVE SMOOTH"
);
},
{
closed = 1;
nodes = (
"206 310 OFFCURVE",
"267 382 OFFCURVE",
"267 458 CURVE SMOOTH",
"267 507 OFFCURVE",
"242 548 OFFCURVE",
"191 548 CURVE SMOOTH",
"107 548 OFFCURVE",
"45 471 OFFCURVE",
"45 388 CURVE SMOOTH",
"45 368 OFFCURVE",
"48 348 OFFCURVE",
"60 348 CURVE",
"67 349 OFFCURVE",
"71 349 OFFCURVE",
"76 365 CURVE",
"84 335 OFFCURVE",
"104 310 OFFCURVE",
"139 310 CURVE SMOOTH"
);
},
{
closed = 1;
nodes = (
"123 386 OFFCURVE",
"104 401 OFFCURVE",
"100 426 CURVE",
"117 456 OFFCURVE",
"143 473 OFFCURVE",
"177 473 CURVE SMOOTH",
"210 473 OFFCURVE",
"216 454 OFFCURVE",
"216 439 CURVE SMOOTH",
"216 411 OFFCURVE",
"177 386 OFFCURVE",
"147 386 CURVE SMOOTH"
);
}
);
width = 317;
}
);
leftKerningGroup = tlVisarga;
rightKerningGroup = tlVisarga;
unicode = 0C03;
},
{
color = 6;
glyphname = tlVirama;
production = uni0C4D;
lastChange = "2016-01-01 05:46:49 +0000";
layers = (
{
layerId = "59118767-2CA9-48AA-9373-694D24C960D8";
name = Regular;
paths = (
{
closed = 1;
nodes = (
"112 416 OFFCURVE",
"143 421 OFFCURVE",
"162 445 CURVE",
"170 456 OFFCURVE",
"174 467 OFFCURVE",
"174 480 CURVE SMOOTH",
"174 487 OFFCURVE",
"172 491 OFFCURVE",
"165 491 CURVE SMOOTH",
"134 491 LINE SMOOTH",
"96 491 OFFCURVE",
"76 503 OFFCURVE",
"76 521 CURVE SMOOTH",
"77 567 OFFCURVE",
"159 588 OFFCURVE",
"159 623 CURVE SMOOTH",
"159 636 OFFCURVE",
"146 637 OFFCURVE",
"135 641 CURVE SMOOTH",
"107 651 OFFCURVE",
"76 665 OFFCURVE",
"76 691 CURVE SMOOTH",
"76 731 OFFCURVE",
"145 737 OFFCURVE",
"208 736 CURVE SMOOTH",
"366 733 LINE SMOOTH",
"394 732 OFFCURVE",
"415 796 OFFCURVE",
"415 814 CURVE SMOOTH",
"415 817 OFFCURVE",
"414 823 OFFCURVE",
"403 824 CURVE SMOOTH",
"392 825 OFFCURVE",
"318 825 OFFCURVE",
"261 825 CURVE SMOOTH",
"172 825 OFFCURVE",
"109 819 OFFCURVE",
"52 760 CURVE SMOOTH",
"20 726 OFFCURVE",
"1 685 OFFCURVE",
"1 652 CURVE SMOOTH",
"1 622 OFFCURVE",
"17 596 OFFCURVE",
"53 585 CURVE",
"24 562 OFFCURVE",
"0 530 OFFCURVE",
"0 497 CURVE SMOOTH",
"0 440 OFFCURVE",
"37 416 OFFCURVE",
"80 416 CURVE SMOOTH"
);
}
);
width = 415;
}
);
unicode = 0C4D;
script = telugu;
category = Mark;
subCategory = Nonspacing;
},
{
color = 6;
glyphname = tlAvagraha;
lastChange = "2016-01-01 05:46:49 +0000";
layers = (
{
layerId = "59118767-2CA9-48AA-9373-694D24C960D8";
name = Regular;
paths = (
{
closed = 1;
nodes = (
"674 2 LINE SMOOTH",
"708 2 OFFCURVE",
"726 22 OFFCURVE",
"737 44 CURVE SMOOTH",
"743 56 OFFCURVE",
"748 70 OFFCURVE",
"748 78 CURVE SMOOTH",
"748 90 OFFCURVE",
"737 93 OFFCURVE",
"711 93 CURVE SMOOTH",
"324 93 LINE SMOOTH",
"230 93 OFFCURVE",
"150 94 OFFCURVE",
"150 133 CURVE SMOOTH",
"150 152 OFFCURVE",
"190 169 OFFCURVE",
"240 187 CURVE SMOOTH",
"328 219 OFFCURVE",
"449 259 OFFCURVE",
"449 361 CURVE SMOOTH",
"449 386 OFFCURVE",
"440 409 OFFCURVE",
"420 426 CURVE SMOOTH",
"387 455 OFFCURVE",
"331 463 OFFCURVE",
"264 463 CURVE SMOOTH",
"215 463 OFFCURVE",
"168 458 OFFCURVE",
"137 447 CURVE SMOOTH",
"108 436 OFFCURVE",
"74 394 OFFCURVE",
"74 365 CURVE SMOOTH",
"74 355 OFFCURVE",
"80 350 OFFCURVE",
"89 350 CURVE SMOOTH",
"99 350 OFFCURVE",
"123 356 OFFCURVE",
"145 359 CURVE",
"174 364 OFFCURVE",
"212 369 OFFCURVE",
"245 369 CURVE SMOOTH",
"301 369 OFFCURVE",
"348 351 OFFCURVE",
"348 311 CURVE SMOOTH",
"348 283 OFFCURVE",
"314 277 OFFCURVE",
"222 242 CURVE SMOOTH",
"84 189 OFFCURVE",
"40 143 OFFCURVE",
"40 85 CURVE SMOOTH",
"40 2 OFFCURVE",
"165 1 OFFCURVE",
"277 1 CURVE SMOOTH"
);
}
);
width = 753;
}
);
leftKerningGroup = tlAvagraha;
rightKerningGroup = tlAvagraha;
unicode = 0C3D;
},
{
color = 9;
glyphname = tlZero;
lastChange = "2016-01-01 05:46:51 +0000";
layers = (
{
layerId = "59118767-2CA9-48AA-9373-694D24C960D8";
name = Regular;
paths = (
{
closed = 1;
nodes = (
"356 -16 OFFCURVE",
"443 141 OFFCURVE",
"443 268 CURVE SMOOTH",
"443 387 OFFCURVE",
"371 462 OFFCURVE",
"251 462 CURVE SMOOTH",
"219 462 OFFCURVE",
"184 457 OFFCURVE",
"150 447 CURVE SMOOTH",
"117 437 OFFCURVE",
"81 382 OFFCURVE",
"81 355 CURVE SMOOTH",
"81 345 OFFCURVE",
"85 339 OFFCURVE",
"96 339 CURVE SMOOTH",
"100 339 OFFCURVE",
"104 340 OFFCURVE",
"109 341 CURVE",
"54 288 OFFCURVE",
"30 224 OFFCURVE",
"30 161 CURVE SMOOTH",
"30 57 OFFCURVE",
"83 -16 OFFCURVE",
"192 -16 CURVE SMOOTH"
);
},
{
closed = 1;
nodes = (
"152 90 OFFCURVE",
"102 139 OFFCURVE",
"102 198 CURVE SMOOTH",
"102 247 OFFCURVE",
"131 312 OFFCURVE",
"175 352 CURVE",
"191 354 OFFCURVE",
"207 356 OFFCURVE",
"224 356 CURVE SMOOTH",
"314 356 OFFCURVE",
"366 300 OFFCURVE",
"366 214 CURVE SMOOTH",
"366 121 OFFCURVE",
"282 90 OFFCURVE",
"225 90 CURVE SMOOTH"
);
}
);
width = 473;
}
);
leftKerningGroup = tlYA;
rightKerningGroup = tlA;
unicode = 0C66;
},
{
color = 9;
glyphname = tlOne;
lastChange = "2016-01-01 05:46:49 +0000";
layers = (
{
layerId = "59118767-2CA9-48AA-9373-694D24C960D8";
name = Regular;
paths = (
{
closed = 1;
nodes = (
"118 -12 OFFCURVE",
"133 -6 OFFCURVE",
"149 5 CURVE SMOOTH",
"161 13 OFFCURVE",
"167 19 OFFCURVE",
"167 30 CURVE SMOOTH",
"167 37 OFFCURVE",
"164 47 OFFCURVE",
"158 62 CURVE SMOOTH",
"141 106 OFFCURVE",
"132 154 OFFCURVE",
"132 199 CURVE SMOOTH",
"132 292 OFFCURVE",
"169 371 OFFCURVE",
"255 371 CURVE SMOOTH",
"366 371 OFFCURVE",
"394 255 OFFCURVE",
"394 145 CURVE SMOOTH",
"394 106 OFFCURVE",
"389 60 OFFCURVE",
"381 2 CURVE",
"381 -6 OFFCURVE",
"386 -10 OFFCURVE",
"392 -10 CURVE SMOOTH",
"417 -10 OFFCURVE",
"477 43 OFFCURVE",
"481 59 CURVE SMOOTH",
"489 94 OFFCURVE",
"494 133 OFFCURVE",
"494 193 CURVE SMOOTH",
"494 400 OFFCURVE",
"406 463 OFFCURVE",
"303 463 CURVE SMOOTH",
"164 463 OFFCURVE",
"30 322 OFFCURVE",
"30 147 CURVE SMOOTH",
"30 60 OFFCURVE",
"57 -12 OFFCURVE",
"104 -12 CURVE SMOOTH"
);
}
);
width = 524;
}
);
unicode = 0C67;
},
{
color = 9;
glyphname = tlTwo;
lastChange = "2016-01-01 05:46:51 +0000";
layers = (
{
layerId = "59118767-2CA9-48AA-9373-694D24C960D8";
name = Regular;
paths = (
{
closed = 1;
nodes = (
"434 -12 OFFCURVE",
"570 17 OFFCURVE",
"650 97 CURVE SMOOTH",
"692 139 OFFCURVE",
"721 202 OFFCURVE",
"721 267 CURVE SMOOTH",
"721 356 OFFCURVE",
"660 430 OFFCURVE",
"551 430 CURVE SMOOTH",
"433 430 OFFCURVE",
"347 344 OFFCURVE",
"347 233 CURVE SMOOTH",
"347 153 OFFCURVE",
"400 118 OFFCURVE",
"450 118 CURVE SMOOTH",
"537 118 OFFCURVE",
"587 199 OFFCURVE",
"587 281 CURVE SMOOTH",
"587 297 OFFCURVE",
"585 312 OFFCURVE",
"582 327 CURVE",
"613 306 OFFCURVE",
"633 269 OFFCURVE",
"633 229 CURVE SMOOTH",
"633 203 OFFCURVE",
"624 177 OFFCURVE",
"605 153 CURVE SMOOTH",
"555 90 OFFCURVE",
"459 79 OFFCURVE",
"367 79 CURVE SMOOTH",
"279 79 OFFCURVE",
"189 104 OFFCURVE",
"127 146 CURVE SMOOTH",
"106 160 OFFCURVE",
"93 180 OFFCURVE",
"83 180 CURVE SMOOTH",
"60 180 OFFCURVE",
"30 137 OFFCURVE",
"30 101 CURVE SMOOTH",
"30 29 OFFCURVE",
"158 -12 OFFCURVE",
"295 -12 CURVE SMOOTH"
);
},
{
closed = 1;
nodes = (
"444 192 OFFCURVE",
"414 218 OFFCURVE",
"414 267 CURVE SMOOTH",
"414 313 OFFCURVE",
"441 340 OFFCURVE",
"469 340 CURVE SMOOTH",
"497 340 OFFCURVE",
"525 313 OFFCURVE",
"525 263 CURVE SMOOTH",
"525 214 OFFCURVE",
"499 192 OFFCURVE",
"473 192 CURVE SMOOTH"
);
}
);
width = 751;
}
);
unicode = 0C68;
},
{
color = 9;
glyphname = tlThree;
lastChange = "2016-01-01 05:46:49 +0000";
layers = (
{
layerId = "59118767-2CA9-48AA-9373-694D24C960D8";
name = Regular;
paths = (
{
closed = 1;
nodes = (
"290 -13 OFFCURVE",
"356 4 OFFCURVE",
"406 48 CURVE SMOOTH",
"453 88 OFFCURVE",
"483 150 OFFCURVE",
"483 205 CURVE SMOOTH",
"483 235 OFFCURVE",
"475 262 OFFCURVE",
"455 283 CURVE SMOOTH",
"440 299 OFFCURVE",
"410 313 OFFCURVE",
"373 313 CURVE",
"416 337 OFFCURVE",
"446 383 OFFCURVE",
"446 427 CURVE SMOOTH",
"446 488 OFFCURVE",
"387 523 OFFCURVE",
"314 523 CURVE SMOOTH",
"203 523 OFFCURVE",
"61 428 OFFCURVE",
"61 370 CURVE SMOOTH",
"61 357 OFFCURVE",
"69 344 OFFCURVE",
"83 344 CURVE SMOOTH",
"91 344 OFFCURVE",
"101 349 OFFCURVE",
"112 360 CURVE SMOOTH",
"155 403 OFFCURVE",
"198 432 OFFCURVE",
"260 432 CURVE SMOOTH",
"304 432 OFFCURVE",
"341 414 OFFCURVE",
"341 375 CURVE SMOOTH",
"341 347 OFFCURVE",
"322 309 OFFCURVE",
"260 309 CURVE SMOOTH",
"235 309 OFFCURVE",
"213 258 OFFCURVE",
"213 236 CURVE SMOOTH",
"213 227 OFFCURVE",
"218 224 OFFCURVE",
"229 224 CURVE SMOOTH",
"303 224 LINE SMOOTH",
"365 224 OFFCURVE",
"400 188 OFFCURVE",
"400 152 CURVE SMOOTH",
"400 132 OFFCURVE",
"388 111 OFFCURVE",
"364 97 CURVE SMOOTH",
"342 84 OFFCURVE",
"314 78 OFFCURVE",
"285 78 CURVE SMOOTH",
"240 78 OFFCURVE",
"202 88 OFFCURVE",
"170 105 CURVE SMOOTH",
"153 114 OFFCURVE",
"138 125 OFFCURVE",
"125 138 CURVE SMOOTH",
"104 158 OFFCURVE",
"101 172 OFFCURVE",
"89 172 CURVE SMOOTH",
"76 172 OFFCURVE",
"57 158 OFFCURVE",
"47 146 CURVE",
"37 135 OFFCURVE",
"30 119 OFFCURVE",
"30 99 CURVE SMOOTH",
"30 42 OFFCURVE",
"129 -13 OFFCURVE",
"228 -13 CURVE SMOOTH"
);
}
);
width = 513;
}
);
unicode = 0C69;
},
{
color = 9;
glyphname = tlFour;
lastChange = "2016-01-01 05:46:51 +0000";
layers = (
{
layerId = "59118767-2CA9-48AA-9373-694D24C960D8";
name = Regular;
paths = (
{
closed = 1;
nodes = (
"457 -141 OFFCURVE",
"552 -46 OFFCURVE",
"552 57 CURVE SMOOTH",
"552 167 OFFCURVE",
"445 184 OFFCURVE",
"363 185 CURVE",
"385 230 OFFCURVE",
"413 282 OFFCURVE",
"413 331 CURVE SMOOTH",
"413 393 OFFCURVE",
"369 463 OFFCURVE",
"308 463 CURVE SMOOTH",
"261 463 OFFCURVE",
"240 421 OFFCURVE",
"240 388 CURVE SMOOTH",
"240 375 OFFCURVE",
"243 372 OFFCURVE",
"265 362 CURVE SMOOTH",
"290 350 OFFCURVE",
"323 332 OFFCURVE",
"323 276 CURVE SMOOTH",
"323 244 OFFCURVE",
"312 219 OFFCURVE",
"294 183 CURVE",
"203 183 OFFCURVE",
"155 195 OFFCURVE",
"117 235 CURVE SMOOTH",
"95 259 OFFCURVE",
"87 285 OFFCURVE",
"87 311 CURVE SMOOTH",
"87 370 OFFCURVE",
"129 427 OFFCURVE",
"129 451 CURVE SMOOTH",
"129 459 OFFCURVE",
"124 463 OFFCURVE",
"113 463 CURVE SMOOTH",
"59 463 OFFCURVE",
"10 362 OFFCURVE",
"10 269 CURVE SMOOTH",
"10 227 OFFCURVE",
"20 187 OFFCURVE",
"44 158 CURVE SMOOTH",
"85 110 OFFCURVE",
"157 100 OFFCURVE",
"254 97 CURVE",
"236 53 OFFCURVE",
"221 6 OFFCURVE",
"221 -29 CURVE SMOOTH",
"221 -100 OFFCURVE",
"283 -141 OFFCURVE",
"352 -141 CURVE SMOOTH"
);
},
{
closed = 1;
nodes = (
"355 -51 OFFCURVE",
"310 -26 OFFCURVE",
"310 28 CURVE SMOOTH",
"310 46 OFFCURVE",
"315 70 OFFCURVE",
"324 96 CURVE",
"384 94 OFFCURVE",
"466 78 OFFCURVE",
"466 9 CURVE SMOOTH",
"466 -34 OFFCURVE",
"433 -51 OFFCURVE",
"398 -51 CURVE SMOOTH"
);
}
);
width = 572;
}
);
unicode = 0C6A;
},
{
color = 9;
glyphname = tlFive;
lastChange = "2016-01-01 05:46:51 +0000";
layers = (
{
guideLines = (
{
position = "{665, -138}";
}
);
layerId = "59118767-2CA9-48AA-9373-694D24C960D8";
name = Regular;
paths = (
{
closed = 1;
nodes = (
"282 -139 OFFCURVE",
"382 26 OFFCURVE",
"408 187 CURVE",
"456 208 OFFCURVE",
"517 236 OFFCURVE",
"557 258 CURVE",
"590 226 OFFCURVE",
"621 195 OFFCURVE",
"621 154 CURVE SMOOTH",
"621 114 OFFCURVE",
"592 78 OFFCURVE",
"545 78 CURVE SMOOTH",
"514 78 OFFCURVE",
"501 93 OFFCURVE",
"492 93 CURVE SMOOTH",
"483 93 OFFCURVE",
"466 75 OFFCURVE",
"454 55 CURVE SMOOTH",
"445 41 OFFCURVE",
"441 29 OFFCURVE",
"441 20 CURVE SMOOTH",
"441 -2 OFFCURVE",
"462 -13 OFFCURVE",
"492 -13 CURVE SMOOTH",
"591 -13 OFFCURVE",
"715 86 OFFCURVE",
"715 189 CURVE SMOOTH",
"715 234 OFFCURVE",
"693 278 OFFCURVE",
"638 333 CURVE",
"693 390 OFFCURVE",
"730 458 OFFCURVE",
"730 519 CURVE SMOOTH",
"730 583 OFFCURVE",
"688 614 OFFCURVE",
"635 614 CURVE SMOOTH",
"546 614 OFFCURVE",
"456 523 OFFCURVE",
"456 438 CURVE SMOOTH",
"456 401 OFFCURVE",
"473 359 OFFCURVE",
"512 312 CURVE",
"482 295 OFFCURVE",
"448 278 OFFCURVE",
"416 263 CURVE",
"416 395 OFFCURVE",
"364 463 OFFCURVE",
"263 463 CURVE SMOOTH",
"172 463 OFFCURVE",
"69 402 OFFCURVE",
"69 359 CURVE SMOOTH",
"69 344 OFFCURVE",
"81 337 OFFCURVE",
"91 337 CURVE SMOOTH",
"114 337 OFFCURVE",
"143 375 OFFCURVE",
"197 375 CURVE SMOOTH",
"258 375 OFFCURVE",
"323 326 OFFCURVE",
"331 227 CURVE",
"157 141 OFFCURVE",
"10 71 OFFCURVE",
"10 -41 CURVE SMOOTH",
"10 -98 OFFCURVE",
"55 -139 OFFCURVE",
"121 -139 CURVE SMOOTH"
);
},
{
closed = 1;
nodes = (
"132 -48 OFFCURVE",
"109 -32 OFFCURVE",
"109 -5 CURVE SMOOTH",
"109 49 OFFCURVE",
"207 81 OFFCURVE",
"323 143 CURVE",
"303 45 OFFCURVE",
"249 -48 OFFCURVE",
"166 -48 CURVE SMOOTH"
);
},
{
closed = 1;
nodes = (
"561 410 OFFCURVE",
"538 447 OFFCURVE",
"538 477 CURVE SMOOTH",
"538 505 OFFCURVE",
"561 526 OFFCURVE",
"588 526 CURVE SMOOTH",
"612 526 OFFCURVE",
"634 507 OFFCURVE",
"634 466 CURVE SMOOTH",
"634 433 OFFCURVE",
"619 403 OFFCURVE",
"594 375 CURVE"
);
}
);
width = 760;
}
);
unicode = 0C6B;
},
{
color = 9;
glyphname = tlSix;
lastChange = "2016-01-01 05:46:51 +0000";
layers = (
{
guideLines = (
{
angle = 90;
position = "{277, 111}";
showMeasurement = 1;
}
);
layerId = "59118767-2CA9-48AA-9373-694D24C960D8";
name = Regular;
paths = (
{
closed = 1;
nodes = (
"337 -14 OFFCURVE",
"433 -8 OFFCURVE",
"532 11 CURVE SMOOTH",
"562 17 OFFCURVE",
"580 17 OFFCURVE",
"600 60 CURVE SMOOTH",
"605 71 OFFCURVE",
"607 79 OFFCURVE",
"607 85 CURVE SMOOTH",
"607 97 OFFCURVE",
"601 101 OFFCURVE",
"589 101 CURVE SMOOTH",
"578 101 OFFCURVE",
"563 97 OFFCURVE",
"545 95 CURVE SMOOTH",
"470 85 OFFCURVE",
"384 77 OFFCURVE",
"319 77 CURVE SMOOTH",
"222 77 OFFCURVE",
"118 100 OFFCURVE",
"118 169 CURVE SMOOTH",
"118 175 OFFCURVE",
"119 182 OFFCURVE",
"121 189 CURVE",
"134 184 OFFCURVE",
"148 182 OFFCURVE",
"164 182 CURVE SMOOTH",
"269 182 OFFCURVE",
"369 280 OFFCURVE",
"369 349 CURVE SMOOTH",
"369 386 OFFCURVE",
"348 416 OFFCURVE",
"305 416 CURVE SMOOTH",
"254 416 OFFCURVE",
"187 375 OFFCURVE",
"133 317 CURVE",
"118 337 OFFCURVE",
"110 360 OFFCURVE",
"110 386 CURVE SMOOTH",
"110 467 OFFCURVE",
"161 474 OFFCURVE",
"185 477 CURVE SMOOTH",
"227 482 OFFCURVE",
"275 568 OFFCURVE",
"275 598 CURVE SMOOTH",
"275 607 OFFCURVE",
"271 613 OFFCURVE",
"254 613 CURVE SMOOTH",
"174 613 OFFCURVE",
"34 479 OFFCURVE",
"34 337 CURVE SMOOTH",
"34 294 OFFCURVE",
"46 257 OFFCURVE",
"67 227 CURVE",
"43 185 OFFCURVE",
"30 149 OFFCURVE",
"30 112 CURVE SMOOTH",
"30 14 OFFCURVE",
"123 -14 OFFCURVE",
"256 -14 CURVE SMOOTH"
);
},
{
closed = 1;
nodes = (
"201 262 OFFCURVE",
"184 265 OFFCURVE",
"172 274 CURVE",
"203 312 OFFCURVE",
"240 339 OFFCURVE",
"267 339 CURVE SMOOTH",
"282 339 OFFCURVE",
"293 326 OFFCURVE",
"293 312 CURVE SMOOTH",
"293 284 OFFCURVE",
"255 262 OFFCURVE",
"216 262 CURVE SMOOTH"
);
}
);
width = 617;
}
);
unicode = 0C6C;
},
{
color = 9;
glyphname = tlSeven;
lastChange = "2016-01-01 05:46:49 +0000";
layers = (
{
layerId = "59118767-2CA9-48AA-9373-694D24C960D8";
name = Regular;
paths = (
{
closed = 1;
nodes = (
"311 -16 OFFCURVE",
"408 9 OFFCURVE",
"487 63 CURVE SMOOTH",
"498 70 OFFCURVE",
"502 79 OFFCURVE",
"502 88 CURVE SMOOTH",
"502 104 OFFCURVE",
"487 120 OFFCURVE",
"464 120 CURVE SMOOTH",
"456 120 OFFCURVE",
"447 118 OFFCURVE",
"438 114 CURVE SMOOTH",
"384 90 OFFCURVE",
"334 64 OFFCURVE",
"264 64 CURVE SMOOTH",
"198 64 OFFCURVE",
"142 105 OFFCURVE",
"142 148 CURVE SMOOTH",
"142 195 OFFCURVE",
"185 202 OFFCURVE",
"248 214 CURVE SMOOTH",
"296 223 OFFCURVE",
"356 228 OFFCURVE",
"414 260 CURVE SMOOTH",
"472 292 OFFCURVE",
"500 343 OFFCURVE",
"500 391 CURVE SMOOTH",
"500 460 OFFCURVE",
"443 524 OFFCURVE",
"337 524 CURVE SMOOTH",
"210 524 OFFCURVE",
"107 458 OFFCURVE",
"64 399 CURVE SMOOTH",
"53 384 OFFCURVE",
"49 371 OFFCURVE",
"49 362 CURVE SMOOTH",
"49 343 OFFCURVE",
"64 334 OFFCURVE",
"78 334 CURVE SMOOTH",
"112 334 OFFCURVE",
"159 440 OFFCURVE",
"286 440 CURVE SMOOTH",
"346 440 OFFCURVE",
"391 399 OFFCURVE",
"391 359 CURVE SMOOTH",
"391 338 OFFCURVE",
"379 318 OFFCURVE",
"350 303 CURVE SMOOTH",
"323 289 OFFCURVE",
"285 291 OFFCURVE",
"197 275 CURVE SMOOTH",
"144 265 OFFCURVE",
"30 222 OFFCURVE",
"30 122 CURVE SMOOTH",
"30 28 OFFCURVE",
"118 -16 OFFCURVE",
"227 -16 CURVE SMOOTH"
);
}
);
width = 532;
}
);
unicode = 0C6D;
},
{
color = 9;
glyphname = tlEight;
lastChange = "2016-01-01 05:46:49 +0000";
layers = (
{
layerId = "59118767-2CA9-48AA-9373-694D24C960D8";
name = Regular;
paths = (
{
closed = 1;
nodes = (
"409 -13 OFFCURVE",
"578 98 OFFCURVE",
"578 298 CURVE SMOOTH",
"578 339 OFFCURVE",
"563 393 OFFCURVE",
"546 430 CURVE",
"616 432 OFFCURVE",
"676 432 OFFCURVE",
"689 432 CURVE SMOOTH",
"724 432 OFFCURVE",
"760 498 OFFCURVE",
"760 511 CURVE SMOOTH",
"760 521 OFFCURVE",
"751 525 OFFCURVE",
"738 525 CURVE",
"684 523 OFFCURVE",
"488 516 OFFCURVE",
"479 516 CURVE SMOOTH",
"463 516 OFFCURVE",
"445 505 OFFCURVE",
"424 479 CURVE SMOOTH",
"411 462 OFFCURVE",
"405 450 OFFCURVE",
"405 440 CURVE SMOOTH",
"405 425 OFFCURVE",
"417 414 OFFCURVE",
"433 400 CURVE",
"490 346 OFFCURVE",
"496 284 OFFCURVE",
"496 247 CURVE SMOOTH",
"496 134 OFFCURVE",
"406 83 OFFCURVE",
"304 83 CURVE SMOOTH",
"199 83 OFFCURVE",
"111 138 OFFCURVE",
"111 232 CURVE SMOOTH",
"111 313 OFFCURVE",
"162 320 OFFCURVE",
"186 323 CURVE SMOOTH",
"228 328 OFFCURVE",
"276 414 OFFCURVE",
"276 444 CURVE SMOOTH",
"276 453 OFFCURVE",
"272 459 OFFCURVE",
"255 459 CURVE SMOOTH",
"152 459 OFFCURVE",
"30 291 OFFCURVE",
"30 174 CURVE SMOOTH",
"30 67 OFFCURVE",
"95 -13 OFFCURVE",
"256 -13 CURVE SMOOTH"
);
}
);
width = 770;
}
);
unicode = 0C6E;
},
{
color = 9;
glyphname = tlNine;
lastChange = "2016-01-01 05:46:49 +0000";
layers = (
{
layerId = "59118767-2CA9-48AA-9373-694D24C960D8";
name = Regular;
paths = (
{
closed = 1;
nodes = (
"208 -14 OFFCURVE",
"227 -12 OFFCURVE",
"242 -5 CURVE SMOOTH",
"269 8 OFFCURVE",
"295 41 OFFCURVE",
"295 65 CURVE SMOOTH",
"295 79 OFFCURVE",
"281 80 OFFCURVE",
"264 80 CURVE SMOOTH",
"251 80 OFFCURVE",
"231 78 OFFCURVE",
"200 78 CURVE SMOOTH",
"140 78 OFFCURVE",
"107 107 OFFCURVE",
"107 155 CURVE SMOOTH",
"107 169 OFFCURVE",
"111 178 OFFCURVE",
"119 184 CURVE",
"135 179 OFFCURVE",
"154 176 OFFCURVE",
"176 176 CURVE SMOOTH",
"197 176 OFFCURVE",
"219 183 OFFCURVE",
"237 194 CURVE SMOOTH",
"264 210 OFFCURVE",
"290 241 OFFCURVE",
"290 266 CURVE SMOOTH",
"290 285 OFFCURVE",
"271 294 OFFCURVE",
"242 294 CURVE SMOOTH",
"220 294 OFFCURVE",
"193 289 OFFCURVE",
"168 279 CURVE",
"135 299 OFFCURVE",
"118 333 OFFCURVE",
"118 367 CURVE SMOOTH",
"118 424 OFFCURVE",
"172 429 OFFCURVE",
"228 429 CURVE SMOOTH",
"498 428 LINE SMOOTH",
"542 428 OFFCURVE",
"575 432 OFFCURVE",
"583 436 CURVE SMOOTH",
"598 443 OFFCURVE",
"610 456 OFFCURVE",
"617 471 CURVE SMOOTH",
"623 485 OFFCURVE",
"627 496 OFFCURVE",
"627 504 CURVE SMOOTH",
"627 520 OFFCURVE",
"611 523 OFFCURVE",
"572 521 CURVE SMOOTH",
"525 519 OFFCURVE",
"379 516 OFFCURVE",
"291 514 CURVE SMOOTH",
"134 514 OFFCURVE",
"30 455 OFFCURVE",
"30 316 CURVE SMOOTH",
"30 275 OFFCURVE",
"47 236 OFFCURVE",
"79 211 CURVE",
"47 181 OFFCURVE",
"31 141 OFFCURVE",
"31 104 CURVE SMOOTH",
"31 28 OFFCURVE",
"104 -14 OFFCURVE",
"176 -14 CURVE SMOOTH"
);
}
);
width = 637;
}
);
unicode = 0C6F;
},
{
color = 9;
glyphname = tlTick;
lastChange = "2016-01-01 05:46:49 +0000";
layers = (
{
layerId = "59118767-2CA9-48AA-9373-694D24C960D8";
name = Regular;
paths = (
{
closed = 1;
nodes = (
"34 329 OFFCURVE",
"37 333 OFFCURVE",
"41 342 CURVE",
"56 371 OFFCURVE",
"89 458 OFFCURVE",
"157 517 CURVE SMOOTH",
"229 579 OFFCURVE",
"282 558 OFFCURVE",
"298 574 CURVE SMOOTH",
"307 583 OFFCURVE",
"337 636 OFFCURVE",
"337 666 CURVE SMOOTH",
"337 680 OFFCURVE",
"331 690 OFFCURVE",
"311 690 CURVE SMOOTH",
"279 690 OFFCURVE",
"215 665 OFFCURVE",
"158 618 CURVE SMOOTH",
"55 533 OFFCURVE",
"16 419 OFFCURVE",
"4 382 CURVE",
"2 375 OFFCURVE",
"0 366 OFFCURVE",
"0 358 CURVE SMOOTH",
"0 343 OFFCURVE",
"6 329 OFFCURVE",
"24 329 CURVE SMOOTH"
);
}
);
width = 337;
}
);
},
{
color = 9;
glyphname = tlTeardrop;
lastChange = "2016-01-01 05:46:49 +0000";
layers = (
{
layerId = "59118767-2CA9-48AA-9373-694D24C960D8";
name = Regular;
paths = (
{
closed = 1;
nodes = (
"86 -192 OFFCURVE",
"105 -158 OFFCURVE",
"105 -125 CURVE SMOOTH",
"105 -98 OFFCURVE",
"92 -9 OFFCURVE",
"71 -9 CURVE SMOOTH",
"50 -9 OFFCURVE",
"0 -95 OFFCURVE",
"0 -139 CURVE SMOOTH",
"0 -158 OFFCURVE",
"10 -192 OFFCURVE",
"48 -192 CURVE SMOOTH"
);
}
);
width = 105;
}
);
},
{
color = 7;
glyphname = tlKAc2;
lastChange = "2016-01-01 05:46:49 +0000";
layers = (
{
anchors = (
{
name = bottom;
position = "{-50, -438}";
}
);
layerId = "59118767-2CA9-48AA-9373-694D24C960D8";
name = Regular;
paths = (
{
closed = 1;
nodes = (
"258 -450 OFFCURVE",
"347 -316 OFFCURVE",
"347 -200 CURVE SMOOTH",
"347 -164 OFFCURVE",
"340 -128 OFFCURVE",
"325 -94 CURVE",
"418 -83 LINE SMOOTH",
"444 -80 OFFCURVE",
"486 -38 OFFCURVE",
"486 -6 CURVE SMOOTH",
"486 1 OFFCURVE",
"483 3 OFFCURVE",
"474 3 CURVE SMOOTH",
"457 3 OFFCURVE",
"295 -18 OFFCURVE",
"236 -26 CURVE SMOOTH",
"204 -31 OFFCURVE",
"183 -37 OFFCURVE",
"170 -48 CURVE",
"157 -60 OFFCURVE",
"148 -82 OFFCURVE",
"148 -100 CURVE SMOOTH",
"148 -108 OFFCURVE",
"150 -114 OFFCURVE",
"156 -114 CURVE SMOOTH",
"239 -113 OFFCURVE",
"273 -170 OFFCURVE",
"273 -229 CURVE SMOOTH",
"273 -300 OFFCURVE",
"234 -356 OFFCURVE",
"158 -356 CURVE SMOOTH",
"89 -356 OFFCURVE",
"33 -304 OFFCURVE",
"33 -229 CURVE SMOOTH",
"33 -47 OFFCURVE",
"184 103 OFFCURVE",
"184 373 CURVE SMOOTH",
"184 437 OFFCURVE",
"174 498 OFFCURVE",
"153 552 CURVE SMOOTH",
"135 597 OFFCURVE",
"114 613 OFFCURVE",
"93 613 CURVE SMOOTH",
"70 613 OFFCURVE",
"48 593 OFFCURVE",
"34 567 CURVE SMOOTH",
"27 554 OFFCURVE",
"24 545 OFFCURVE",
"24 538 CURVE SMOOTH",
"24 526 OFFCURVE",
"30 515 OFFCURVE",
"42 492 CURVE SMOOTH",
"64 450 OFFCURVE",
"87 389 OFFCURVE",
"87 295 CURVE SMOOTH",
"87 51 OFFCURVE",
"-50 -92 OFFCURVE",
"-50 -273 CURVE SMOOTH",
"-50 -379 OFFCURVE",
"20 -450 OFFCURVE",
"122 -450 CURVE SMOOTH"
);
}
);
width = 476;
}
);
leftKerningGroup = tlKAc2;
rightKerningGroup = tlKAc2;
script = telugu;
category = Mark;
subCategory = "Spacing ";
},
{
color = 7;
glyphname = tlKAc2.01;
lastChange = "2016-01-01 05:46:49 +0000";
layers = (
{
anchors = (
{
name = _bottom;
position = "{-150, 0}";
},
{
name = bottom;
position = "{-150, -438}";
}
);
layerId = "59118767-2CA9-48AA-9373-694D24C960D8";
name = Regular;
paths = (
{
closed = 1;
nodes = (
"-90 -441 OFFCURVE",
"0 -355 OFFCURVE",
"0 -292 CURVE SMOOTH",
"0 -246 OFFCURVE",
"-26 -224 OFFCURVE",
"-79 -224 CURVE SMOOTH",
"-110 -224 OFFCURVE",
"-168 -243 OFFCURVE",
"-192 -243 CURVE SMOOTH",
"-208 -243 OFFCURVE",
"-217 -240 OFFCURVE",
"-217 -228 CURVE SMOOTH",
"-217 -192 OFFCURVE",
"-173 -163 OFFCURVE",
"-129 -163 CURVE SMOOTH",
"-96 -163 OFFCURVE",
"-90 -188 OFFCURVE",
"-73 -188 CURVE SMOOTH",
"-57 -188 OFFCURVE",
"-20 -158 OFFCURVE",
"-20 -130 CURVE SMOOTH",
"-20 -105 OFFCURVE",
"-42 -92 OFFCURVE",
"-80 -92 CURVE SMOOTH",
"-201 -92 OFFCURVE",
"-292 -203 OFFCURVE",
"-292 -260 CURVE SMOOTH",
"-292 -296 OFFCURVE",
"-268 -316 OFFCURVE",
"-225 -316 CURVE SMOOTH",
"-183 -316 OFFCURVE",
"-143 -294 OFFCURVE",
"-111 -294 CURVE SMOOTH",
"-82 -294 OFFCURVE",
"-70 -306 OFFCURVE",
"-70 -320 CURVE SMOOTH",
"-70 -344 OFFCURVE",
"-105 -370 OFFCURVE",
"-162 -370 CURVE SMOOTH",
"-211 -370 OFFCURVE",
"-243 -344 OFFCURVE",
"-257 -344 CURVE SMOOTH",
"-275 -344 OFFCURVE",
"-299 -374 OFFCURVE",
"-299 -396 CURVE SMOOTH",
"-299 -424 OFFCURVE",
"-267 -441 OFFCURVE",
"-214 -441 CURVE SMOOTH"
);
}
);
width = 0;
}
);
leftKerningGroup = tlKAc2;
rightKerningGroup = tlKAc2;
script = telugu;
category = Mark;
subCategory = "Spacing ";
},
{
color = 8;
glyphname = tlKAc2.following;
lastChange = "2016-01-01 05:46:49 +0000";
layers = (
{
anchors = (
{
name = bottom;
position = "{0, -438}";
}
);
layerId = "59118767-2CA9-48AA-9373-694D24C960D8";
name = Regular;
paths = (
{
closed = 1;
nodes = (
"358 -450 OFFCURVE",
"447 -316 OFFCURVE",
"447 -200 CURVE SMOOTH",
"447 -164 OFFCURVE",
"440 -128 OFFCURVE",
"425 -94 CURVE",
"518 -83 LINE SMOOTH",
"544 -80 OFFCURVE",
"586 -38 OFFCURVE",
"586 -6 CURVE SMOOTH",
"586 1 OFFCURVE",
"583 3 OFFCURVE",
"574 3 CURVE SMOOTH",
"557 3 OFFCURVE",
"395 -18 OFFCURVE",
"336 -26 CURVE SMOOTH",
"304 -31 OFFCURVE",
"283 -37 OFFCURVE",
"270 -48 CURVE",
"257 -60 OFFCURVE",
"248 -82 OFFCURVE",
"248 -100 CURVE SMOOTH",
"248 -108 OFFCURVE",
"250 -114 OFFCURVE",
"256 -114 CURVE SMOOTH",
"339 -113 OFFCURVE",
"373 -170 OFFCURVE",
"373 -229 CURVE SMOOTH",
"373 -300 OFFCURVE",
"334 -356 OFFCURVE",
"258 -356 CURVE SMOOTH",
"189 -356 OFFCURVE",
"133 -304 OFFCURVE",
"133 -229 CURVE SMOOTH",
"133 -47 OFFCURVE",
"284 103 OFFCURVE",
"284 373 CURVE SMOOTH",
"284 437 OFFCURVE",
"274 498 OFFCURVE",
"253 552 CURVE SMOOTH",
"235 597 OFFCURVE",
"214 613 OFFCURVE",
"193 613 CURVE SMOOTH",
"170 613 OFFCURVE",
"148 593 OFFCURVE",
"134 567 CURVE SMOOTH",
"127 554 OFFCURVE",
"124 545 OFFCURVE",
"124 538 CURVE SMOOTH",
"124 526 OFFCURVE",
"130 515 OFFCURVE",
"142 492 CURVE SMOOTH",
"164 450 OFFCURVE",
"187 389 OFFCURVE",
"187 295 CURVE SMOOTH",
"187 51 OFFCURVE",
"50 -92 OFFCURVE",
"50 -273 CURVE SMOOTH",
"50 -379 OFFCURVE",
"120 -450 OFFCURVE",
"222 -450 CURVE SMOOTH"
);
}
);
width = 576;
}
);
leftKerningGroup = tlKAc2.following;
rightKerningGroup = tlKAc2;
script = telugu;
category = Mark;
subCategory = "Spacing ";
},
{
color = 7;
glyphname = tlKHAc2;
lastChange = "2016-01-01 05:46:51 +0000";
layers = (
{
anchors = (
{
name = _bottom;
position = "{-233, 0}";
},
{
name = bottom;
position = "{-233, -528}";
}
);
guideLines = (
{
position = "{2666, -473}";
}
);
layerId = "59118767-2CA9-48AA-9373-694D24C960D8";
name = Regular;
paths = (
{
closed = 1;
nodes = (
"-358 -438 OFFCURVE",
"-303 -414 OFFCURVE",
"-260 -378 CURVE",
"-237 -411 OFFCURVE",
"-198 -434 OFFCURVE",
"-161 -434 CURVE SMOOTH",
"-61 -434 OFFCURVE",
"0 -349 OFFCURVE",
"0 -256 CURVE SMOOTH",
"0 -160 OFFCURVE",
"-36 -95 OFFCURVE",
"-75 -95 CURVE SMOOTH",
"-100 -95 OFFCURVE",
"-126 -134 OFFCURVE",
"-126 -158 CURVE SMOOTH",
"-126 -168 OFFCURVE",
"-121 -173 OFFCURVE",
"-117 -176 CURVE SMOOTH",
"-91 -196 OFFCURVE",
"-61 -236 OFFCURVE",
"-61 -297 CURVE SMOOTH",
"-61 -340 OFFCURVE",
"-91 -369 OFFCURVE",
"-134 -369 CURVE SMOOTH",
"-163 -369 OFFCURVE",
"-195 -351 OFFCURVE",
"-215 -329 CURVE",
"-186 -287 OFFCURVE",
"-171 -244 OFFCURVE",
"-171 -205 CURVE SMOOTH",
"-171 -142 OFFCURVE",
"-211 -94 OFFCURVE",
"-291 -94 CURVE SMOOTH",
"-340 -94 OFFCURVE",
"-390 -118 OFFCURVE",
"-413 -144 CURVE SMOOTH",
"-422 -154 OFFCURVE",
"-424 -162 OFFCURVE",
"-424 -170 CURVE SMOOTH",
"-424 -183 OFFCURVE",
"-413 -192 OFFCURVE",
"-399 -192 CURVE SMOOTH",
"-391 -192 OFFCURVE",
"-382 -188 OFFCURVE",
"-374 -182 CURVE SMOOTH",
"-356 -169 OFFCURVE",
"-336 -160 OFFCURVE",
"-316 -160 CURVE SMOOTH",
"-267 -160 OFFCURVE",
"-232 -198 OFFCURVE",
"-232 -247 CURVE SMOOTH",
"-232 -261 OFFCURVE",
"-234 -276 OFFCURVE",
"-241 -291 CURVE",
"-272 -265 OFFCURVE",
"-299 -247 OFFCURVE",
"-338 -247 CURVE SMOOTH",
"-404 -247 OFFCURVE",
"-466 -304 OFFCURVE",
"-466 -375 CURVE SMOOTH",
"-466 -419 OFFCURVE",
"-438 -438 OFFCURVE",
"-401 -438 CURVE SMOOTH"
);
},
{
closed = 1;
nodes = (
"-252 -530 OFFCURVE",
"-229 -509 OFFCURVE",
"-229 -489 CURVE SMOOTH",
"-229 -467 OFFCURVE",
"-245 -418 OFFCURVE",
"-261 -418 CURVE SMOOTH",
"-278 -418 OFFCURVE",
"-308 -462 OFFCURVE",
"-308 -490 CURVE SMOOTH",
"-308 -510 OFFCURVE",
"-293 -530 OFFCURVE",
"-273 -530 CURVE SMOOTH"
);
},
{
closed = 1;
nodes = (
"-397 -373 OFFCURVE",
"-410 -363 OFFCURVE",
"-410 -350 CURVE SMOOTH",
"-410 -331 OFFCURVE",
"-391 -306 OFFCURVE",
"-356 -306 CURVE SMOOTH",
"-332 -306 OFFCURVE",
"-305 -320 OFFCURVE",
"-283 -339 CURVE",
"-311 -360 OFFCURVE",
"-346 -373 OFFCURVE",
"-379 -373 CURVE SMOOTH"
);
}
);
width = 0;
}
);
leftKerningGroup = tlKHAc2;
rightKerningGroup = c20;
script = telugu;
category = Mark;
subCategory = Nonspacing;
},
{
color = 8;
glyphname = tlKHAc2.following;
lastChange = "2016-01-01 05:46:51 +0000";
layers = (
{
anchors = (
{
name = _bottom;
position = "{247, 0}";
},
{
name = bottom;
position = "{247, -528}";
}
);
guideLines = (
{
position = "{3182, -473}";
}
);
layerId = "59118767-2CA9-48AA-9373-694D24C960D8";
name = Regular;
paths = (
{
closed = 1;
nodes = (
"158 -438 OFFCURVE",
"213 -414 OFFCURVE",
"256 -378 CURVE",
"279 -411 OFFCURVE",
"318 -434 OFFCURVE",
"355 -434 CURVE SMOOTH",
"455 -434 OFFCURVE",
"516 -349 OFFCURVE",
"516 -256 CURVE SMOOTH",
"516 -160 OFFCURVE",
"480 -95 OFFCURVE",
"441 -95 CURVE SMOOTH",
"416 -95 OFFCURVE",
"390 -134 OFFCURVE",
"390 -158 CURVE SMOOTH",
"390 -168 OFFCURVE",
"395 -173 OFFCURVE",
"399 -176 CURVE SMOOTH",
"425 -196 OFFCURVE",
"455 -236 OFFCURVE",
"455 -297 CURVE SMOOTH",
"455 -340 OFFCURVE",
"425 -369 OFFCURVE",
"382 -369 CURVE SMOOTH",
"353 -369 OFFCURVE",
"321 -351 OFFCURVE",
"301 -329 CURVE",
"330 -287 OFFCURVE",
"345 -244 OFFCURVE",
"345 -205 CURVE SMOOTH",
"345 -142 OFFCURVE",
"305 -94 OFFCURVE",
"225 -94 CURVE SMOOTH",
"176 -94 OFFCURVE",
"126 -118 OFFCURVE",
"103 -144 CURVE SMOOTH",
"94 -154 OFFCURVE",
"92 -162 OFFCURVE",
"92 -170 CURVE SMOOTH",
"92 -183 OFFCURVE",
"103 -192 OFFCURVE",
"117 -192 CURVE SMOOTH",
"125 -192 OFFCURVE",
"134 -188 OFFCURVE",
"142 -182 CURVE SMOOTH",
"160 -169 OFFCURVE",
"180 -160 OFFCURVE",
"200 -160 CURVE SMOOTH",
"249 -160 OFFCURVE",
"284 -198 OFFCURVE",
"284 -247 CURVE SMOOTH",
"284 -261 OFFCURVE",
"282 -276 OFFCURVE",
"275 -291 CURVE",
"244 -265 OFFCURVE",
"217 -247 OFFCURVE",
"178 -247 CURVE SMOOTH",
"112 -247 OFFCURVE",
"50 -304 OFFCURVE",
"50 -375 CURVE SMOOTH",
"50 -419 OFFCURVE",
"78 -438 OFFCURVE",
"115 -438 CURVE SMOOTH"
);
},
{
closed = 1;
nodes = (
"264 -530 OFFCURVE",
"287 -509 OFFCURVE",
"287 -489 CURVE SMOOTH",
"287 -467 OFFCURVE",
"271 -418 OFFCURVE",
"255 -418 CURVE SMOOTH",
"238 -418 OFFCURVE",
"208 -462 OFFCURVE",
"208 -490 CURVE SMOOTH",
"208 -510 OFFCURVE",
"223 -530 OFFCURVE",
"243 -530 CURVE SMOOTH"
);
},
{
closed = 1;
nodes = (
"119 -373 OFFCURVE",
"106 -363 OFFCURVE",
"106 -350 CURVE SMOOTH",
"106 -331 OFFCURVE",
"125 -306 OFFCURVE",
"160 -306 CURVE SMOOTH",
"184 -306 OFFCURVE",
"211 -320 OFFCURVE",
"233 -339 CURVE",
"205 -360 OFFCURVE",
"170 -373 OFFCURVE",
"137 -373 CURVE SMOOTH"
);
}
);
width = 516;
}
);
leftKerningGroup = tlKHAc2.following;
rightKerningGroup = c20;
script = telugu;
category = Mark;
subCategory = Spacing;
},
{
color = 7;
glyphname = tlGAc2;
lastChange = "2016-01-01 05:46:49 +0000";
layers = (
{
anchors = (
{
name = _bottom;
position = "{-197, 0}";
},
{
name = bottom;
position = "{-197, -438}";
}
);
layerId = "59118767-2CA9-48AA-9373-694D24C960D8";
name = Regular;
paths = (
{
closed = 1;
nodes = (
"-53 -438 OFFCURVE",
"-14 -398 OFFCURVE",
"-10 -379 CURVE SMOOTH",
"-3 -349 OFFCURVE",
"0 -319 OFFCURVE",
"0 -290 CURVE SMOOTH",
"0 -180 OFFCURVE",
"-51 -94 OFFCURVE",
"-158 -94 CURVE SMOOTH",
"-294 -94 OFFCURVE",
"-395 -273 OFFCURVE",
"-395 -415 CURVE SMOOTH",
"-395 -427 OFFCURVE",
"-390 -434 OFFCURVE",
"-381 -434 CURVE SMOOTH",
"-359 -434 OFFCURVE",
"-307 -387 OFFCURVE",
"-307 -349 CURVE SMOOTH",
"-307 -252 OFFCURVE",
"-250 -187 OFFCURVE",
"-177 -187 CURVE SMOOTH",
"-131 -187 OFFCURVE",
"-75 -240 OFFCURVE",
"-75 -324 CURVE SMOOTH",
"-75 -371 OFFCURVE",
"-84 -405 OFFCURVE",
"-84 -422 CURVE SMOOTH",
"-84 -432 OFFCURVE",
"-79 -438 OFFCURVE",
"-71 -438 CURVE SMOOTH"
);
}
);
width = 0;
}
);
rightKerningGroup = c20;
script = telugu;
category = Mark;
subCategory = Nonspacing;
},
{
color = 8;
glyphname = tlGAc2.following;
lastChange = "2016-01-01 05:46:49 +0000";
layers = (
{
anchors = (
{
name = _bottom;
position = "{222, 0}";
},
{
name = bottom;
position = "{222, -528}";
}
);
layerId = "59118767-2CA9-48AA-9373-694D24C960D8";
name = Regular;
paths = (
{
closed = 1;
nodes = (
"392 -438 OFFCURVE",
"431 -398 OFFCURVE",
"435 -379 CURVE SMOOTH",
"442 -349 OFFCURVE",
"445 -319 OFFCURVE",
"445 -290 CURVE SMOOTH",
"445 -180 OFFCURVE",
"394 -94 OFFCURVE",
"287 -94 CURVE SMOOTH",
"151 -94 OFFCURVE",
"50 -273 OFFCURVE",
"50 -415 CURVE SMOOTH",
"50 -427 OFFCURVE",
"55 -434 OFFCURVE",
"64 -434 CURVE SMOOTH",
"86 -434 OFFCURVE",
"138 -387 OFFCURVE",
"138 -349 CURVE SMOOTH",
"138 -252 OFFCURVE",
"195 -187 OFFCURVE",
"268 -187 CURVE SMOOTH",
"314 -187 OFFCURVE",
"370 -240 OFFCURVE",
"370 -324 CURVE SMOOTH",
"370 -371 OFFCURVE",
"361 -405 OFFCURVE",
"361 -422 CURVE SMOOTH",
"361 -432 OFFCURVE",
"366 -438 OFFCURVE",
"374 -438 CURVE SMOOTH"
);
}
);
width = 445;
}
);
rightKerningGroup = c20;
script = telugu;
category = Mark;
subCategory = Spacing;
},
{
color = 7;
glyphname = tlGHAc2;
lastChange = "2016-01-01 05:46:51 +0000";
layers = (
{
anchors = (
{
name = _bottom;
position = "{-280, 0}";
},
{
name = bottom;
position = "{-280, -438}";
}
);
layerId = "59118767-2CA9-48AA-9373-694D24C960D8";
name = Regular;
paths = (
{
closed = 1;
nodes = (
"-462 -438 OFFCURVE",
"-425 -417 OFFCURVE",
"-396 -388 CURVE",
"-380 -420 OFFCURVE",
"-354 -438 OFFCURVE",
"-315 -438 CURVE SMOOTH",
"-285 -438 OFFCURVE",
"-253 -422 OFFCURVE",
"-226 -395 CURVE",
"-211 -421 OFFCURVE",
"-186 -438 OFFCURVE",
"-153 -438 CURVE SMOOTH",
"-78 -438 OFFCURVE",
"0 -368 OFFCURVE",
"0 -256 CURVE SMOOTH",
"0 -160 OFFCURVE",
"-36 -95 OFFCURVE",
"-75 -95 CURVE SMOOTH",
"-100 -95 OFFCURVE",
"-126 -134 OFFCURVE",
"-126 -158 CURVE SMOOTH",
"-126 -168 OFFCURVE",
"-121 -173 OFFCURVE",
"-117 -176 CURVE SMOOTH",
"-91 -196 OFFCURVE",
"-57 -236 OFFCURVE",
"-57 -297 CURVE SMOOTH",
"-57 -344 OFFCURVE",
"-93 -370 OFFCURVE",
"-128 -370 CURVE SMOOTH",
"-150 -370 OFFCURVE",
"-172 -359 OFFCURVE",
"-184 -337 CURVE",
"-172 -312 OFFCURVE",
"-165 -285 OFFCURVE",
"-165 -256 CURVE SMOOTH",
"-165 -160 OFFCURVE",
"-203 -95 OFFCURVE",
"-243 -95 CURVE SMOOTH",
"-269 -95 OFFCURVE",
"-297 -134 OFFCURVE",
"-297 -158 CURVE SMOOTH",
"-297 -168 OFFCURVE",
"-291 -173 OFFCURVE",
"-287 -176 CURVE SMOOTH",
"-260 -196 OFFCURVE",
"-225 -232 OFFCURVE",
"-225 -297 CURVE SMOOTH",
"-225 -342 OFFCURVE",
"-262 -366 OFFCURVE",
"-285 -366 CURVE SMOOTH",
"-324 -366 OFFCURVE",
"-339 -347 OFFCURVE",
"-349 -317 CURVE",
"-345 -305 OFFCURVE",
"-343 -293 OFFCURVE",
"-343 -282 CURVE SMOOTH",
"-343 -242 OFFCURVE",
"-366 -213 OFFCURVE",
"-405 -213 CURVE SMOOTH",
"-495 -213 OFFCURVE",
"-561 -301 OFFCURVE",
"-561 -373 CURVE SMOOTH",
"-561 -419 OFFCURVE",
"-532 -438 OFFCURVE",
"-497 -438 CURVE SMOOTH"
);
},
{
closed = 1;
nodes = (
"-397 -540 OFFCURVE",
"-372 -519 OFFCURVE",
"-372 -499 CURVE SMOOTH",
"-372 -482 OFFCURVE",
"-388 -428 OFFCURVE",
"-406 -428 CURVE SMOOTH",
"-421 -428 OFFCURVE",
"-455 -473 OFFCURVE",
"-455 -500 CURVE SMOOTH",
"-455 -520 OFFCURVE",
"-436 -540 OFFCURVE",
"-417 -540 CURVE SMOOTH"
);
},
{
closed = 1;
nodes = (
"-485 -367 OFFCURVE",
"-500 -352 OFFCURVE",
"-500 -336 CURVE SMOOTH",
"-500 -301 OFFCURVE",
"-468 -284 OFFCURVE",
"-438 -284 CURVE SMOOTH",
"-420 -284 OFFCURVE",
"-401 -290 OFFCURVE",
"-390 -303 CURVE",
"-397 -338 OFFCURVE",
"-428 -367 OFFCURVE",
"-461 -367 CURVE SMOOTH"
);
}
);
width = 0;
}
);
rightKerningGroup = c20;
script = telugu;
category = Mark;
subCategory = Nonspacing;
},
{
color = 8;
glyphname = tlGHAc2.following;
lastChange = "2016-01-01 05:46:51 +0000";
layers = (
{
anchors = (
{
name = _bottom;
position = "{305, 0}";
},
{
name = bottom;
position = "{305, -528}";
}
);
layerId = "59118767-2CA9-48AA-9373-694D24C960D8";
name = Regular;
paths = (
{
closed = 1;
nodes = (
"149 -438 OFFCURVE",
"186 -417 OFFCURVE",
"215 -388 CURVE",
"231 -420 OFFCURVE",
"257 -438 OFFCURVE",
"296 -438 CURVE SMOOTH",
"326 -438 OFFCURVE",
"358 -422 OFFCURVE",
"385 -395 CURVE",
"400 -421 OFFCURVE",
"425 -438 OFFCURVE",
"458 -438 CURVE SMOOTH",
"533 -438 OFFCURVE",
"611 -368 OFFCURVE",
"611 -256 CURVE SMOOTH",
"611 -160 OFFCURVE",
"575 -95 OFFCURVE",
"536 -95 CURVE SMOOTH",
"511 -95 OFFCURVE",
"485 -134 OFFCURVE",
"485 -158 CURVE SMOOTH",
"485 -168 OFFCURVE",
"490 -173 OFFCURVE",
"494 -176 CURVE SMOOTH",
"520 -196 OFFCURVE",
"554 -236 OFFCURVE",
"554 -297 CURVE SMOOTH",
"554 -344 OFFCURVE",
"518 -370 OFFCURVE",
"483 -370 CURVE SMOOTH",
"461 -370 OFFCURVE",
"439 -359 OFFCURVE",
"427 -337 CURVE",
"439 -312 OFFCURVE",
"446 -285 OFFCURVE",
"446 -256 CURVE SMOOTH",
"446 -160 OFFCURVE",
"408 -95 OFFCURVE",
"368 -95 CURVE SMOOTH",
"342 -95 OFFCURVE",
"314 -134 OFFCURVE",
"314 -158 CURVE SMOOTH",
"314 -168 OFFCURVE",
"320 -173 OFFCURVE",
"324 -176 CURVE SMOOTH",
"351 -196 OFFCURVE",
"386 -232 OFFCURVE",
"386 -297 CURVE SMOOTH",
"386 -342 OFFCURVE",
"349 -366 OFFCURVE",
"326 -366 CURVE SMOOTH",
"287 -366 OFFCURVE",
"272 -347 OFFCURVE",
"262 -317 CURVE",
"266 -305 OFFCURVE",
"268 -293 OFFCURVE",
"268 -282 CURVE SMOOTH",
"268 -242 OFFCURVE",
"245 -213 OFFCURVE",
"206 -213 CURVE SMOOTH",
"116 -213 OFFCURVE",
"50 -301 OFFCURVE",
"50 -373 CURVE SMOOTH",
"50 -419 OFFCURVE",
"79 -438 OFFCURVE",
"114 -438 CURVE SMOOTH"
);
},
{
closed = 1;
nodes = (
"214 -540 OFFCURVE",
"239 -519 OFFCURVE",
"239 -499 CURVE SMOOTH",
"239 -482 OFFCURVE",
"223 -428 OFFCURVE",
"205 -428 CURVE SMOOTH",
"190 -428 OFFCURVE",
"156 -473 OFFCURVE",
"156 -500 CURVE SMOOTH",
"156 -520 OFFCURVE",
"175 -540 OFFCURVE",
"194 -540 CURVE SMOOTH"
);
},
{
closed = 1;
nodes = (
"126 -367 OFFCURVE",
"111 -352 OFFCURVE",
"111 -336 CURVE SMOOTH",
"111 -301 OFFCURVE",
"143 -284 OFFCURVE",
"173 -284 CURVE SMOOTH",
"191 -284 OFFCURVE",
"210 -290 OFFCURVE",
"221 -303 CURVE",
"214 -338 OFFCURVE",
"183 -367 OFFCURVE",
"150 -367 CURVE SMOOTH"
);
}
);
width = 611;
}
);
leftKerningGroup = c2PA;
rightKerningGroup = c20;
script = telugu;
category = Mark;
subCategory = Spacing;
},
{
color = 7;
glyphname = tlNGAc2;
lastChange = "2016-01-01 05:46:51 +0000";
layers = (
{
anchors = (
{
name = _bottom;
position = "{-219, 0}";
},
{
name = bottom;
position = "{-219, -438}";
}
);
layerId = "59118767-2CA9-48AA-9373-694D24C960D8";
name = Regular;
paths = (
{
closed = 1;
nodes = (
"-313 -438 OFFCURVE",
"-270 -418 OFFCURVE",
"-231 -385 CURVE",
"-212 -420 OFFCURVE",
"-183 -438 OFFCURVE",
"-145 -438 CURVE SMOOTH",
"-66 -438 OFFCURVE",
"0 -347 OFFCURVE",
"0 -294 CURVE SMOOTH",
"0 -274 OFFCURVE",
"-10 -259 OFFCURVE",
"-35 -259 CURVE SMOOTH",
"-71 -259 OFFCURVE",
"-90 -297 OFFCURVE",
"-90 -310 CURVE SMOOTH",
"-90 -315 OFFCURVE",
"-87 -319 OFFCURVE",
"-84 -321 CURVE SMOOTH",
"-75 -327 OFFCURVE",
"-72 -335 OFFCURVE",
"-72 -342 CURVE SMOOTH",
"-72 -355 OFFCURVE",
"-89 -366 OFFCURVE",
"-111 -366 CURVE SMOOTH",
"-145 -366 OFFCURVE",
"-172 -354 OFFCURVE",
"-174 -317 CURVE",
"-175 -307 OFFCURVE",
"-182 -300 OFFCURVE",
"-194 -300 CURVE SMOOTH",
"-204 -300 OFFCURVE",
"-211 -304 OFFCURVE",
"-226 -319 CURVE SMOOTH",
"-243 -337 OFFCURVE",
"-273 -369 OFFCURVE",
"-303 -369 CURVE SMOOTH",
"-318 -369 OFFCURVE",
"-325 -362 OFFCURVE",
"-325 -346 CURVE SMOOTH",
"-325 -319 OFFCURVE",
"-304 -294 OFFCURVE",
"-282 -267 CURVE",
"-137 -264 LINE SMOOTH",
"-114 -263 OFFCURVE",
"-85 -232 OFFCURVE",
"-85 -218 CURVE SMOOTH",
"-85 -210 OFFCURVE",
"-92 -206 OFFCURVE",
"-100 -206 CURVE SMOOTH",
"-156 -207 OFFCURVE",
"-191 -208 OFFCURVE",
"-240 -210 CURVE",
"-232 -194 OFFCURVE",
"-226 -177 OFFCURVE",
"-226 -159 CURVE SMOOTH",
"-226 -118 OFFCURVE",
"-253 -95 OFFCURVE",
"-299 -95 CURVE SMOOTH",
"-384 -95 OFFCURVE",
"-438 -167 OFFCURVE",
"-438 -220 CURVE SMOOTH",
"-438 -260 OFFCURVE",
"-410 -285 OFFCURVE",
"-367 -285 CURVE SMOOTH",
"-362 -285 OFFCURVE",
"-358 -285 OFFCURVE",
"-354 -284 CURVE",
"-383 -317 OFFCURVE",
"-416 -352 OFFCURVE",
"-416 -387 CURVE SMOOTH",
"-416 -418 OFFCURVE",
"-391 -438 OFFCURVE",
"-353 -438 CURVE SMOOTH"
);
},
{
closed = 1;
nodes = (
"-356 -232 OFFCURVE",
"-373 -217 OFFCURVE",
"-373 -192 CURVE SMOOTH",
"-373 -170 OFFCURVE",
"-358 -154 OFFCURVE",
"-336 -154 CURVE SMOOTH",
"-317 -154 OFFCURVE",
"-305 -170 OFFCURVE",
"-305 -194 CURVE SMOOTH",
"-305 -205 OFFCURVE",
"-307 -218 OFFCURVE",
"-315 -231 CURVE",
"-320 -232 OFFCURVE",
"-325 -232 OFFCURVE",
"-330 -232 CURVE SMOOTH"
);
},
{
closed = 1;
nodes = (
"-153 -186 OFFCURVE",
"-113 -131 OFFCURVE",
"-113 -106 CURVE SMOOTH",
"-113 -86 OFFCURVE",
"-132 -66 OFFCURVE",
"-152 -66 CURVE SMOOTH",
"-173 -66 OFFCURVE",
"-199 -87 OFFCURVE",
"-199 -107 CURVE SMOOTH",
"-199 -121 OFFCURVE",
"-178 -186 OFFCURVE",
"-164 -186 CURVE SMOOTH"
);
}
);
width = 0;
}
);
rightKerningGroup = c20;
script = telugu;
category = Mark;
subCategory = Nonspacing;
},
{
color = 8;
glyphname = tlNGAc2.following;
lastChange = "2016-01-01 05:46:51 +0000";
layers = (
{
anchors = (
{
name = _bottom;
position = "{244, 0}";
},
{
name = bottom;
position = "{244, -440}";
}
);
layerId = "59118767-2CA9-48AA-9373-694D24C960D8";
name = Regular;
paths = (
{
closed = 1;
nodes = (
"175 -438 OFFCURVE",
"218 -418 OFFCURVE",
"257 -385 CURVE",
"276 -420 OFFCURVE",
"305 -438 OFFCURVE",
"343 -438 CURVE SMOOTH",
"422 -438 OFFCURVE",
"488 -347 OFFCURVE",
"488 -294 CURVE SMOOTH",
"488 -274 OFFCURVE",
"478 -259 OFFCURVE",
"453 -259 CURVE SMOOTH",
"417 -259 OFFCURVE",
"398 -297 OFFCURVE",
"398 -310 CURVE SMOOTH",
"398 -315 OFFCURVE",
"401 -319 OFFCURVE",
"404 -321 CURVE SMOOTH",
"413 -327 OFFCURVE",
"416 -335 OFFCURVE",
"416 -342 CURVE SMOOTH",
"416 -355 OFFCURVE",
"399 -366 OFFCURVE",
"377 -366 CURVE SMOOTH",
"343 -366 OFFCURVE",
"316 -354 OFFCURVE",
"314 -317 CURVE",
"313 -307 OFFCURVE",
"306 -300 OFFCURVE",
"294 -300 CURVE SMOOTH",
"284 -300 OFFCURVE",
"277 -304 OFFCURVE",
"262 -319 CURVE SMOOTH",
"245 -337 OFFCURVE",
"215 -369 OFFCURVE",
"185 -369 CURVE SMOOTH",
"170 -369 OFFCURVE",
"163 -362 OFFCURVE",
"163 -346 CURVE SMOOTH",
"163 -319 OFFCURVE",
"184 -294 OFFCURVE",
"206 -267 CURVE",
"351 -264 LINE SMOOTH",
"374 -263 OFFCURVE",
"403 -232 OFFCURVE",
"403 -218 CURVE SMOOTH",
"403 -210 OFFCURVE",
"396 -206 OFFCURVE",
"388 -206 CURVE SMOOTH",
"332 -207 OFFCURVE",
"297 -208 OFFCURVE",
"248 -210 CURVE",
"256 -194 OFFCURVE",
"262 -177 OFFCURVE",
"262 -159 CURVE SMOOTH",
"262 -118 OFFCURVE",
"235 -95 OFFCURVE",
"189 -95 CURVE SMOOTH",
"104 -95 OFFCURVE",
"50 -167 OFFCURVE",
"50 -220 CURVE SMOOTH",
"50 -260 OFFCURVE",
"78 -285 OFFCURVE",
"121 -285 CURVE SMOOTH",
"126 -285 OFFCURVE",
"130 -285 OFFCURVE",
"134 -284 CURVE",
"105 -317 OFFCURVE",
"72 -352 OFFCURVE",
"72 -387 CURVE SMOOTH",
"72 -418 OFFCURVE",
"97 -438 OFFCURVE",
"135 -438 CURVE SMOOTH"
);
},
{
closed = 1;
nodes = (
"132 -232 OFFCURVE",
"115 -217 OFFCURVE",
"115 -192 CURVE SMOOTH",
"115 -170 OFFCURVE",
"130 -154 OFFCURVE",
"152 -154 CURVE SMOOTH",
"171 -154 OFFCURVE",
"183 -170 OFFCURVE",
"183 -194 CURVE SMOOTH",
"183 -205 OFFCURVE",
"181 -218 OFFCURVE",
"173 -231 CURVE",
"168 -232 OFFCURVE",
"163 -232 OFFCURVE",
"158 -232 CURVE SMOOTH"
);
},
{
closed = 1;
nodes = (
"335 -186 OFFCURVE",
"375 -131 OFFCURVE",
"375 -106 CURVE SMOOTH",
"375 -86 OFFCURVE",
"356 -66 OFFCURVE",
"336 -66 CURVE SMOOTH",
"315 -66 OFFCURVE",
"289 -87 OFFCURVE",
"289 -107 CURVE SMOOTH",
"289 -121 OFFCURVE",
"310 -186 OFFCURVE",
"324 -186 CURVE SMOOTH"
);
}
);
width = 488;
}
);
leftKerningGroup = c2O;
rightKerningGroup = c20;
script = telugu;
category = Mark;
subCategory = Spacing;
},
{
color = 7;
glyphname = tlCAc2;
lastChange = "2016-01-01 05:46:49 +0000";
layers = (
{
anchors = (
{
name = bottom;
position = "{-150, -438}";
}
);
guideLines = (
{
position = "{244, -337}";
}
);
layerId = "59118767-2CA9-48AA-9373-694D24C960D8";
name = Regular;
paths = (
{
closed = 1;
nodes = (
"-88 -438 OFFCURVE",
"-37 -419 OFFCURVE",
"6 -380 CURVE",
"27 -416 OFFCURVE",
"67 -438 OFFCURVE",
"108 -438 CURVE SMOOTH",
"236 -438 OFFCURVE",
"290 -303 OFFCURVE",
"290 -111 CURVE SMOOTH",
"290 81 OFFCURVE",
"223 404 OFFCURVE",
"135 555 CURVE SMOOTH",
"119 583 OFFCURVE",
"96 599 OFFCURVE",
"73 599 CURVE SMOOTH",
"53 599 OFFCURVE",
"34 586 OFFCURVE",
"19 558 CURVE SMOOTH",
"12 544 OFFCURVE",
"8 534 OFFCURVE",
"8 525 CURVE SMOOTH",
"8 509 OFFCURVE",
"23 499 OFFCURVE",
"61 432 CURVE SMOOTH",
"147 278 OFFCURVE",
"215 23 OFFCURVE",
"215 -183 CURVE SMOOTH",
"215 -295 OFFCURVE",
"187 -366 OFFCURVE",
"128 -366 CURVE SMOOTH",
"93 -366 OFFCURVE",
"68 -328 OFFCURVE",
"63 -280 CURVE SMOOTH",
"62 -271 OFFCURVE",
"55 -263 OFFCURVE",
"45 -263 CURVE SMOOTH",
"36 -263 OFFCURVE",
"24 -268 OFFCURVE",
"18 -280 CURVE SMOOTH",
"-7 -332 OFFCURVE",
"-45 -368 OFFCURVE",
"-73 -368 CURVE SMOOTH",
"-98 -368 OFFCURVE",
"-105 -350 OFFCURVE",
"-105 -325 CURVE SMOOTH",
"-105 -250 OFFCURVE",
"-4 -160 OFFCURVE",
"-4 -144 CURVE SMOOTH",
"-4 -132 OFFCURVE",
"-13 -126 OFFCURVE",
"-29 -126 CURVE SMOOTH",
"-102 -126 OFFCURVE",
"-154 -126 OFFCURVE",
"-166 -131 CURVE SMOOTH",
"-198 -144 OFFCURVE",
"-210 -188 OFFCURVE",
"-210 -198 CURVE SMOOTH",
"-210 -203 OFFCURVE",
"-205 -207 OFFCURVE",
"-196 -207 CURVE SMOOTH",
"-191 -207 OFFCURVE",
"-138 -204 OFFCURVE",
"-96 -201 CURVE",
"-131 -239 OFFCURVE",
"-189 -298 OFFCURVE",
"-189 -371 CURVE SMOOTH",
"-189 -415 OFFCURVE",
"-160 -438 OFFCURVE",
"-119 -438 CURVE SMOOTH"
);
}
);
width = 330;
}
);
leftKerningGroup = tlCAc2;
rightKerningGroup = tlCAc2;
script = telugu;
category = Mark;
subCategory = Spacing;
},
